AsbirSansItalic-ItalicTextRegular.ufo
<glyph name="exclam" format="2">
  <advance width="589"/>
  <unicode hex="0021"/>
  <outline>
    <contour>
      <point x="189" y="479" type="line"/>
      <point x="368" y="479" type="line"/>
      <point x="549" y="1490" type="line"/>
      <point x="345" y="1490" type="line"/>
    </contour>
    <contour>
      <point x="210" y="-13" type="curve" smooth="yes"/>
      <point x="281" y="-13"/>
      <point x="344" y="44"/>
      <point x="354" y="113" type="curve" smooth="yes"/>
      <point x="365" y="189"/>
      <point x="313" y="256"/>
      <point x="232" y="256" type="curve" smooth="yes"/>
      <point x="166" y="256"/>
      <point x="101" y="204"/>
      <point x="89" y="134" type="curve" smooth="yes"/>
      <point x="75" y="52"/>
      <point x="133" y="-13"/>
    </contour>
  </outline>
</glyph>
<glyph name="numbersign" format="2">
  <advance width="1297"/>
  <unicode hex="0023"/>
  <outline>
    <contour>
      <point x="729" y="0" type="line"/>
      <point x="882" y="0" type="line"/>
      <point x="1152" y="1490" type="line"/>
      <point x="999" y="1490" type="line"/>
    </contour>
    <contour>
      <point x="60" y="411" type="line"/>
      <point x="1174" y="411" type="line"/>
      <point x="1203" y="561" type="line"/>
      <point x="87" y="561" type="line"/>
    </contour>
    <contour>
      <point x="205" y="0" type="line"/>
      <point x="358" y="0" type="line"/>
      <point x="628" y="1490" type="line"/>
      <point x="477" y="1490" type="line"/>
    </contour>
    <contour>
      <point x="156" y="927" type="line"/>
      <point x="1270" y="927" type="line"/>
      <point x="1299" y="1079" type="line"/>
      <point x="183" y="1079" type="line"/>
    </contour>
  </outline>
</glyph>
<glyph name="dollar" format="2">
  <advance width="1312"/>
  <unicode hex="0024"/>
  <anchor x="563" y="0" name="bottom"/>
  <anchor x="564" y="0" name="cedilla"/>
  <anchor x="809" y="1490" name="top"/>
  <outline>
    <contour>
      <point x="468" y="-218" type="line"/>
      <point x="588" y="-218" type="line"/>
      <point x="907" y="1708" type="line"/>
      <point x="787" y="1708" type="line"/>
    </contour>
    <component base="S"/>
  </outline>
</glyph>
<glyph name="ampersand" format="2">
  <advance width="1412"/>
  <unicode hex="0026"/>
  <outline>
    <contour>
      <point x="495" y="-20" type="curve"/>
      <point x="631" y="-20"/>
      <point x="796" y="27"/>
      <point x="912" y="133" type="curve"/>
      <point x="958" y="178" type="line"/>
      <point x="1023" y="233"/>
      <point x="1167" y="358"/>
      <point x="1215" y="658" type="curve"/>
      <point x="1042" y="658" type="line"/>
      <point x="990" y="345"/>
      <point x="728" y="137"/>
      <point x="487" y="137" type="curve" smooth="yes"/>
      <point x="327" y="137"/>
      <point x="235" y="230"/>
      <point x="258" y="371" type="curve" smooth="yes"/>
      <point x="274" y="469"/>
      <point x="334" y="542"/>
      <point x="473" y="633" type="curve" smooth="yes"/>
      <point x="809" y="854" type="line" smooth="yes"/>
      <point x="938" y="939"/>
      <point x="1032" y="1040"/>
      <point x="1053" y="1171" type="curve" smooth="yes"/>
      <point x="1084" y="1354"/>
      <point x="965" y="1504"/>
      <point x="736" y="1504" type="curve" smooth="yes"/>
      <point x="520" y="1504"/>
      <point x="359" y="1370"/>
      <point x="328" y="1179" type="curve" smooth="yes"/>
      <point x="297" y="994"/>
      <point x="401" y="877"/>
      <point x="529" y="683" type="curve" smooth="yes"/>
      <point x="979" y="0" type="line"/>
      <point x="1192" y="0" type="line"/>
      <point x="640" y="827" type="line" smooth="yes"/>
      <point x="550" y="961"/>
      <point x="487" y="1050"/>
      <point x="505" y="1156" type="curve" smooth="yes"/>
      <point x="524" y="1269"/>
      <point x="618" y="1349"/>
      <point x="736" y="1349" type="curve" smooth="yes"/>
      <point x="839" y="1349"/>
      <point x="892" y="1287"/>
      <point x="877" y="1198" type="curve" smooth="yes"/>
      <point x="858" y="1087"/>
      <point x="762" y="1024"/>
      <point x="701" y="984" type="curve" smooth="yes"/>
      <point x="452" y="821" type="line" smooth="yes"/>
      <point x="252" y="690"/>
      <point x="109" y="590"/>
      <point x="78" y="401" type="curve" smooth="yes"/>
      <point x="39" y="165"/>
      <point x="194" y="-20"/>
    </contour>
  </outline>
</glyph>
<glyph name="quotesingle" format="2">
  <advance width="614"/>
  <unicode hex="0027"/>
  <outline>
    <contour>
      <point x="292" y="923" type="line"/>
      <point x="443" y="923" type="line"/>
      <point x="558" y="1490" type="line"/>
      <point x="364" y="1490" type="line"/>
    </contour>
  </outline>
</glyph>
<glyph name="parenleft" format="2">
  <advance width="747"/>
  <unicode hex="0028"/>
  <outline>
    <contour>
      <point x="226" y="608" type="curve" smooth="yes"/>
      <point x="178" y="320"/>
      <point x="213" y="15"/>
      <point x="337" y="-279" type="curve"/>
      <point x="512" y="-279" type="line"/>
      <point x="398" y="79"/>
      <point x="365" y="345"/>
      <point x="409" y="609" type="curve" smooth="yes"/>
      <point x="457" y="897"/>
      <point x="611" y="1263"/>
      <point x="820" y="1581" type="curve"/>
      <point x="645" y="1581" type="line"/>
      <point x="454" y="1334"/>
      <point x="280" y="932"/>
    </contour>
  </outline>
</glyph>
<glyph name="parenright" format="2">
  <advance width="746"/>
  <unicode hex="0029"/>
  <outline>
    <contour>
      <point x="-43" y="-280" type="curve"/>
      <point x="133" y="-280" type="line"/>
      <point x="352" y="11"/>
      <point x="488" y="317"/>
      <point x="536" y="606" type="curve" smooth="yes"/>
      <point x="590" y="931"/>
      <point x="549" y="1334"/>
      <point x="441" y="1580" type="curve"/>
      <point x="265" y="1580" type="line"/>
      <point x="369" y="1261"/>
      <point x="402" y="898"/>
      <point x="354" y="607" type="curve" smooth="yes"/>
      <point x="310" y="340"/>
      <point x="186" y="71"/>
    </contour>
  </outline>
</glyph>
<glyph name="asterisk" format="2">
  <advance width="1026"/>
  <unicode hex="002A"/>
  <outline>
    <contour>
      <point x="455" y="652" type="line"/>
      <point x="599" y="652" type="line"/>
      <point x="642" y="969" type="line"/>
      <point x="883" y="798" type="line"/>
      <point x="976" y="924" type="line"/>
      <point x="716" y="1070" type="line"/>
      <point x="1020" y="1216" type="line"/>
      <point x="966" y="1344" type="line"/>
      <point x="675" y="1173" type="line"/>
      <point x="739" y="1490" type="line"/>
      <point x="595" y="1490" type="line"/>
      <point x="556" y="1173" type="line"/>
      <point x="314" y="1344" type="line"/>
      <point x="222" y="1216" type="line"/>
      <point x="480" y="1070" type="line"/>
      <point x="178" y="924" type="line"/>
      <point x="228" y="798" type="line"/>
      <point x="523" y="969" type="line"/>
    </contour>
  </outline>
</glyph>
<glyph name="plus" format="2">
  <advance width="1356"/>
  <unicode hex="002B"/>
  <outline>
    <contour>
      <point x="517" y="100" type="line"/>
      <point x="686" y="100" type="line"/>
      <point x="846" y="1066" type="line"/>
      <point x="677" y="1066" type="line"/>
    </contour>
    <contour>
      <point x="185" y="497" type="line"/>
      <point x="1150" y="497" type="line"/>
      <point x="1178" y="669" type="line"/>
      <point x="213" y="669" type="line"/>
    </contour>
  </outline>
</glyph>
<glyph name="slash" format="2">
  <advance width="738"/>
  <unicode hex="002F"/>
  <outline>
    <contour>
      <point x="858" y="1560" type="line"/>
      <point x="692" y="1560" type="line"/>
      <point x="-82" y="-224" type="line"/>
      <point x="84" y="-224" type="line"/>
    </contour>
  </outline>
</glyph>
<glyph name="zero" format="2">
  <advance width="1291"/>
  <unicode hex="0030"/>
  <anchor x="676" y="745" name="center"/>
  <anchor x="800" y="1490" name="top"/>
  <outline>
    <contour>
      <point x="550" y="-20" type="curve" smooth="yes"/>
      <point x="882" y="-20"/>
      <point x="1121" y="257"/>
      <point x="1201" y="747" type="curve" smooth="yes"/>
      <point x="1280" y="1231"/>
      <point x="1131" y="1510"/>
      <point x="803" y="1510" type="curve" smooth="yes"/>
      <point x="474" y="1510"/>
      <point x="232" y="1229"/>
      <point x="152" y="744" type="curve" smooth="yes"/>
      <point x="72" y="259"/>
      <point x="217" y="-20"/>
    </contour>
    <contour>
      <point x="577" y="146" type="curve" smooth="yes"/>
      <point x="359" y="146"/>
      <point x="273" y="367"/>
      <point x="335" y="743" type="curve" smooth="yes"/>
      <point x="399" y="1131"/>
      <point x="562" y="1345"/>
      <point x="776" y="1345" type="curve" smooth="yes"/>
      <point x="997" y="1345"/>
      <point x="1079" y="1119"/>
      <point x="1018" y="747" type="curve" smooth="yes"/>
      <point x="956" y="369"/>
      <point x="797" y="146"/>
    </contour>
  </outline>
</glyph>
<glyph name="one" format="2">
  <advance width="816"/>
  <unicode hex="0031"/>
  <outline>
    <contour>
      <point x="449.0" y="0" type="line"/>
      <point x="636.0" y="0" type="line"/>
      <point x="904.2" y="1490" type="line"/>
      <point x="741.2" y="1490" type="line"/>
      <point x="668.44" y="1358"/>
      <point x="515.88" y="1266"/>
      <point x="359.88" y="1266" type="curve" smooth="yes"/>
      <point x="353.88" y="1266" type="line"/>
      <point x="325.62" y="1109" type="line"/>
      <point x="493.62" y="1109"/>
      <point x="636.14" y="1173"/>
      <point x="686.74" y="1243" type="curve"/>
      <point x="674.54" y="1253" type="line"/>
    </contour>
  </outline>
</glyph>
<glyph name="two" format="2">
  <advance width="1249"/>
  <unicode hex="0032"/>
  <anchor x="709" y="634" name="cross"/>
  <anchor x="778" y="1490" name="top"/>
  <outline>
    <contour>
      <point x="61" y="0" type="line"/>
      <point x="1010" y="0" type="line"/>
      <point x="1037" y="167" type="line"/>
      <point x="351" y="167" type="line"/>
      <point x="353" y="179" type="line"/>
      <point x="737" y="526" type="line" smooth="yes"/>
      <point x="1039" y="799"/>
      <point x="1137" y="928"/>
      <point x="1165" y="1092" type="curve" smooth="yes"/>
      <point x="1205" y="1325"/>
      <point x="1039" y="1510"/>
      <point x="772" y="1510" type="curve" smooth="yes"/>
      <point x="506" y="1510"/>
      <point x="286" y="1330"/>
      <point x="242" y="1067" type="curve"/>
      <point x="423" y="1067" type="line"/>
      <point x="451" y="1236"/>
      <point x="593" y="1345"/>
      <point x="762" y="1345" type="curve" smooth="yes"/>
      <point x="918" y="1345"/>
      <point x="1011" y="1252"/>
      <point x="986" y="1095" type="curve" smooth="yes"/>
      <point x="964" y="957"/>
      <point x="865" y="856"/>
      <point x="667" y="674" type="curve" smooth="yes"/>
      <point x="84" y="137" type="line"/>
    </contour>
  </outline>
</glyph>
<glyph name="three" format="2">
  <advance width="1264"/>
  <unicode hex="0033"/>
  <anchor x="788" y="1490" name="top"/>
  <outline>
    <contour>
      <point x="548" y="-20" type="curve" smooth="yes"/>
      <point x="836" y="-20"/>
      <point x="1076" y="158"/>
      <point x="1117" y="404" type="curve" smooth="yes"/>
      <point x="1148" y="590"/>
      <point x="1063" y="731"/>
      <point x="875" y="762" type="curve"/>
      <point x="877" y="774" type="line"/>
      <point x="1036" y="819"/>
      <point x="1152" y="941"/>
      <point x="1180" y="1111" type="curve" smooth="yes"/>
      <point x="1215" y="1323"/>
      <point x="1067" y="1510"/>
      <point x="791" y="1510" type="curve" smooth="yes"/>
      <point x="530" y="1510"/>
      <point x="296" y="1350"/>
      <point x="249" y="1115" type="curve"/>
      <point x="432" y="1115" type="line"/>
      <point x="461" y="1258"/>
      <point x="613" y="1345"/>
      <point x="768" y="1345" type="curve" smooth="yes"/>
      <point x="930" y="1345"/>
      <point x="1017" y="1248"/>
      <point x="992" y="1099" type="curve" smooth="yes"/>
      <point x="966" y="944"/>
      <point x="829" y="846"/>
      <point x="657" y="846" type="curve" smooth="yes"/>
      <point x="536" y="846" type="line"/>
      <point x="508" y="681" type="line"/>
      <point x="629" y="681" type="line" smooth="yes"/>
      <point x="850" y="681"/>
      <point x="957" y="568"/>
      <point x="930" y="406" type="curve" smooth="yes"/>
      <point x="904" y="250"/>
      <point x="749" y="147"/>
      <point x="563" y="147" type="curve" smooth="yes"/>
      <point x="394" y="147"/>
      <point x="274" y="234"/>
      <point x="287" y="376" type="curve"/>
      <point x="95" y="376" type="line"/>
      <point x="65" y="139"/>
      <point x="257" y="-20"/>
    </contour>
  </outline>
</glyph>
<glyph name="four" format="2">
  <advance width="1323"/>
  <unicode hex="0034"/>
  <outline>
    <contour>
      <point x="174.54" y="303" type="line"/>
      <point x="1259.54" y="303" type="line"/>
      <point x="1289.6" y="470" type="line"/>
      <point x="405.6" y="470" type="line"/>
      <point x="407.76" y="482" type="line"/>
      <point x="1168.2" y="1490" type="line"/>
      <point x="981.2" y="1490" type="line"/>
      <point x="202.44" y="458" type="line"/>
    </contour>
    <contour>
      <point x="822.0" y="0" type="line"/>
      <point x="1002.0" y="0" type="line"/>
      <point x="1169.4" y="930" type="line"/>
      <point x="989.4" y="930" type="line"/>
      <point x="897.96" y="422" type="line"/>
      <point x="884.82" y="349" type="line"/>
    </contour>
  </outline>
</glyph>
<glyph name="five" format="2">
  <advance width="1213"/>
  <unicode hex="0035"/>
  <outline>
    <contour>
      <point x="501" y="-20" type="curve" smooth="yes"/>
      <point x="787" y="-20"/>
      <point x="1030" y="189"/>
      <point x="1078" y="474" type="curve" smooth="yes"/>
      <point x="1127" y="765"/>
      <point x="959" y="975"/>
      <point x="687" y="975" type="curve" smooth="yes"/>
      <point x="584" y="975"/>
      <point x="479" y="939"/>
      <point x="410" y="888" type="curve"/>
      <point x="402" y="888" type="line"/>
      <point x="526" y="1323" type="line"/>
      <point x="1150" y="1323" type="line"/>
      <point x="1178" y="1490" type="line"/>
      <point x="394" y="1490" type="line"/>
      <point x="183" y="752" type="line"/>
      <point x="357" y="730" type="line"/>
      <point x="425" y="776"/>
      <point x="543" y="808"/>
      <point x="633" y="808" type="curve" smooth="yes"/>
      <point x="815" y="808"/>
      <point x="924" y="671"/>
      <point x="893" y="476" type="curve" smooth="yes"/>
      <point x="862" y="281"/>
      <point x="696" y="147"/>
      <point x="519" y="147" type="curve" smooth="yes"/>
      <point x="366" y="147"/>
      <point x="272" y="245"/>
      <point x="282" y="376" type="curve"/>
      <point x="98" y="376" type="line"/>
      <point x="70" y="148"/>
      <point x="239" y="-20"/>
    </contour>
  </outline>
</glyph>
<glyph name="six" format="2">
  <advance width="1267"/>
  <unicode hex="0036"/>
  <outline>
    <contour>
      <point x="565" y="-20" type="curve" smooth="yes"/>
      <point x="866" y="-20"/>
      <point x="1086" y="199"/>
      <point x="1133" y="480" type="curve" smooth="yes"/>
      <point x="1181" y="767"/>
      <point x="988" y="974"/>
      <point x="731" y="974" type="curve" smooth="yes"/>
      <point x="582" y="974"/>
      <point x="453" y="905"/>
      <point x="348" y="776" type="curve"/>
      <point x="336" y="776" type="line"/>
      <point x="396" y="1133"/>
      <point x="575" y="1342"/>
      <point x="804" y="1342" type="curve" smooth="yes"/>
      <point x="953" y="1342"/>
      <point x="1028" y="1251"/>
      <point x="1040" y="1115" type="curve"/>
      <point x="1226" y="1115" type="line"/>
      <point x="1229" y="1348"/>
      <point x="1059" y="1510"/>
      <point x="808" y="1510" type="curve" smooth="yes"/>
      <point x="471" y="1510"/>
      <point x="229" y="1214"/>
      <point x="142" y="688" type="curve" smooth="yes"/>
      <point x="51" y="138"/>
      <point x="316" y="-20"/>
    </contour>
    <contour>
      <point x="567" y="147" type="curve" smooth="yes"/>
      <point x="385" y="147"/>
      <point x="285" y="302"/>
      <point x="313" y="477" type="curve" smooth="yes"/>
      <point x="341" y="652"/>
      <point x="517" y="809"/>
      <point x="699" y="809" type="curve" smooth="yes"/>
      <point x="881" y="809"/>
      <point x="980" y="661"/>
      <point x="949" y="479" type="curve" smooth="yes"/>
      <point x="917" y="292"/>
      <point x="745" y="147"/>
    </contour>
  </outline>
</glyph>
<glyph name="seven" format="2">
  <advance width="1161"/>
  <unicode hex="0037"/>
  <outline>
    <contour>
      <point x="98" y="0" type="line"/>
      <point x="309" y="0" type="line"/>
      <point x="1187" y="1313" type="line"/>
      <point x="1217" y="1490" type="line"/>
      <point x="254" y="1490" type="line"/>
      <point x="226" y="1323" type="line"/>
      <point x="979" y="1323" type="line"/>
      <point x="977" y="1311" type="line"/>
    </contour>
  </outline>
</glyph>
<glyph name="eight" format="2">
  <advance width="1264"/>
  <unicode hex="0038"/>
  <outline>
    <contour>
      <point x="545" y="-20" type="curve" smooth="yes"/>
      <point x="842" y="-20"/>
      <point x="1074" y="151"/>
      <point x="1116" y="394" type="curve" smooth="yes"/>
      <point x="1149" y="585"/>
      <point x="1043" y="744"/>
      <point x="888" y="774" type="curve"/>
      <point x="889" y="782" type="line"/>
      <point x="1036" y="819"/>
      <point x="1153" y="955"/>
      <point x="1179" y="1115" type="curve" smooth="yes"/>
      <point x="1216" y="1342"/>
      <point x="1041" y="1510"/>
      <point x="781" y="1510" type="curve" smooth="yes"/>
      <point x="518" y="1510"/>
      <point x="304" y="1344"/>
      <point x="266" y="1113" type="curve" smooth="yes"/>
      <point x="240" y="955"/>
      <point x="310" y="819"/>
      <point x="447" y="782" type="curve"/>
      <point x="446" y="774" type="line"/>
      <point x="277" y="744"/>
      <point x="126" y="587"/>
      <point x="94" y="397" type="curve" smooth="yes"/>
      <point x="53" y="153"/>
      <point x="242" y="-20"/>
    </contour>
    <contour>
      <point x="555" y="145" type="curve" smooth="yes"/>
      <point x="350" y="145"/>
      <point x="255" y="252"/>
      <point x="283" y="409" type="curve" smooth="yes"/>
      <point x="313" y="577"/>
      <point x="479" y="689"/>
      <point x="661" y="689" type="curve" smooth="yes"/>
      <point x="846" y="689"/>
      <point x="955" y="571"/>
      <point x="929" y="408" type="curve" smooth="yes"/>
      <point x="903" y="245"/>
      <point x="749" y="145"/>
    </contour>
    <contour>
      <point x="672" y="848" type="curve" smooth="yes"/>
      <point x="512" y="848"/>
      <point x="422" y="948"/>
      <point x="448" y="1101" type="curve" smooth="yes"/>
      <point x="474" y="1254"/>
      <point x="610" y="1346"/>
      <point x="770" y="1346" type="curve" smooth="yes"/>
      <point x="929" y="1346"/>
      <point x="1017" y="1252"/>
      <point x="993" y="1102" type="curve" smooth="yes"/>
      <point x="969" y="952"/>
      <point x="832" y="848"/>
    </contour>
  </outline>
</glyph>
<glyph name="nine" format="2">
  <advance width="1268"/>
  <unicode hex="0039"/>
  <outline>
    <contour>
      <point x="524" y="-20" type="curve" smooth="yes"/>
      <point x="862" y="-20"/>
      <point x="1100" y="279"/>
      <point x="1187" y="803" type="curve" smooth="yes"/>
      <point x="1277" y="1346"/>
      <point x="1018" y="1506"/>
      <point x="768" y="1510" type="curve" smooth="yes"/>
      <point x="455" y="1515"/>
      <point x="241" y="1280"/>
      <point x="196" y="1012" type="curve" smooth="yes"/>
      <point x="148" y="726"/>
      <point x="330" y="517"/>
      <point x="591" y="517" type="curve" smooth="yes"/>
      <point x="743" y="517"/>
      <point x="880" y="591"/>
      <point x="983" y="716" type="curve"/>
      <point x="995" y="716" type="line"/>
      <point x="935" y="354"/>
      <point x="752" y="148"/>
      <point x="526" y="148" type="curve" smooth="yes"/>
      <point x="372" y="148"/>
      <point x="301" y="244"/>
      <point x="291" y="379" type="curve"/>
      <point x="103" y="379" type="line"/>
      <point x="98" y="141"/>
      <point x="271" y="-20"/>
    </contour>
    <contour>
      <point x="638" y="683" type="curve" smooth="yes"/>
      <point x="454" y="683"/>
      <point x="353" y="832"/>
      <point x="381" y="1009" type="curve" smooth="yes"/>
      <point x="411" y="1199"/>
      <point x="577" y="1343"/>
      <point x="753" y="1343" type="curve" smooth="yes"/>
      <point x="938" y="1343"/>
      <point x="1047" y="1184"/>
      <point x="1017" y="1012" type="curve" smooth="yes"/>
      <point x="986" y="834"/>
      <point x="814" y="683"/>
    </contour>
  </outline>
</glyph>
<glyph name="less" format="2">
  <advance width="1356"/>
  <unicode hex="003C"/>
  <outline>
    <contour>
      <point x="168" y="520" type="line"/>
      <point x="1033" y="44" type="line"/>
      <point x="1066" y="238" type="line"/>
      <point x="403" y="579" type="line"/>
      <point x="409" y="569" type="line"/>
      <point x="411" y="597" type="line"/>
      <point x="407" y="585" type="line"/>
      <point x="1180" y="926" type="line"/>
      <point x="1210" y="1122" type="line"/>
      <point x="190" y="646" type="line"/>
    </contour>
  </outline>
</glyph>
<glyph name="equal" format="2">
  <advance width="1356"/>
  <unicode hex="003D"/>
  <outline>
    <contour>
      <point x="255" y="717" type="line"/>
      <point x="1159" y="717" type="line"/>
      <point x="1186" y="883" type="line"/>
      <point x="282" y="883" type="line"/>
    </contour>
    <contour>
      <point x="182" y="283" type="line"/>
      <point x="1086" y="283" type="line"/>
      <point x="1113" y="449" type="line"/>
      <point x="209" y="449" type="line"/>
    </contour>
  </outline>
</glyph>
<glyph name="greater" format="2">
  <advance width="1356"/>
  <unicode hex="003E"/>
  <outline>
    <contour>
      <point x="1173" y="520" type="line"/>
      <point x="1195" y="646" type="line"/>
      <point x="330" y="1122" type="line"/>
      <point x="301" y="926" type="line"/>
      <point x="960" y="585" type="line"/>
      <point x="954" y="597" type="line"/>
      <point x="952" y="569" type="line"/>
      <point x="956" y="579" type="line"/>
      <point x="186" y="238" type="line"/>
      <point x="153" y="44" type="line"/>
    </contour>
  </outline>
</glyph>
<glyph name="question" format="2">
  <advance width="1047"/>
  <unicode hex="003F"/>
  <outline>
    <contour>
      <point x="364" y="449" type="line"/>
      <point x="545" y="449" type="line"/>
      <point x="547" y="460" type="line" smooth="yes"/>
      <point x="579" y="636"/>
      <point x="634" y="686"/>
      <point x="776" y="765" type="curve" smooth="yes"/>
      <point x="918" y="844"/>
      <point x="1010" y="956"/>
      <point x="1037" y="1117" type="curve" smooth="yes"/>
      <point x="1075" y="1345"/>
      <point x="918" y="1510"/>
      <point x="659" y="1510" type="curve" smooth="yes"/>
      <point x="423" y="1510"/>
      <point x="225" y="1366"/>
      <point x="174" y="1115" type="curve"/>
      <point x="364" y="1115" type="line"/>
      <point x="402" y="1281"/>
      <point x="531" y="1351"/>
      <point x="649" y="1351" type="curve" smooth="yes"/>
      <point x="784" y="1351"/>
      <point x="877" y="1263"/>
      <point x="854" y="1124" type="curve" smooth="yes"/>
      <point x="835" y="1008"/>
      <point x="753" y="927"/>
      <point x="657" y="874" type="curve" smooth="yes"/>
      <point x="505" y="791"/>
      <point x="415" y="732"/>
      <point x="366" y="460" type="curve" smooth="yes"/>
    </contour>
    <contour>
      <point x="381" y="-13" type="curve" smooth="yes"/>
      <point x="455" y="-13"/>
      <point x="525" y="47"/>
      <point x="537" y="121" type="curve" smooth="yes"/>
      <point x="549" y="196"/>
      <point x="499" y="256"/>
      <point x="425" y="256" type="curve" smooth="yes"/>
      <point x="350" y="256"/>
      <point x="280" y="196"/>
      <point x="268" y="121" type="curve" smooth="yes"/>
      <point x="256" y="47"/>
      <point x="306" y="-13"/>
    </contour>
  </outline>
</glyph>
<glyph name="at" format="2">
  <advance width="1975"/>
  <unicode hex="0040"/>
  <outline>
    <contour>
      <point x="901" y="-395" type="curve" smooth="yes"/>
      <point x="1054" y="-395"/>
      <point x="1234" y="-351"/>
      <point x="1330" y="-313" type="curve"/>
      <point x="1311" y="-173" type="line"/>
      <point x="1248" y="-193"/>
      <point x="1066" y="-249"/>
      <point x="908" y="-249" type="curve" smooth="yes"/>
      <point x="412" y="-249"/>
      <point x="201" y="28"/>
      <point x="281" y="517" type="curve" smooth="yes"/>
      <point x="361" y="1006"/>
      <point x="681" y="1295"/>
      <point x="1138" y="1295" type="curve" smooth="yes"/>
      <point x="1598" y="1295"/>
      <point x="1764" y="976"/>
      <point x="1709" y="643" type="curve" smooth="yes"/>
      <point x="1655" y="316"/>
      <point x="1592" y="171"/>
      <point x="1446" y="171" type="curve" smooth="yes"/>
      <point x="1358" y="171"/>
      <point x="1331" y="243"/>
      <point x="1344" y="321" type="curve" smooth="yes"/>
      <point x="1454" y="980" type="line"/>
      <point x="1295" y="980" type="line"/>
      <point x="1281" y="897" type="line"/>
      <point x="1271" y="897" type="line"/>
      <point x="1245" y="945"/>
      <point x="1161" y="1004"/>
      <point x="1030" y="1004" type="curve" smooth="yes"/>
      <point x="791" y="1004"/>
      <point x="590" y="804"/>
      <point x="546" y="533" type="curve" smooth="yes"/>
      <point x="500" y="250"/>
      <point x="610" y="37"/>
      <point x="875" y="37" type="curve" smooth="yes"/>
      <point x="1030" y="37"/>
      <point x="1135" y="115"/>
      <point x="1183" y="198" type="curve"/>
      <point x="1191" y="198" type="line"/>
      <point x="1189" y="95"/>
      <point x="1280" y="30"/>
      <point x="1430" y="30" type="curve" smooth="yes"/>
      <point x="1741" y="30"/>
      <point x="1822" y="361"/>
      <point x="1868" y="642" type="curve" smooth="yes"/>
      <point x="1934" y="1046"/>
      <point x="1700" y="1438"/>
      <point x="1151" y="1438" type="curve" smooth="yes"/>
      <point x="586" y="1438"/>
      <point x="209" y="1095"/>
      <point x="115" y="525" type="curve" smooth="yes"/>
      <point x="18" y="-63"/>
      <point x="306" y="-395"/>
    </contour>
    <contour>
      <point x="899" y="190" type="curve" smooth="yes"/>
      <point x="717" y="190"/>
      <point x="672" y="353"/>
      <point x="703" y="542" type="curve" smooth="yes"/>
      <point x="731" y="713"/>
      <point x="853" y="853"/>
      <point x="1015" y="853" type="curve" smooth="yes"/>
      <point x="1192" y="853"/>
      <point x="1268" y="779"/>
      <point x="1229" y="543" type="curve" smooth="yes"/>
      <point x="1190" y="307"/>
      <point x="1093" y="190"/>
    </contour>
  </outline>
</glyph>
<glyph name="A" format="2">
  <advance width="1413"/>
  <unicode hex="0041"/>
  <anchor x="613" y="0" name="bottom"/>
  <anchor x="1268" y="0" name="ogonek"/>
  <anchor x="671" y="1490" name="tonos"/>
  <anchor x="860" y="1490" name="top"/>
  <outline>
    <contour>
      <point x="-41" y="0" type="line"/>
      <point x="169" y="0" type="line"/>
      <point x="623" y="884" type="line" smooth="yes"/>
      <point x="679" y="993"/>
      <point x="759" y="1159"/>
      <point x="867" y="1401" type="curve"/>
      <point x="831" y="1401" type="line"/>
      <point x="862" y="1148"/>
      <point x="889" y="978"/>
      <point x="907" y="884" type="curve" smooth="yes"/>
      <point x="1076" y="0" type="line"/>
      <point x="1268" y="0" type="line"/>
      <point x="967" y="1490" type="line"/>
      <point x="747" y="1490" type="line"/>
    </contour>
    <contour>
      <point x="300" y="416" type="line"/>
      <point x="1065" y="416" type="line"/>
      <point x="1092" y="582" type="line"/>
      <point x="327" y="582" type="line"/>
    </contour>
  </outline>
</glyph>
<glyph name="B" format="2">
  <advance width="1340"/>
  <unicode hex="0042"/>
  <anchor x="558" y="0" name="bottom"/>
  <anchor x="320" y="422" name="cross"/>
  <anchor x="797" y="1490" name="top"/>
  <anchor x="334" y="1490" name="topl"/>
  <outline>
    <contour>
      <point x="87" y="0" type="line"/>
      <point x="639" y="0" type="line" smooth="yes"/>
      <point x="988" y="0"/>
      <point x="1160" y="164"/>
      <point x="1196" y="388" type="curve" smooth="yes"/>
      <point x="1234" y="624"/>
      <point x="1093" y="759"/>
      <point x="954" y="768" type="curve"/>
      <point x="954" y="778" type="line"/>
      <point x="1096" y="815"/>
      <point x="1225" y="904"/>
      <point x="1254" y="1087" type="curve" smooth="yes"/>
      <point x="1289" y="1308"/>
      <point x="1167" y="1490"/>
      <point x="856" y="1490" type="curve" smooth="yes"/>
      <point x="334" y="1490" type="line"/>
    </contour>
    <contour>
      <point x="305" y="167" type="line"/>
      <point x="390" y="676" type="line"/>
      <point x="755" y="676" type="line" smooth="yes"/>
      <point x="939" y="676"/>
      <point x="1040" y="561"/>
      <point x="1017" y="414" type="curve" smooth="yes"/>
      <point x="996" y="280"/>
      <point x="886" y="167"/>
      <point x="650" y="167" type="curve" smooth="yes"/>
    </contour>
    <contour>
      <point x="416" y="836" type="line"/>
      <point x="497" y="1323" type="line"/>
      <point x="836" y="1323" type="line" smooth="yes"/>
      <point x="1031" y="1323"/>
      <point x="1094" y="1225"/>
      <point x="1073" y="1101" type="curve" smooth="yes"/>
      <point x="1046" y="941"/>
      <point x="896" y="836"/>
      <point x="739" y="836" type="curve" smooth="yes"/>
    </contour>
  </outline>
</glyph>
<glyph name="C" format="2">
  <advance width="1495"/>
  <unicode hex="0043"/>
  <anchor x="687" y="-11" name="cedilla"/>
  <anchor x="811" y="745" name="center"/>
  <anchor x="937" y="1490" name="top"/>
  <anchor x="1460" y="1021" name="topr"/>
  <outline>
    <contour>
      <point x="698" y="-20" type="curve" smooth="yes"/>
      <point x="997" y="-20"/>
      <point x="1267" y="166"/>
      <point x="1370" y="469" type="curve"/>
      <point x="1179" y="469" type="line"/>
      <point x="1104" y="267"/>
      <point x="907" y="156"/>
      <point x="705" y="156" type="curve" smooth="yes"/>
      <point x="481" y="156"/>
      <point x="323" y="304"/>
      <point x="323" y="585" type="curve" smooth="yes"/>
      <point x="323" y="954"/>
      <point x="549" y="1334"/>
      <point x="922" y="1334" type="curve" smooth="yes"/>
      <point x="1113" y="1334"/>
      <point x="1262" y="1223"/>
      <point x="1270" y="1021" type="curve"/>
      <point x="1460" y="1021" type="line"/>
      <point x="1458" y="1329"/>
      <point x="1235" y="1510"/>
      <point x="929" y="1510" type="curve" smooth="yes"/>
      <point x="444" y="1510"/>
      <point x="139" y="1050"/>
      <point x="139" y="580" type="curve" smooth="yes"/>
      <point x="139" y="206"/>
      <point x="359" y="-20"/>
    </contour>
  </outline>
</glyph>
<glyph name="D" format="2">
  <advance width="1477"/>
  <unicode hex="0044"/>
  <anchor x="535" y="0" name="bottom"/>
  <anchor x="434" y="745" name="cross"/>
  <anchor x="773" y="1490" name="top"/>
  <anchor x="334" y="1490" name="topl"/>
  <outline>
    <contour>
      <point x="585" y="0" type="line" smooth="yes"/>
      <point x="1035" y="0"/>
      <point x="1309" y="277"/>
      <point x="1387" y="746" type="curve" smooth="yes"/>
      <point x="1464" y="1209"/>
      <point x="1230" y="1490"/>
      <point x="794" y="1490" type="curve" smooth="yes"/>
      <point x="431" y="1490" type="line"/>
      <point x="403" y="1322" type="line"/>
      <point x="777" y="1322" type="line" smooth="yes"/>
      <point x="1121" y="1322"/>
      <point x="1262" y="1107"/>
      <point x="1203" y="748" type="curve" smooth="yes"/>
      <point x="1144" y="389"/>
      <point x="933" y="168"/>
      <point x="567" y="168" type="curve" smooth="yes"/>
      <point x="219" y="168" type="line"/>
      <point x="192" y="0" type="line"/>
    </contour>
    <contour>
      <point x="524" y="1490" type="line"/>
      <point x="334" y="1490" type="line"/>
      <point x="87" y="0" type="line"/>
      <point x="277" y="0" type="line"/>
    </contour>
  </outline>
</glyph>
<glyph name="E" format="2">
  <advance width="1232"/>
  <unicode hex="0045"/>
  <anchor x="546" y="0" name="bottom"/>
  <anchor x="546" y="0" name="cedilla"/>
  <anchor x="1004" y="0" name="ogonek"/>
  <anchor x="334" y="1490" name="tonos"/>
  <anchor x="793" y="1490" name="top"/>
  <outline>
    <contour>
      <point x="87" y="0" type="line"/>
      <point x="1004" y="0" type="line"/>
      <point x="1031" y="167" type="line"/>
      <point x="304" y="167" type="line"/>
      <point x="387" y="669" type="line"/>
      <point x="1057" y="669" type="line"/>
      <point x="1085" y="836" type="line"/>
      <point x="416" y="836" type="line"/>
      <point x="496" y="1323" type="line"/>
      <point x="1214" y="1323" type="line"/>
      <point x="1242" y="1490" type="line"/>
      <point x="334" y="1490" type="line"/>
    </contour>
  </outline>
</glyph>
<glyph name="F" format="2">
  <advance width="1209"/>
  <unicode hex="0046"/>
  <anchor x="182" y="0" name="bottom"/>
  <anchor x="239" y="346" name="cross"/>
  <anchor x="87" y="0" name="lfthook"/>
  <anchor x="785" y="1490" name="top"/>
  <outline>
    <contour>
      <point x="87" y="0" type="line"/>
      <point x="277" y="0" type="line"/>
      <point x="384" y="644" type="line"/>
      <point x="1027" y="644" type="line"/>
      <point x="1054" y="811" type="line"/>
      <point x="411" y="811" type="line"/>
      <point x="496" y="1323" type="line"/>
      <point x="1207" y="1323" type="line"/>
      <point x="1235" y="1490" type="line"/>
      <point x="334" y="1490" type="line"/>
    </contour>
  </outline>
</glyph>
<glyph name="G" format="2">
  <advance width="1550"/>
  <unicode hex="0047"/>
  <anchor x="773.0" y="0" name="bottom"/>
  <anchor x="1221.56" y="392" name="cross"/>
  <anchor x="1045.2" y="1490" name="top"/>
  <anchor x="1573.14" y="1023" name="topr"/>
  <outline>
    <contour>
      <point x="768.4" y="-20" type="curve" smooth="yes"/>
      <point x="1127.4" y="-20"/>
      <point x="1285.02" y="239"/>
      <point x="1328.76" y="482" type="curve" smooth="yes"/>
      <point x="1353.78" y="621" type="line"/>
      <point x="1327.78" y="621" type="line"/>
      <point x="1276.12" y="334"/>
      <point x="1081.08" y="156"/>
      <point x="817.08" y="156" type="curve" smooth="yes"/>
      <point x="543.08" y="156"/>
      <point x="372.52" y="364"/>
      <point x="440.91999999999996" y="744" type="curve" smooth="yes"/>
      <point x="509.86" y="1127"/>
      <point x="756.12" y="1334"/>
      <point x="1018.12" y="1334" type="curve" smooth="yes"/>
      <point x="1229.12" y="1334"/>
      <point x="1350.52" y="1214"/>
      <point x="1377.1399999999999" y="1023" type="curve"/>
      <point x="1573.1399999999999" y="1023" type="line"/>
      <point x="1571.16" y="1312"/>
      <point x="1363.8" y="1510"/>
      <point x="1048.8" y="1510" type="curve" smooth="yes"/>
      <point x="666.8" y="1510"/>
      <point x="341.06" y="1217"/>
      <point x="255.92" y="744" type="curve" smooth="yes"/>
      <point x="171.14" y="273"/>
      <point x="390.4" y="-20"/>
    </contour>
    <contour>
      <point x="1251.0" y="0" type="line"/>
      <point x="1400.0" y="0" type="line"/>
      <point x="1534.82" y="749" type="line"/>
      <point x="961.8199999999999" y="749" type="line"/>
      <point x="931.94" y="583" type="line"/>
      <point x="1324.94" y="583" type="line"/>
      <point x="1287.14" y="373" type="line"/>
    </contour>
  </outline>
</glyph>
<glyph name="H" format="2">
  <advance width="1522"/>
  <unicode hex="0048"/>
  <anchor x="667" y="0" name="bottom"/>
  <anchor x="184" y="0" name="cedilla"/>
  <anchor x="1249" y="0" name="cyrtic"/>
  <anchor x="1059" y="0" name="lfthook"/>
  <anchor x="1249" y="0" name="right"/>
  <anchor x="334" y="1490" name="tonos"/>
  <anchor x="914" y="1490" name="top"/>
  <outline>
    <contour>
      <point x="87" y="0" type="line"/>
      <point x="277" y="0" type="line"/>
      <point x="389" y="678" type="line"/>
      <point x="1172" y="678" type="line"/>
      <point x="1059" y="0" type="line"/>
      <point x="1249" y="0" type="line"/>
      <point x="1496" y="1490" type="line"/>
      <point x="1306" y="1490" type="line"/>
      <point x="1199" y="846" type="line"/>
      <point x="417" y="846" type="line"/>
      <point x="524" y="1490" type="line"/>
      <point x="334" y="1490" type="line"/>
    </contour>
  </outline>
</glyph>
<glyph name="I" format="2">
  <advance width="550"/>
  <unicode hex="0049"/>
  <anchor x="182" y="0" name="bottom"/>
  <anchor x="309" y="769" name="cross"/>
  <anchor x="277" y="0" name="ogonek"/>
  <anchor x="293" y="0" name="right"/>
  <anchor x="334" y="1490" name="tonos"/>
  <anchor x="429" y="1490" name="top"/>
  <outline>
    <contour>
      <point x="524" y="1490" type="line"/>
      <point x="334" y="1490" type="line"/>
      <point x="87" y="0" type="line"/>
      <point x="277" y="0" type="line"/>
    </contour>
  </outline>
</glyph>
<glyph name="J" format="2">
  <advance width="1169"/>
  <unicode hex="004A"/>
  <anchor x="948" y="884" name="cross"/>
  <anchor x="1049" y="1490" name="top"/>
  <outline>
    <contour>
      <point x="458" y="-20" type="curve" smooth="yes"/>
      <point x="723" y="-20"/>
      <point x="920" y="143"/>
      <point x="967" y="426" type="curve" smooth="yes"/>
      <point x="1144" y="1490" type="line"/>
      <point x="954" y="1490" type="line"/>
      <point x="777" y="426" type="line" smooth="yes"/>
      <point x="746" y="240"/>
      <point x="626" y="147"/>
      <point x="477" y="147" type="curve" smooth="yes"/>
      <point x="344" y="147"/>
      <point x="262" y="221"/>
      <point x="262" y="357" type="curve" smooth="yes"/>
      <point x="262" y="379"/>
      <point x="264" y="402"/>
      <point x="281" y="506" type="curve"/>
      <point x="91" y="506" type="line"/>
      <point x="73" y="393"/>
      <point x="70" y="362"/>
      <point x="70" y="332" type="curve" smooth="yes"/>
      <point x="70" y="106"/>
      <point x="225" y="-20"/>
    </contour>
  </outline>
</glyph>
<glyph name="K" format="2">
  <advance width="1376"/>
  <unicode hex="004B"/>
  <anchor x="611" y="0" name="bottom"/>
  <anchor x="858" y="1490" name="top"/>
  <outline>
    <contour>
      <point x="288" y="426" type="line"/>
      <point x="712" y="809" type="line"/>
      <point x="723" y="808" type="line"/>
      <point x="1472" y="1490" type="line"/>
      <point x="1214" y="1490" type="line"/>
      <point x="689" y="1009" type="line" smooth="yes"/>
      <point x="558" y="889"/>
      <point x="437" y="769"/>
      <point x="312" y="629" type="curve"/>
    </contour>
    <contour>
      <point x="87" y="0" type="line"/>
      <point x="278" y="0" type="line"/>
      <point x="371" y="566" type="line"/>
      <point x="383" y="659" type="line"/>
      <point x="440" y="980" type="line"/>
      <point x="525" y="1490" type="line"/>
      <point x="334" y="1490" type="line"/>
    </contour>
    <contour>
      <point x="1017" y="0" type="line"/>
      <point x="1226" y="0" type="line"/>
      <point x="730" y="906" type="line"/>
      <point x="605" y="758" type="line"/>
    </contour>
  </outline>
</glyph>
<glyph name="L" format="2">
  <advance width="1158"/>
  <unicode hex="004C"/>
  <anchor x="526" y="0" name="bottom"/>
  <anchor x="429" y="745" name="cross"/>
  <anchor x="649" y="797" name="dot"/>
  <anchor x="776" y="1490" name="raccent"/>
  <anchor x="429" y="1490" name="top"/>
  <outline>
    <contour>
      <point x="87" y="0" type="line"/>
      <point x="967" y="0" type="line"/>
      <point x="995" y="168" type="line"/>
      <point x="305" y="168" type="line"/>
      <point x="524" y="1490" type="line"/>
      <point x="334" y="1490" type="line"/>
    </contour>
  </outline>
</glyph>
<glyph name="M" format="2">
  <advance width="1850"/>
  <unicode hex="004D"/>
  <anchor x="828" y="0" name="bottom"/>
  <anchor x="1573" y="0" name="cyrtic"/>
  <anchor x="1075" y="1490" name="top"/>
  <outline>
    <contour>
      <point x="87" y="0" type="line"/>
      <point x="268" y="0" type="line"/>
      <point x="408" y="851" type="line" smooth="yes"/>
      <point x="429" y="979"/>
      <point x="459" y="1182"/>
      <point x="481" y="1342" type="curve"/>
      <point x="462" y="1342" type="line"/>
      <point x="497" y="1145"/>
      <point x="531" y="942"/>
      <point x="552" y="851" type="curve" smooth="yes"/>
      <point x="749" y="0" type="line"/>
      <point x="914" y="0" type="line"/>
      <point x="1388" y="851" type="line" smooth="yes"/>
      <point x="1441" y="946"/>
      <point x="1547" y="1155"/>
      <point x="1636" y="1342" type="curve"/>
      <point x="1620" y="1342" type="line"/>
      <point x="1592" y="1193"/>
      <point x="1552" y="985"/>
      <point x="1530" y="851" type="curve" smooth="yes"/>
      <point x="1390" y="0" type="line"/>
      <point x="1577" y="0" type="line"/>
      <point x="1824" y="1490" type="line"/>
      <point x="1553" y="1490" type="line"/>
      <point x="1034" y="550" type="line" smooth="yes"/>
      <point x="986" y="463"/>
      <point x="896" y="271"/>
      <point x="835" y="138" type="curve"/>
      <point x="877" y="138" type="line"/>
      <point x="864" y="262"/>
      <point x="835" y="460"/>
      <point x="815" y="550" type="curve" smooth="yes"/>
      <point x="604" y="1490" type="line"/>
      <point x="334" y="1490" type="line"/>
    </contour>
  </outline>
</glyph>
<glyph name="N" format="2">
  <advance width="1543"/>
  <unicode hex="004E"/>
  <anchor x="679" y="0" name="bottom"/>
  <anchor x="87" y="0" name="lfthook"/>
  <anchor x="1270" y="0" name="lfthook2"/>
  <anchor x="926" y="1490" name="top"/>
  <outline>
    <contour>
      <point x="87" y="0" type="line"/>
      <point x="278" y="0" type="line"/>
      <point x="418" y="850" type="line" smooth="yes"/>
      <point x="431" y="929"/>
      <point x="449" y="1087"/>
      <point x="480" y="1329" type="curve"/>
      <point x="452" y="1329" type="line"/>
      <point x="555" y="1068"/>
      <point x="600" y="956"/>
      <point x="651" y="848" type="curve" smooth="yes"/>
      <point x="1051" y="0" type="line"/>
      <point x="1270" y="0" type="line"/>
      <point x="1517" y="1490" type="line"/>
      <point x="1327" y="1490" type="line"/>
      <point x="1176" y="576" type="line" smooth="yes"/>
      <point x="1160" y="479"/>
      <point x="1135" y="326"/>
      <point x="1125" y="155" type="curve"/>
      <point x="1146" y="155" type="line"/>
      <point x="1094" y="330"/>
      <point x="1028" y="477"/>
      <point x="1000" y="537" type="curve" smooth="yes"/>
      <point x="552" y="1490" type="line"/>
      <point x="334" y="1490" type="line"/>
    </contour>
  </outline>
</glyph>
<glyph name="O" format="2">
  <advance width="1566"/>
  <unicode hex="004F"/>
  <anchor x="691" y="0" name="bottom"/>
  <anchor x="815" y="745" name="center"/>
  <anchor x="1488" y="911" name="ogonek"/>
  <anchor x="408" y="1490" name="tonos"/>
  <anchor x="938" y="1490" name="top"/>
  <anchor x="941" y="1510" name="tophorn"/>
  <outline>
    <contour>
      <point x="699" y="-20" type="curve" smooth="yes"/>
      <point x="1182" y="-20"/>
      <point x="1488" y="437"/>
      <point x="1488" y="911" type="curve" smooth="yes"/>
      <point x="1488" y="1284"/>
      <point x="1267" y="1510"/>
      <point x="930" y="1510" type="curve" smooth="yes"/>
      <point x="446" y="1510"/>
      <point x="139" y="1052"/>
      <point x="139" y="580" type="curve" smooth="yes"/>
      <point x="139" y="206"/>
      <point x="361" y="-20"/>
    </contour>
    <contour>
      <point x="706" y="156" type="curve" smooth="yes"/>
      <point x="481" y="156"/>
      <point x="323" y="305"/>
      <point x="323" y="585" type="curve" smooth="yes"/>
      <point x="323" y="955"/>
      <point x="550" y="1334"/>
      <point x="923" y="1334" type="curve" smooth="yes"/>
      <point x="1147" y="1334"/>
      <point x="1304" y="1186"/>
      <point x="1304" y="906" type="curve" smooth="yes"/>
      <point x="1304" y="535"/>
      <point x="1080" y="156"/>
    </contour>
  </outline>
</glyph>
<glyph name="P" format="2">
  <advance width="1308"/>
  <unicode hex="0050"/>
  <anchor x="301" y="1490" name="tonos"/>
  <anchor x="806" y="1490" name="top"/>
  <anchor x="334" y="1490" name="topl"/>
  <outline>
    <contour>
      <point x="87" y="0" type="line"/>
      <point x="277" y="0" type="line"/>
      <point x="496" y="1323" type="line"/>
      <point x="806" y="1323" type="line" smooth="yes"/>
      <point x="1046" y="1323"/>
      <point x="1113" y="1190"/>
      <point x="1085" y="1017" type="curve" smooth="yes"/>
      <point x="1057" y="844"/>
      <point x="947" y="706"/>
      <point x="706" y="706" type="curve" smooth="yes"/>
      <point x="355" y="706" type="line"/>
      <point x="327" y="539" type="line"/>
      <point x="688" y="539" type="line" smooth="yes"/>
      <point x="1036" y="539"/>
      <point x="1231" y="752"/>
      <point x="1274" y="1018" type="curve" smooth="yes"/>
      <point x="1317" y="1284"/>
      <point x="1190" y="1490"/>
      <point x="844" y="1490" type="curve" smooth="yes"/>
      <point x="334" y="1490" type="line"/>
    </contour>
  </outline>
</glyph>
<glyph name="Q" format="2">
  <advance width="1566"/>
  <unicode hex="0051"/>
  <anchor x="691" y="0" name="bottom"/>
  <anchor x="815" y="745" name="center"/>
  <anchor x="1488" y="911" name="ogonek"/>
  <anchor x="408" y="1490" name="tonos"/>
  <anchor x="938" y="1490" name="top"/>
  <anchor x="941" y="1510" name="tophorn"/>
  <outline>
    <contour>
      <point x="740" y="466" type="line"/>
      <point x="937" y="134" type="line"/>
      <point x="970" y="78" type="line"/>
      <point x="1096" y="-140" type="line"/>
      <point x="1278" y="-140" type="line"/>
      <point x="1084" y="190" type="line"/>
      <point x="1052" y="248" type="line"/>
      <point x="922" y="466" type="line"/>
    </contour>
    <component base="O"/>
  </outline>
</glyph>
<glyph name="R" format="2">
  <advance width="1318"/>
  <unicode hex="0052"/>
  <anchor x="584" y="0" name="bottom"/>
  <anchor x="805" y="1490" name="top"/>
  <outline>
    <contour>
      <point x="87" y="0" type="line"/>
      <point x="277" y="0" type="line"/>
      <point x="496" y="1323" type="line"/>
      <point x="806" y="1323" type="line" smooth="yes"/>
      <point x="1035" y="1323"/>
      <point x="1118" y="1215"/>
      <point x="1087" y="1030" type="curve" smooth="yes"/>
      <point x="1058" y="857"/>
      <point x="950" y="747"/>
      <point x="712" y="747" type="curve" smooth="yes"/>
      <point x="317" y="747" type="line"/>
      <point x="289" y="578" type="line"/>
      <point x="694" y="578" type="line" smooth="yes"/>
      <point x="1042" y="578"/>
      <point x="1232" y="766"/>
      <point x="1276" y="1030" type="curve" smooth="yes"/>
      <point x="1320" y="1294"/>
      <point x="1195" y="1490"/>
      <point x="844" y="1490" type="curve" smooth="yes"/>
      <point x="334" y="1490" type="line"/>
    </contour>
    <contour>
      <point x="943" y="0" type="line"/>
      <point x="1163" y="0" type="line"/>
      <point x="908" y="671" type="line"/>
      <point x="694" y="671" type="line"/>
    </contour>
  </outline>
</glyph>
<glyph name="S" format="2">
  <advance width="1312"/>
  <unicode hex="0053"/>
  <anchor x="563" y="0" name="bottom"/>
  <anchor x="564" y="0" name="cedilla"/>
  <anchor x="809" y="1490" name="top"/>
  <outline>
    <contour>
      <point x="575" y="-26" type="curve" smooth="yes"/>
      <point x="920" y="-26"/>
      <point x="1131" y="162"/>
      <point x="1171" y="406" type="curve" smooth="yes"/>
      <point x="1217" y="686"/>
      <point x="966" y="775"/>
      <point x="817" y="818" type="curve" smooth="yes"/>
      <point x="675" y="859" type="line" smooth="yes"/>
      <point x="568" y="890"/>
      <point x="404" y="946"/>
      <point x="431" y="1102" type="curve" smooth="yes"/>
      <point x="455" y="1240"/>
      <point x="598" y="1342"/>
      <point x="792" y="1342" type="curve" smooth="yes"/>
      <point x="970" y="1342"/>
      <point x="1090" y="1258"/>
      <point x="1083" y="1114" type="curve"/>
      <point x="1268" y="1114" type="line"/>
      <point x="1297" y="1342"/>
      <point x="1099" y="1510"/>
      <point x="810" y="1510" type="curve" smooth="yes"/>
      <point x="520" y="1510"/>
      <point x="284" y="1341"/>
      <point x="244" y="1089" type="curve" smooth="yes"/>
      <point x="211" y="881"/>
      <point x="347" y="765"/>
      <point x="560" y="702" type="curve" smooth="yes"/>
      <point x="732" y="651" type="line" smooth="yes"/>
      <point x="887" y="605"/>
      <point x="1011" y="552"/>
      <point x="987" y="409" type="curve" smooth="yes"/>
      <point x="960" y="249"/>
      <point x="789" y="144"/>
      <point x="587" y="144" type="curve" smooth="yes"/>
      <point x="411" y="144"/>
      <point x="269" y="222"/>
      <point x="282" y="390" type="curve"/>
      <point x="87" y="390" type="line"/>
      <point x="62" y="139"/>
      <point x="254" y="-26"/>
    </contour>
  </outline>
</glyph>
<glyph name="T" format="2">
  <advance width="1324"/>
  <unicode hex="0054"/>
  <anchor x="571" y="0" name="bottom"/>
  <anchor x="666" y="0" name="bottomr"/>
  <anchor x="572" y="0" name="cedilla"/>
  <anchor x="697" y="763" name="cross"/>
  <anchor x="666" y="0" name="cyrtic"/>
  <anchor x="616" y="0" name="right"/>
  <anchor x="818" y="1490" name="top"/>
  <outline>
    <contour>
      <point x="226" y="1323" type="line"/>
      <point x="695" y="1323" type="line"/>
      <point x="476" y="0" type="line"/>
      <point x="666" y="0" type="line"/>
      <point x="885" y="1323" type="line"/>
      <point x="1352" y="1323" type="line"/>
      <point x="1380" y="1490" type="line"/>
      <point x="254" y="1490" type="line"/>
    </contour>
  </outline>
</glyph>
<glyph name="U" format="2">
  <advance width="1523"/>
  <unicode hex="0055"/>
  <anchor x="669" y="0" name="bottom"/>
  <anchor x="1334" y="501" name="ogonek"/>
  <anchor x="755" y="0" name="right"/>
  <anchor x="1307" y="1490" name="rtophorn"/>
  <anchor x="916" y="1490" name="top"/>
  <outline>
    <contour>
      <point x="677" y="-24" type="curve" smooth="yes"/>
      <point x="1022" y="-24"/>
      <point x="1283" y="192"/>
      <point x="1334" y="501" type="curve" smooth="yes"/>
      <point x="1497" y="1490" type="line"/>
      <point x="1307" y="1490" type="line"/>
      <point x="1148" y="529" type="line" smooth="yes"/>
      <point x="1112" y="311"/>
      <point x="930" y="152"/>
      <point x="684" y="152" type="curve" smooth="yes"/>
      <point x="449" y="152"/>
      <point x="327" y="298"/>
      <point x="363" y="516" type="curve" smooth="yes"/>
      <point x="524" y="1490" type="line"/>
      <point x="334" y="1490" type="line"/>
      <point x="172" y="514" type="line" smooth="yes"/>
      <point x="121" y="207"/>
      <point x="318" y="-24"/>
    </contour>
  </outline>
</glyph>
<glyph name="V" format="2">
  <advance width="1413"/>
  <unicode hex="0056"/>
  <anchor x="613" y="0" name="bottom"/>
  <anchor x="860" y="1490" name="top"/>
  <outline>
    <contour>
      <point x="507" y="0" type="line"/>
      <point x="726" y="0" type="line"/>
      <point x="1515" y="1490" type="line"/>
      <point x="1313" y="1490" type="line"/>
      <point x="859" y="606" type="line" smooth="yes"/>
      <point x="803" y="497"/>
      <point x="723" y="333"/>
      <point x="615" y="90" type="curve"/>
      <point x="651" y="90" type="line"/>
      <point x="620" y="337"/>
      <point x="598" y="486"/>
      <point x="575" y="606" type="curve" smooth="yes"/>
      <point x="406" y="1490" type="line"/>
      <point x="206" y="1490" type="line"/>
    </contour>
  </outline>
</glyph>
<glyph name="W" format="2">
  <advance width="2018"/>
  <unicode hex="0057"/>
  <anchor x="916" y="0" name="bottom"/>
  <anchor x="1163" y="1490" name="top"/>
  <outline>
    <contour>
      <point x="365" y="0" type="line"/>
      <point x="587" y="0" type="line"/>
      <point x="999" y="944" type="line" smooth="yes"/>
      <point x="1058" y="1079"/>
      <point x="1107" y="1212"/>
      <point x="1166" y="1395" type="curve"/>
      <point x="1127" y="1395" type="line"/>
      <point x="1125" y="1202"/>
      <point x="1132" y="1068"/>
      <point x="1145" y="944" type="curve" smooth="yes"/>
      <point x="1244" y="0" type="line"/>
      <point x="1465" y="0" type="line"/>
      <point x="2120" y="1490" type="line"/>
      <point x="1924" y="1490" type="line"/>
      <point x="1538" y="576" type="line"/>
      <point x="1476" y="429"/>
      <point x="1416" y="278"/>
      <point x="1360" y="115" type="curve"/>
      <point x="1387" y="115" type="line"/>
      <point x="1383" y="278"/>
      <point x="1373" y="429"/>
      <point x="1359" y="576" type="curve"/>
      <point x="1271" y="1490" type="line"/>
      <point x="1055" y="1490" type="line"/>
      <point x="662" y="576" type="line"/>
      <point x="599" y="429"/>
      <point x="540" y="278"/>
      <point x="484" y="115" type="curve"/>
      <point x="508" y="115" type="line"/>
      <point x="505" y="278"/>
      <point x="497" y="429"/>
      <point x="484" y="576" type="curve"/>
      <point x="400" y="1490" type="line"/>
      <point x="206" y="1490" type="line"/>
    </contour>
  </outline>
</glyph>
<glyph name="X" format="2">
  <advance width="1397"/>
  <unicode hex="0058"/>
  <anchor x="605" y="0" name="bottom"/>
  <anchor x="732" y="764" name="cross"/>
  <anchor x="1175" y="0" name="cyrtic"/>
  <anchor x="852" y="1490" name="top"/>
  <outline>
    <contour>
      <point x="-36" y="0" type="line"/>
      <point x="188" y="0" type="line"/>
      <point x="514" y="378" type="line" smooth="yes"/>
      <point x="620" y="501"/>
      <point x="667" y="558"/>
      <point x="747" y="680" type="curve"/>
      <point x="707" y="680" type="line"/>
      <point x="748" y="555"/>
      <point x="773" y="502"/>
      <point x="838" y="378" type="curve" smooth="yes"/>
      <point x="1036" y="0" type="line"/>
      <point x="1247" y="0" type="line"/>
      <point x="808" y="840" type="line"/>
      <point x="785" y="700" type="line"/>
      <point x="1466" y="1490" type="line"/>
      <point x="1242" y="1490" type="line"/>
      <point x="970" y="1174" type="line" smooth="yes"/>
      <point x="852" y="1037"/>
      <point x="808" y="980"/>
      <point x="722" y="852" type="curve"/>
      <point x="755" y="852" type="line"/>
      <point x="713" y="981"/>
      <point x="688" y="1036"/>
      <point x="617" y="1174" type="curve" smooth="yes"/>
      <point x="455" y="1490" type="line"/>
      <point x="244" y="1490" type="line"/>
      <point x="661" y="692" type="line"/>
      <point x="684" y="833" type="line"/>
    </contour>
  </outline>
</glyph>
<glyph name="Y" format="2">
  <advance width="1390"/>
  <unicode hex="0059"/>
  <anchor x="602" y="0" name="bottom"/>
  <anchor x="666" y="388" name="cross"/>
  <anchor x="697" y="0" name="ogonek"/>
  <anchor x="206" y="1490" name="tonos"/>
  <anchor x="849" y="1490" name="top"/>
  <outline>
    <contour>
      <point x="507" y="0" type="line"/>
      <point x="697" y="0" type="line"/>
      <point x="798" y="610" type="line"/>
      <point x="1492" y="1490" type="line"/>
      <point x="1259" y="1490" type="line"/>
      <point x="885" y="1009" type="line" smooth="yes"/>
      <point x="805" y="906"/>
      <point x="743" y="821"/>
      <point x="663" y="669" type="curve"/>
      <point x="739" y="669" type="line"/>
      <point x="708" y="818"/>
      <point x="675" y="901"/>
      <point x="627" y="1009" type="curve" smooth="yes"/>
      <point x="412" y="1490" type="line"/>
      <point x="206" y="1490" type="line"/>
      <point x="608" y="610" type="line"/>
    </contour>
  </outline>
</glyph>
<glyph name="Z" format="2">
  <advance width="1290"/>
  <unicode hex="005A"/>
  <anchor x="547" y="0" name="bottom"/>
  <anchor x="1074" y="0" name="bottomr"/>
  <anchor x="675" y="745" name="cross"/>
  <anchor x="800" y="1490" name="top"/>
  <outline>
    <contour>
      <point x="38" y="0" type="line"/>
      <point x="1074" y="0" type="line"/>
      <point x="1102" y="167" type="line"/>
      <point x="295" y="167" type="line"/>
      <point x="1291" y="1354" type="line"/>
      <point x="1314" y="1490" type="line"/>
      <point x="277" y="1490" type="line"/>
      <point x="249" y="1323" type="line"/>
      <point x="1056" y="1323" type="line"/>
      <point x="61" y="134" type="line"/>
    </contour>
  </outline>
</glyph>
<glyph name="bracketleft" format="2">
  <advance width="747"/>
  <unicode hex="005B"/>
  <anchor x="327" y="651" name="cross"/>
  <outline>
    <contour>
      <point x="87" y="-279" type="line"/>
      <point x="485" y="-279" type="line"/>
      <point x="510" y="-126" type="line"/>
      <point x="284" y="-126" type="line"/>
      <point x="542" y="1428" type="line"/>
      <point x="768" y="1428" type="line"/>
      <point x="793" y="1581" type="line"/>
      <point x="395" y="1581" type="line"/>
    </contour>
  </outline>
</glyph>
<glyph name="backslash" format="2">
  <advance width="736"/>
  <unicode hex="005C"/>
  <outline>
    <contour>
      <point x="398" y="-224" type="line"/>
      <point x="558" y="-224" type="line"/>
      <point x="374" y="1560" type="line"/>
      <point x="212" y="1560" type="line"/>
    </contour>
  </outline>
</glyph>
<glyph name="bracketright" format="2">
  <advance width="748"/>
  <unicode hex="005D"/>
  <anchor x="451" y="651" name="cross"/>
  <outline>
    <contour>
      <point x="-15" y="-279" type="line"/>
      <point x="383" y="-279" type="line"/>
      <point x="691" y="1581" type="line"/>
      <point x="293" y="1581" type="line"/>
      <point x="268" y="1428" type="line"/>
      <point x="494" y="1428" type="line"/>
      <point x="236" y="-126" type="line"/>
      <point x="10" y="-126" type="line"/>
    </contour>
  </outline>
</glyph>
<glyph name="asciicircum" format="2">
  <advance width="965"/>
  <unicode hex="005E"/>
  <outline>
    <contour>
      <point x="596" y="1360" type="line"/>
      <point x="584" y="1285" type="line"/>
      <point x="636" y="1285" type="line"/>
      <point x="648" y="1360" type="line"/>
    </contour>
    <contour>
      <point x="126" y="814" type="line"/>
      <point x="311" y="814" type="line"/>
      <point x="622" y="1315" type="line"/>
      <point x="604" y="1315" type="line"/>
      <point x="757" y="814" type="line"/>
      <point x="927" y="814" type="line"/>
      <point x="729" y="1443" type="line"/>
      <point x="527" y="1443" type="line"/>
    </contour>
  </outline>
</glyph>
<glyph name="underscore" format="2">
  <advance width="934"/>
  <unicode hex="005F"/>
  <anchor x="400" y="158" name="_bottom"/>
  <outline>
    <contour>
      <point x="841" y="0" type="line"/>
      <point x="-93" y="0" type="line"/>
      <point x="-120" y="-166" type="line"/>
      <point x="814" y="-166" type="line"/>
    </contour>
  </outline>
</glyph>
<glyph name="b" format="2">
  <advance width="1255"/>
  <unicode hex="0062"/>
  <anchor x="577" y="0" name="bottom"/>
  <anchor x="456" y="1304" name="cross"/>
  <anchor x="794" y="1304" name="top"/>
  <anchor x="312" y="1490" name="topbar"/>
  <outline>
    <contour>
      <point x="592" y="-24" type="curve" smooth="yes"/>
      <point x="949" y="-24"/>
      <point x="1160" y="337"/>
      <point x="1160" y="685" type="curve" smooth="yes"/>
      <point x="1160" y="962"/>
      <point x="1005" y="1132"/>
      <point x="759" y="1132" type="curve" smooth="yes"/>
      <point x="549" y="1132"/>
      <point x="466" y="1002"/>
      <point x="415" y="939" type="curve"/>
      <point x="400" y="939" type="line"/>
      <point x="492" y="1490" type="line"/>
      <point x="312" y="1490" type="line"/>
      <point x="65" y="0" type="line"/>
      <point x="239" y="0" type="line"/>
      <point x="269" y="173" type="line"/>
      <point x="287" y="173" type="line"/>
      <point x="316" y="106"/>
      <point x="376" y="-24"/>
    </contour>
    <contour>
      <point x="568" y="137" type="curve" smooth="yes"/>
      <point x="405" y="137"/>
      <point x="324" y="252"/>
      <point x="324" y="429" type="curve" smooth="yes"/>
      <point x="324" y="687"/>
      <point x="460" y="971"/>
      <point x="729" y="971" type="curve" smooth="yes"/>
      <point x="901" y="971"/>
      <point x="979" y="850"/>
      <point x="979" y="680" type="curve" smooth="yes"/>
      <point x="979" y="433"/>
      <point x="835" y="137"/>
    </contour>
  </outline>
</glyph>
<glyph name="c" format="2">
  <advance width="1171"/>
  <unicode hex="0063"/>
  <anchor x="520" y="0" name="bottom"/>
  <anchor x="520" y="0" name="cedilla"/>
  <anchor x="613" y="559" name="center"/>
  <anchor x="706" y="1118" name="top"/>
  <anchor x="1107" y="818" name="topr"/>
  <outline>
    <contour>
      <point x="528" y="-24" type="curve" smooth="yes"/>
      <point x="745" y="-24"/>
      <point x="935" y="93"/>
      <point x="1027" y="290" type="curve"/>
      <point x="861" y="348" type="line"/>
      <point x="809" y="227"/>
      <point x="687" y="137"/>
      <point x="532" y="137" type="curve" smooth="yes"/>
      <point x="350" y="137"/>
      <point x="274" y="268"/>
      <point x="274" y="435" type="curve" smooth="yes"/>
      <point x="274" y="683"/>
      <point x="421" y="971"/>
      <point x="693" y="971" type="curve" smooth="yes"/>
      <point x="836" y="971"/>
      <point x="917" y="893"/>
      <point x="931" y="779" type="curve"/>
      <point x="1107" y="818" type="line"/>
      <point x="1078" y="1012"/>
      <point x="919" y="1132"/>
      <point x="697" y="1132" type="curve" smooth="yes"/>
      <point x="322" y="1132"/>
      <point x="94" y="787"/>
      <point x="94" y="433" type="curve" smooth="yes"/>
      <point x="94" y="156"/>
      <point x="258" y="-24"/>
    </contour>
  </outline>
</glyph>
<glyph name="d" format="2">
  <advance width="1255"/>
  <unicode hex="0064"/>
  <anchor x="494" y="0" name="bottom"/>
  <anchor x="1004" y="0" name="bottomr"/>
  <anchor x="1045" y="1304" name="cross"/>
  <anchor x="1394" y="1490" name="raccent"/>
  <anchor x="705" y="1304" name="top"/>
  <anchor x="1251" y="1490" name="topbar"/>
  <outline>
    <contour>
      <point x="492" y="-24" type="curve" smooth="yes"/>
      <point x="700" y="-24"/>
      <point x="792" y="103"/>
      <point x="840" y="173" type="curve"/>
      <point x="859" y="173" type="line"/>
      <point x="829" y="0" type="line"/>
      <point x="1004" y="0" type="line"/>
      <point x="1251" y="1490" type="line"/>
      <point x="1070" y="1490" type="line"/>
      <point x="978" y="934" type="line"/>
      <point x="966" y="934" type="line"/>
      <point x="937" y="996"/>
      <point x="885" y="1132"/>
      <point x="663" y="1132" type="curve" smooth="yes"/>
      <point x="306" y="1132"/>
      <point x="94" y="777"/>
      <point x="94" y="425" type="curve" smooth="yes"/>
      <point x="94" y="147"/>
      <point x="248" y="-24"/>
    </contour>
    <contour>
      <point x="524" y="137" type="curve" smooth="yes"/>
      <point x="355" y="137"/>
      <point x="276" y="261"/>
      <point x="276" y="435" type="curve" smooth="yes"/>
      <point x="276" y="688"/>
      <point x="418" y="971"/>
      <point x="684" y="971" type="curve" smooth="yes"/>
      <point x="851" y="971"/>
      <point x="931" y="861"/>
      <point x="931" y="686" type="curve" smooth="yes"/>
      <point x="931" y="432"/>
      <point x="792" y="137"/>
    </contour>
  </outline>
</glyph>
<glyph name="e" format="2">
  <advance width="1179"/>
  <unicode hex="0065"/>
  <anchor x="521" y="0" name="bottom"/>
  <anchor x="516" y="0" name="cedilla"/>
  <anchor x="1030" y="261" name="ogonek"/>
  <anchor x="705" y="1118" name="top"/>
  <outline>
    <contour>
      <point x="535" y="-24" type="curve" smooth="yes"/>
      <point x="756" y="-24"/>
      <point x="947" y="85"/>
      <point x="1030" y="261" type="curve"/>
      <point x="863" y="308" type="line"/>
      <point x="806" y="201"/>
      <point x="688" y="135"/>
      <point x="546" y="135" type="curve" smooth="yes"/>
      <point x="341" y="135"/>
      <point x="267" y="264"/>
      <point x="267" y="428" type="curve" smooth="yes"/>
      <point x="267" y="649"/>
      <point x="385" y="982"/>
      <point x="686" y="982" type="curve" smooth="yes"/>
      <point x="802" y="982"/>
      <point x="880" y="926"/>
      <point x="880" y="841" type="curve" smooth="yes"/>
      <point x="880" y="674"/>
      <point x="731" y="623"/>
      <point x="243" y="623" type="curve"/>
      <point x="219" y="487" type="line"/>
      <point x="809" y="487"/>
      <point x="1060" y="586"/>
      <point x="1060" y="837" type="curve" smooth="yes"/>
      <point x="1060" y="1023"/>
      <point x="920" y="1142"/>
      <point x="704" y="1142" type="curve" smooth="yes"/>
      <point x="366" y="1142"/>
      <point x="94" y="819"/>
      <point x="94" y="427" type="curve" smooth="yes"/>
      <point x="94" y="144"/>
      <point x="259" y="-24"/>
    </contour>
  </outline>
</glyph>
<glyph name="f" format="2">
  <advance width="764"/>
  <unicode hex="0066"/>
  <anchor x="374" y="768" name="cross"/>
  <anchor x="638" y="1549" name="top"/>
  <anchor x="243" y="0" name="bottom"/>
  <outline>
    <contour>
      <point x="780" y="1118" type="line"/>
      <point x="113" y="1118" type="line"/>
      <point x="89" y="972" type="line"/>
      <point x="756" y="972" type="line"/>
    </contour>
    <component base="_part.f_base" xOffset="17"/>
  </outline>
</glyph>
<glyph name="g" format="2">
  <advance width="1256"/>
  <unicode hex="0067"/>
  <anchor x="458" y="-441" name="bottom"/>
  <anchor x="1013" y="564" name="cross"/>
  <anchor x="698" y="1118" name="top"/>
  <anchor x="1191" y="1118" name="topr"/>
  <outline>
    <contour>
      <point x="456" y="-442" type="curve" smooth="yes"/>
      <point x="724" y="-442"/>
      <point x="951" y="-323"/>
      <point x="999" y="-35" type="curve" smooth="yes"/>
      <point x="1191" y="1118" type="line"/>
      <point x="1016" y="1118" type="line"/>
      <point x="986" y="939" type="line"/>
      <point x="965" y="934" type="line"/>
      <point x="938" y="993"/>
      <point x="886" y="1132"/>
      <point x="664" y="1132" type="curve" smooth="yes"/>
      <point x="312" y="1132"/>
      <point x="96" y="784"/>
      <point x="96" y="443" type="curve" smooth="yes"/>
      <point x="96" y="170"/>
      <point x="260" y="18"/>
      <point x="498" y="18" type="curve" smooth="yes"/>
      <point x="707" y="18"/>
      <point x="793" y="134"/>
      <point x="844" y="201" type="curve"/>
      <point x="860" y="205" type="line"/>
      <point x="823" y="-13" type="line" smooth="yes"/>
      <point x="792" y="-196"/>
      <point x="644" y="-285"/>
      <point x="460" y="-285" type="curve" smooth="yes"/>
      <point x="266" y="-285"/>
      <point x="213" y="-185"/>
      <point x="180" y="-125" type="curve"/>
      <point x="25" y="-209" type="line"/>
      <point x="73" y="-327"/>
      <point x="197" y="-442"/>
    </contour>
    <contour>
      <point x="531" y="178" type="curve" smooth="yes"/>
      <point x="360" y="178"/>
      <point x="277" y="286"/>
      <point x="277" y="453" type="curve" smooth="yes"/>
      <point x="277" y="702"/>
      <point x="425" y="971"/>
      <point x="685" y="971" type="curve" smooth="yes"/>
      <point x="852" y="971"/>
      <point x="932" y="860"/>
      <point x="932" y="690" type="curve" smooth="yes"/>
      <point x="932" y="445"/>
      <point x="805" y="178"/>
    </contour>
  </outline>
</glyph>
<glyph name="h" format="2">
  <advance width="1211"/>
  <unicode hex="0068"/>
  <anchor x="512" y="0" name="bottom"/>
  <anchor x="157" y="0" name="cedilla"/>
  <anchor x="455" y="1304" name="cross"/>
  <anchor x="779" y="0" name="lfthook"/>
  <anchor x="402" y="1490" name="top"/>
  <outline>
    <contour>
      <point x="356" y="670" type="line" smooth="yes"/>
      <point x="388" y="863"/>
      <point x="529" y="970"/>
      <point x="687" y="970" type="curve" smooth="yes"/>
      <point x="842" y="970"/>
      <point x="924" y="869"/>
      <point x="895" y="695" type="curve" smooth="yes"/>
      <point x="779" y="0" type="line"/>
      <point x="960" y="0" type="line"/>
      <point x="1078" y="710" type="line" smooth="yes"/>
      <point x="1125" y="993"/>
      <point x="986" y="1132"/>
      <point x="760" y="1132" type="curve" smooth="yes"/>
      <point x="594" y="1132"/>
      <point x="457" y="1056"/>
      <point x="354" y="847" type="curve"/>
      <point x="385" y="847" type="line"/>
      <point x="492" y="1490" type="line"/>
      <point x="312" y="1490" type="line"/>
      <point x="65" y="0" type="line"/>
      <point x="245" y="0" type="line"/>
    </contour>
  </outline>
</glyph>
<glyph name="k" format="2">
  <advance width="1125"/>
  <unicode hex="006B"/>
  <anchor x="488" y="0" name="bottom"/>
  <anchor x="402" y="1490" name="top"/>
  <outline>
    <contour>
      <point x="301" y="402" type="line"/>
      <point x="528" y="587" type="line"/>
      <point x="548" y="587" type="line"/>
      <point x="1153" y="1118" type="line"/>
      <point x="930" y="1118" type="line"/>
      <point x="371" y="625" type="line"/>
      <point x="338" y="625" type="line"/>
    </contour>
    <contour>
      <point x="65" y="0" type="line"/>
      <point x="245" y="0" type="line"/>
      <point x="492" y="1490" type="line"/>
      <point x="312" y="1490" type="line"/>
    </contour>
    <contour>
      <point x="772" y="0" type="line"/>
      <point x="1003" y="0" type="line"/>
      <point x="584" y="674" type="line"/>
      <point x="434" y="547" type="line"/>
    </contour>
  </outline>
</glyph>
<glyph name="l" format="2">
  <advance width="496"/>
  <unicode hex="006C"/>
  <anchor x="154" y="0" name="bottom"/>
  <anchor x="245" y="0" name="bottomr"/>
  <anchor x="368" y="745" name="centerr"/>
  <anchor x="281" y="768" name="cross"/>
  <anchor x="635" y="1490" name="raccent"/>
  <anchor x="402" y="1490" name="top"/>
  <outline>
    <contour>
      <point x="492" y="1490" type="line"/>
      <point x="312" y="1490" type="line"/>
      <point x="65" y="0" type="line"/>
      <point x="245" y="0" type="line"/>
    </contour>
  </outline>
</glyph>
<glyph name="m" format="2">
  <advance width="1794"/>
  <unicode hex="006D"/>
  <anchor x="803" y="0" name="bottom"/>
  <anchor x="1363" y="0" name="lfthook"/>
  <anchor x="989" y="1118" name="top"/>
  <outline>
    <contour>
      <point x="65" y="0" type="line"/>
      <point x="245" y="0" type="line"/>
      <point x="361" y="697" type="line" smooth="yes"/>
      <point x="391" y="877"/>
      <point x="532" y="974"/>
      <point x="668" y="974" type="curve" smooth="yes"/>
      <point x="785" y="974"/>
      <point x="863" y="900"/>
      <point x="842" y="773" type="curve" smooth="yes"/>
      <point x="714" y="0" type="line"/>
      <point x="894" y="0" type="line"/>
      <point x="1014" y="724" type="line" smooth="yes"/>
      <point x="1037" y="863"/>
      <point x="1151" y="974"/>
      <point x="1311" y="974" type="curve" smooth="yes"/>
      <point x="1423" y="974"/>
      <point x="1516" y="918"/>
      <point x="1489" y="756" type="curve" smooth="yes"/>
      <point x="1363" y="0" type="line"/>
      <point x="1543" y="0" type="line"/>
      <point x="1667" y="748" type="line" smooth="yes"/>
      <point x="1710" y="1007"/>
      <point x="1568" y="1138"/>
      <point x="1369" y="1138" type="curve" smooth="yes"/>
      <point x="1196" y="1138"/>
      <point x="1036" y="1037"/>
      <point x="969" y="872" type="curve"/>
      <point x="991" y="860" type="line"/>
      <point x="987" y="1017"/>
      <point x="904" y="1138"/>
      <point x="732" y="1138" type="curve" smooth="yes"/>
      <point x="594" y="1138"/>
      <point x="447" y="1056"/>
      <point x="371" y="873" type="curve"/>
      <point x="386" y="868" type="line"/>
      <point x="426" y="1118" type="line"/>
      <point x="251" y="1118" type="line"/>
    </contour>
  </outline>
</glyph>
<glyph name="n" format="2">
  <advance width="1211"/>
  <unicode hex="006E"/>
  <anchor x="512" y="0" name="bottom"/>
  <anchor x="960" y="0" name="bottomr"/>
  <anchor x="65" y="0" name="lfthook"/>
  <anchor x="698" y="1118" name="top"/>
  <anchor x="431" y="1118" name="topr"/>
  <outline>
    <contour>
      <point x="356" y="664" type="line" smooth="yes"/>
      <point x="388" y="855"/>
      <point x="533" y="970"/>
      <point x="698" y="970" type="curve" smooth="yes"/>
      <point x="848" y="970"/>
      <point x="926" y="875"/>
      <point x="897" y="701" type="curve" smooth="yes"/>
      <point x="780" y="0" type="line"/>
      <point x="960" y="0" type="line"/>
      <point x="1077" y="704" type="line" smooth="yes"/>
      <point x="1124" y="987"/>
      <point x="990" y="1132"/>
      <point x="758" y="1132" type="curve" smooth="yes"/>
      <point x="591" y="1132"/>
      <point x="454" y="1055"/>
      <point x="354" y="853" type="curve"/>
      <point x="380" y="847" type="line"/>
      <point x="424" y="1118" type="line"/>
      <point x="251" y="1118" type="line"/>
      <point x="65" y="0" type="line"/>
      <point x="245" y="0" type="line"/>
    </contour>
  </outline>
</glyph>
<glyph name="o" format="2">
  <advance width="1229"/>
  <unicode hex="006F"/>
  <anchor x="520" y="0" name="bottom"/>
  <anchor x="613" y="559" name="center"/>
  <anchor x="1123" y="552" name="ogonek"/>
  <anchor x="706" y="1118" name="top"/>
  <anchor x="708" y="1132" name="tophorn"/>
  <outline>
    <contour>
      <point x="528" y="-24" type="curve" smooth="yes"/>
      <point x="899" y="-24"/>
      <point x="1133" y="315"/>
      <point x="1133" y="674" type="curve" smooth="yes"/>
      <point x="1133" y="954"/>
      <point x="967" y="1132"/>
      <point x="697" y="1132" type="curve" smooth="yes"/>
      <point x="323" y="1132"/>
      <point x="94" y="788"/>
      <point x="94" y="433" type="curve" smooth="yes"/>
      <point x="94" y="156"/>
      <point x="258" y="-24"/>
    </contour>
    <contour>
      <point x="532" y="137" type="curve" smooth="yes"/>
      <point x="351" y="137"/>
      <point x="274" y="267"/>
      <point x="274" y="435" type="curve" smooth="yes"/>
      <point x="274" y="683"/>
      <point x="421" y="971"/>
      <point x="692" y="971" type="curve" smooth="yes"/>
      <point x="875" y="971"/>
      <point x="952" y="840"/>
      <point x="952" y="670" type="curve" smooth="yes"/>
      <point x="952" y="424"/>
      <point x="807" y="137"/>
    </contour>
  </outline>
</glyph>
<glyph name="p" format="2">
  <advance width="1255"/>
  <unicode hex="0070"/>
  <anchor x="85" y="-417" name="bottom"/>
  <anchor x="130" y="-162" name="cross"/>
  <anchor x="757" y="1118" name="top"/>
  <anchor x="431" y="1118" name="topr"/>
  <outline>
    <contour>
      <point x="-4" y="-418" type="line"/>
      <point x="176" y="-418" type="line"/>
      <point x="275" y="178" type="line"/>
      <point x="292" y="178" type="line"/>
      <point x="318" y="116"/>
      <point x="373" y="-24"/>
      <point x="592" y="-24" type="curve" smooth="yes"/>
      <point x="949" y="-24"/>
      <point x="1160" y="337"/>
      <point x="1160" y="685" type="curve" smooth="yes"/>
      <point x="1160" y="962"/>
      <point x="1005" y="1132"/>
      <point x="759" y="1132" type="curve" smooth="yes"/>
      <point x="547" y="1132"/>
      <point x="451" y="1007"/>
      <point x="404" y="939" type="curve"/>
      <point x="395" y="939" type="line"/>
      <point x="425" y="1118" type="line"/>
      <point x="251" y="1118" type="line"/>
    </contour>
    <contour>
      <point x="568" y="137" type="curve" smooth="yes"/>
      <point x="405" y="137"/>
      <point x="324" y="252"/>
      <point x="324" y="429" type="curve" smooth="yes"/>
      <point x="324" y="687"/>
      <point x="460" y="971"/>
      <point x="729" y="971" type="curve" smooth="yes"/>
      <point x="901" y="971"/>
      <point x="979" y="850"/>
      <point x="979" y="680" type="curve" smooth="yes"/>
      <point x="979" y="433"/>
      <point x="835" y="137"/>
    </contour>
  </outline>
</glyph>
<glyph name="q" format="2">
  <advance width="1255"/>
  <unicode hex="0071"/>
  <anchor x="845" y="-417" name="bottom"/>
  <anchor x="887" y="-162" name="cross"/>
  <anchor x="721" y="1118" name="top"/>
  <anchor x="1190" y="1118" name="topr"/>
  <outline>
    <contour>
      <point x="935" y="-418" type="line"/>
      <point x="1190" y="1118" type="line"/>
      <point x="1015" y="1118" type="line"/>
      <point x="983" y="928" type="line"/>
      <point x="973" y="928" type="line"/>
      <point x="943" y="992"/>
      <point x="884" y="1132"/>
      <point x="663" y="1132" type="curve" smooth="yes"/>
      <point x="306" y="1132"/>
      <point x="94" y="777"/>
      <point x="94" y="425" type="curve" smooth="yes"/>
      <point x="94" y="147"/>
      <point x="248" y="-24"/>
      <point x="492" y="-24" type="curve" smooth="yes"/>
      <point x="698" y="-24"/>
      <point x="786" y="98"/>
      <point x="837" y="172" type="curve"/>
      <point x="853" y="172" type="line"/>
      <point x="754" y="-418" type="line"/>
    </contour>
    <contour>
      <point x="524" y="137" type="curve" smooth="yes"/>
      <point x="355" y="137"/>
      <point x="276" y="261"/>
      <point x="276" y="435" type="curve" smooth="yes"/>
      <point x="276" y="688"/>
      <point x="418" y="971"/>
      <point x="684" y="971" type="curve" smooth="yes"/>
      <point x="851" y="971"/>
      <point x="931" y="861"/>
      <point x="931" y="686" type="curve" smooth="yes"/>
      <point x="931" y="432"/>
      <point x="792" y="137"/>
    </contour>
  </outline>
</glyph>
<glyph name="r" format="2">
  <advance width="772"/>
  <unicode hex="0072"/>
  <anchor x="155" y="0" name="bottom"/>
  <anchor x="246" y="0" name="bottomr"/>
  <anchor x="246" y="536" name="cross"/>
  <anchor x="520" y="1118" name="top"/>
  <outline>
    <contour>
      <point x="66" y="0" type="line"/>
      <point x="246" y="0" type="line"/>
      <point x="362" y="700" type="line" smooth="yes"/>
      <point x="387" y="851"/>
      <point x="523" y="960"/>
      <point x="684" y="960" type="curve" smooth="yes"/>
      <point x="728" y="960"/>
      <point x="774" y="953"/>
      <point x="790" y="950" type="curve"/>
      <point x="820" y="1131" type="line"/>
      <point x="799" y="1132"/>
      <point x="756" y="1134"/>
      <point x="730" y="1134" type="curve" smooth="yes"/>
      <point x="597" y="1134"/>
      <point x="468" y="1059"/>
      <point x="409" y="946" type="curve"/>
      <point x="397" y="946" type="line"/>
      <point x="425" y="1118" type="line"/>
      <point x="251" y="1118" type="line"/>
    </contour>
  </outline>
</glyph>
<glyph name="s" format="2">
  <advance width="1080"/>
  <unicode hex="0073"/>
  <anchor x="449" y="0" name="bottom"/>
  <anchor x="447" y="0" name="cedilla"/>
  <anchor x="50" y="272" name="rthook"/>
  <anchor x="635" y="1118" name="top"/>
  <outline>
    <contour>
      <point x="451" y="-24" type="curve" smooth="yes"/>
      <point x="708" y="-24"/>
      <point x="904" y="113"/>
      <point x="936" y="303" type="curve" smooth="yes"/>
      <point x="962" y="462"/>
      <point x="879" y="568"/>
      <point x="684" y="616" type="curve" smooth="yes"/>
      <point x="522" y="656" type="line" smooth="yes"/>
      <point x="396" y="687"/>
      <point x="351" y="728"/>
      <point x="364" y="805" type="curve" smooth="yes"/>
      <point x="380" y="904"/>
      <point x="498" y="979"/>
      <point x="636" y="979" type="curve" smooth="yes"/>
      <point x="775" y="979"/>
      <point x="822" y="907"/>
      <point x="840" y="827" type="curve"/>
      <point x="1005" y="857" type="line"/>
      <point x="1003" y="871"/>
      <point x="1000" y="885"/>
      <point x="996" y="899" type="curve" smooth="yes"/>
      <point x="960" y="1035"/>
      <point x="853" y="1132"/>
      <point x="639" y="1132" type="curve" smooth="yes"/>
      <point x="407" y="1132"/>
      <point x="215" y="1004"/>
      <point x="184" y="818" type="curve" smooth="yes"/>
      <point x="157" y="655"/>
      <point x="242" y="550"/>
      <point x="437" y="502" type="curve" smooth="yes"/>
      <point x="616" y="458" type="line" smooth="yes"/>
      <point x="721" y="432"/>
      <point x="762" y="386"/>
      <point x="751" y="315" type="curve" smooth="yes"/>
      <point x="734" y="217"/>
      <point x="615" y="134"/>
      <point x="454" y="134" type="curve" smooth="yes"/>
      <point x="325" y="134"/>
      <point x="246" y="183"/>
      <point x="235" y="306" type="curve"/>
      <point x="61" y="277" type="line"/>
      <point x="61" y="268"/>
      <point x="62" y="259"/>
      <point x="63" y="250" type="curve" smooth="yes"/>
      <point x="83" y="74"/>
      <point x="227" y="-24"/>
    </contour>
  </outline>
</glyph>
<glyph name="t" format="2">
  <advance width="640"/>
  <unicode hex="0074"/>
  <anchor x="347.0" y="0" name="bottom"/>
  <anchor x="401.0" y="0" name="cedilla"/>
  <anchor x="600.08" y="6" name="lfthook"/>
  <anchor x="497.12" y="1384" name="top"/>
  <anchor x="735.16" y="1562" name="raccent"/>
  <outline>
    <contour>
      <point x="769.24" y="1118" type="line"/>
      <point x="441.24" y="1118" type="line"/>
      <point x="413.52" y="964" type="line"/>
      <point x="741.52" y="964" type="line"/>
    </contour>
    <component base="_part.t_base" yxScale="0.18" xOffset="-74.0"/>
  </outline>
</glyph>
<glyph name="u" format="2">
  <advance width="1212"/>
  <unicode hex="0075"/>
  <anchor x="514" y="0" name="bottom"/>
  <anchor x="961" y="0" name="ogonek"/>
  <anchor x="965" y="1118" name="rtophorn"/>
  <anchor x="698" y="1118" name="top"/>
  <outline>
    <contour>
      <point x="443" y="-14" type="curve" smooth="yes"/>
      <point x="608" y="-14"/>
      <point x="753" y="62"/>
      <point x="856" y="271" type="curve"/>
      <point x="832" y="271" type="line"/>
      <point x="787" y="0" type="line"/>
      <point x="961" y="0" type="line"/>
      <point x="1146" y="1118" type="line"/>
      <point x="965" y="1118" type="line"/>
      <point x="855" y="448" type="line" smooth="yes"/>
      <point x="823" y="253"/>
      <point x="680" y="148"/>
      <point x="523" y="148" type="curve" smooth="yes"/>
      <point x="366" y="148"/>
      <point x="289" y="252"/>
      <point x="317" y="423" type="curve" smooth="yes"/>
      <point x="431" y="1118" type="line"/>
      <point x="251" y="1118" type="line"/>
      <point x="134" y="408" type="line" smooth="yes"/>
      <point x="87" y="123"/>
      <point x="219" y="-14"/>
    </contour>
  </outline>
</glyph>
<glyph name="v" format="2">
  <advance width="1151"/>
  <unicode hex="0076"/>
  <anchor x="483" y="0" name="bottom"/>
  <anchor x="668" y="1118" name="top"/>
  <outline>
    <contour>
      <point x="389" y="0" type="line"/>
      <point x="578" y="0" type="line"/>
      <point x="1190" y="1118" type="line"/>
      <point x="985" y="1118" type="line"/>
      <point x="637" y="455" type="line" smooth="yes"/>
      <point x="564" y="316"/>
      <point x="511" y="179"/>
      <point x="451" y="51" type="curve"/>
      <point x="517" y="51" type="line"/>
      <point x="500" y="179"/>
      <point x="491" y="317"/>
      <point x="464" y="455" type="curve" smooth="yes"/>
      <point x="335" y="1118" type="line"/>
      <point x="147" y="1118" type="line"/>
    </contour>
  </outline>
</glyph>
<glyph name="w" format="2">
  <advance width="1676"/>
  <unicode hex="0077"/>
  <anchor x="746" y="0" name="bottom"/>
  <anchor x="931" y="1118" name="top"/>
  <outline>
    <contour>
      <point x="317" y="0" type="line"/>
      <point x="496" y="0" type="line"/>
      <point x="724" y="505" type="line" smooth="yes"/>
      <point x="790" y="651"/>
      <point x="860" y="820"/>
      <point x="931" y="998" type="curve"/>
      <point x="892" y="998" type="line"/>
      <point x="904" y="817"/>
      <point x="918" y="647"/>
      <point x="935" y="506" type="curve" smooth="yes"/>
      <point x="996" y="0" type="line"/>
      <point x="1175" y="0" type="line"/>
      <point x="1699" y="1118" type="line"/>
      <point x="1508" y="1118" type="line"/>
      <point x="1291" y="630" type="line" smooth="yes"/>
      <point x="1227" y="486"/>
      <point x="1157" y="322"/>
      <point x="1083" y="117" type="curve"/>
      <point x="1115" y="117" type="line"/>
      <point x="1108" y="332"/>
      <point x="1094" y="496"/>
      <point x="1080" y="630" type="curve" smooth="yes"/>
      <point x="1029" y="1118" type="line"/>
      <point x="837" y="1118" type="line"/>
      <point x="622" y="630" type="line" smooth="yes"/>
      <point x="559" y="487"/>
      <point x="490" y="321"/>
      <point x="417" y="117" type="curve"/>
      <point x="448" y="117" type="line"/>
      <point x="440" y="332"/>
      <point x="424" y="497"/>
      <point x="409" y="630" type="curve" smooth="yes"/>
      <point x="354" y="1118" type="line"/>
      <point x="163" y="1118" type="line"/>
    </contour>
  </outline>
</glyph>
<glyph name="x" format="2">
  <advance width="1118"/>
  <unicode hex="0078"/>
  <anchor x="466" y="0" name="bottom"/>
  <anchor x="912" y="0" name="cyrtic"/>
  <anchor x="779" y="0" name="right"/>
  <anchor x="651" y="1118" name="top"/>
  <outline>
    <contour>
      <point x="-28" y="0" type="line"/>
      <point x="185" y="0" type="line"/>
      <point x="392" y="251" type="line" smooth="yes"/>
      <point x="482" y="360"/>
      <point x="536" y="452"/>
      <point x="605" y="539" type="curve"/>
      <point x="510" y="539" type="line"/>
      <point x="551" y="452"/>
      <point x="580" y="360"/>
      <point x="633" y="251" type="curve" smooth="yes"/>
      <point x="756" y="0" type="line"/>
      <point x="960" y="0" type="line"/>
      <point x="627" y="630" type="line"/>
      <point x="606" y="497" type="line"/>
      <point x="1127" y="1118" type="line"/>
      <point x="913" y="1118" type="line"/>
      <point x="735" y="901" type="line" smooth="yes"/>
      <point x="644" y="789"/>
      <point x="589" y="694"/>
      <point x="517" y="603" type="curve"/>
      <point x="611" y="603" type="line"/>
      <point x="570" y="693"/>
      <point x="540" y="789"/>
      <point x="486" y="901" type="curve" smooth="yes"/>
      <point x="382" y="1118" type="line"/>
      <point x="180" y="1118" type="line"/>
      <point x="496" y="505" type="line"/>
      <point x="520" y="643" type="line"/>
    </contour>
  </outline>
</glyph>
<glyph name="y" format="2">
  <advance width="1151"/>
  <unicode hex="0079"/>
  <anchor x="764" y="0" name="bottom"/>
  <anchor x="574" y="0" name="ogonek"/>
  <anchor x="668" y="1118" name="top"/>
  <outline>
    <contour>
      <point x="-19" y="-405" type="line"/>
      <point x="-1" y="-415"/>
      <point x="49" y="-426"/>
      <point x="108" y="-426" type="curve" smooth="yes"/>
      <point x="267" y="-426"/>
      <point x="389" y="-344"/>
      <point x="486" y="-167" type="curve" smooth="yes"/>
      <point x="1190" y="1118" type="line"/>
      <point x="985" y="1118" type="line"/>
      <point x="636" y="455" type="line" smooth="yes"/>
      <point x="563" y="317"/>
      <point x="510" y="179"/>
      <point x="450" y="51" type="curve"/>
      <point x="516" y="51" type="line"/>
      <point x="499" y="179"/>
      <point x="491" y="317"/>
      <point x="464" y="455" type="curve" smooth="yes"/>
      <point x="335" y="1118" type="line"/>
      <point x="147" y="1118" type="line"/>
      <point x="388" y="-6" type="line"/>
      <point x="341" y="-99" type="line" smooth="yes"/>
      <point x="261" y="-257"/>
      <point x="180" y="-279"/>
      <point x="70" y="-253" type="curve" smooth="yes"/>
      <point x="53" y="-249" type="line"/>
    </contour>
  </outline>
</glyph>
<glyph name="z" format="2">
  <advance width="1131"/>
  <unicode hex="007A"/>
  <anchor x="456" y="0" name="bottom"/>
  <anchor x="912" y="0" name="bottomr"/>
  <anchor x="554" y="558" name="cross"/>
  <anchor x="647" y="1118" name="top"/>
  <outline>
    <contour>
      <point x="33" y="0" type="line"/>
      <point x="912" y="0" type="line"/>
      <point x="939" y="167" type="line"/>
      <point x="319" y="167" type="line"/>
      <point x="321" y="178" type="line"/>
      <point x="1053" y="975" type="line"/>
      <point x="1077" y="1118" type="line"/>
      <point x="238" y="1118" type="line"/>
      <point x="211" y="951" type="line"/>
      <point x="810" y="951" type="line"/>
      <point x="808" y="940" type="line"/>
      <point x="56" y="134" type="line"/>
    </contour>
  </outline>
</glyph>
<glyph name="braceleft" format="2">
  <advance width="874"/>
  <unicode hex="007B"/>
  <outline>
    <contour>
      <point x="159" y="646" type="line"/>
      <point x="484" y="646"/>
      <point x="560" y="752"/>
      <point x="585" y="901" type="curve" smooth="yes"/>
      <point x="633" y="1187" type="line" smooth="yes"/>
      <point x="661" y="1354"/>
      <point x="725" y="1431"/>
      <point x="894" y="1430" type="curve"/>
      <point x="919" y="1581" type="line"/>
      <point x="632" y="1581"/>
      <point x="513" y="1462"/>
      <point x="468" y="1190" type="curve" smooth="yes"/>
      <point x="430" y="960" type="line" smooth="yes"/>
      <point x="404" y="803"/>
      <point x="338" y="741"/>
      <point x="174" y="741" type="curve"/>
    </contour>
    <contour>
      <point x="611" y="-279" type="curve"/>
      <point x="637" y="-130" type="line"/>
      <point x="467" y="-130"/>
      <point x="427" y="-54"/>
      <point x="455" y="115" type="curve" smooth="yes"/>
      <point x="502" y="399" type="line" smooth="yes"/>
      <point x="527" y="550"/>
      <point x="482" y="656"/>
      <point x="161" y="656" type="curve"/>
      <point x="145" y="561" type="line"/>
      <point x="309" y="560"/>
      <point x="353" y="496"/>
      <point x="327" y="340" type="curve" smooth="yes"/>
      <point x="289" y="112" type="line" smooth="yes"/>
      <point x="243" y="-164"/>
      <point x="327" y="-279"/>
    </contour>
    <contour>
      <point x="145" y="560" type="line"/>
      <point x="324" y="560" type="line"/>
      <point x="355" y="742" type="line"/>
      <point x="175" y="742" type="line"/>
    </contour>
  </outline>
</glyph>
<glyph name="bar" format="2">
  <advance width="681"/>
  <unicode hex="007C"/>
  <outline>
    <contour>
      <point x="651" y="1970" type="line"/>
      <point x="494" y="1970" type="line"/>
      <point x="90" y="-480" type="line"/>
      <point x="247" y="-480" type="line"/>
    </contour>
  </outline>
</glyph>
<glyph name="braceright" format="2">
  <advance width="874"/>
  <unicode hex="007D"/>
  <outline>
    <contour>
      <point x="743" y="646" type="curve"/>
      <point x="758" y="741" type="line"/>
      <point x="595" y="741"/>
      <point x="551" y="803"/>
      <point x="577" y="960" type="curve" smooth="yes"/>
      <point x="615" y="1190" type="line" smooth="yes"/>
      <point x="660" y="1462"/>
      <point x="579" y="1581"/>
      <point x="292" y="1581" type="curve"/>
      <point x="267" y="1430" type="line"/>
      <point x="438" y="1431"/>
      <point x="477" y="1354"/>
      <point x="449" y="1187" type="curve" smooth="yes"/>
      <point x="401" y="901" type="line" smooth="yes"/>
      <point x="376" y="752"/>
      <point x="417" y="646"/>
    </contour>
    <contour>
      <point x="-16" y="-279" type="line"/>
      <point x="274" y="-279"/>
      <point x="393" y="-159"/>
      <point x="437" y="112" type="curve" smooth="yes"/>
      <point x="474" y="340" type="line" smooth="yes"/>
      <point x="499" y="494"/>
      <point x="563" y="560"/>
      <point x="729" y="561" type="curve"/>
      <point x="744" y="656" type="line"/>
      <point x="422" y="656"/>
      <point x="343" y="550"/>
      <point x="318" y="399" type="curve" smooth="yes"/>
      <point x="271" y="115" type="line" smooth="yes"/>
      <point x="243" y="-54"/>
      <point x="178" y="-130"/>
      <point x="9" y="-130" type="curve"/>
    </contour>
    <contour>
      <point x="729" y="561" type="line"/>
      <point x="758" y="741" type="line"/>
      <point x="580" y="742" type="line"/>
      <point x="550" y="560" type="line"/>
    </contour>
  </outline>
</glyph>
<glyph name="asciitilde" format="2">
  <advance width="1356"/>
  <unicode hex="007E"/>
  <outline>
    <contour>
      <point x="148" y="439" type="curve"/>
      <point x="312" y="439" type="line"/>
      <point x="332" y="567"/>
      <point x="396" y="616"/>
      <point x="473" y="616" type="curve" smooth="yes"/>
      <point x="525" y="616"/>
      <point x="563" y="600"/>
      <point x="624" y="539" type="curve" smooth="yes"/>
      <point x="714" y="449"/>
      <point x="777" y="405"/>
      <point x="877" y="405" type="curve" smooth="yes"/>
      <point x="1030" y="405"/>
      <point x="1181" y="498"/>
      <point x="1216" y="740" type="curve"/>
      <point x="1054" y="740" type="line"/>
      <point x="1036" y="624"/>
      <point x="975" y="563"/>
      <point x="891" y="563" type="curve" smooth="yes"/>
      <point x="840" y="563"/>
      <point x="806" y="586"/>
      <point x="745" y="647" type="curve" smooth="yes"/>
      <point x="652" y="740"/>
      <point x="587" y="780"/>
      <point x="489" y="780" type="curve" smooth="yes"/>
      <point x="337" y="780"/>
      <point x="186" y="684"/>
    </contour>
  </outline>
</glyph>
<glyph name="exclamdown" format="2">
  <advance width="589"/>
  <unicode hex="00A1"/>
  <outline>
    <contour>
      <point x="41" y="-361" type="line"/>
      <point x="245" y="-361" type="line"/>
      <point x="401" y="650" type="line"/>
      <point x="222" y="650" type="line"/>
    </contour>
    <contour>
      <point x="347" y="873" type="curve" smooth="yes"/>
      <point x="422" y="873"/>
      <point x="491" y="933"/>
      <point x="504" y="1008" type="curve" smooth="yes"/>
      <point x="516" y="1082"/>
      <point x="466" y="1142"/>
      <point x="391" y="1142" type="curve" smooth="yes"/>
      <point x="317" y="1142"/>
      <point x="247" y="1082"/>
      <point x="235" y="1008" type="curve" smooth="yes"/>
      <point x="222" y="933"/>
      <point x="273" y="873"/>
    </contour>
  </outline>
</glyph>
<glyph name="cent" format="2">
  <advance width="1171"/>
  <unicode hex="00A2"/>
  <anchor x="552" y="190" name="bottom"/>
  <anchor x="552" y="190" name="cedilla"/>
  <anchor x="645" y="749" name="center"/>
  <anchor x="738" y="1308" name="top"/>
  <anchor x="1139" y="1008" name="topr"/>
  <outline>
    <contour>
      <point x="451" y="0" type="line"/>
      <point x="569" y="0" type="line"/>
      <point x="816" y="1490" type="line"/>
      <point x="698" y="1490" type="line"/>
    </contour>
    <component base="c" xOffset="32" yOffset="190"/>
  </outline>
</glyph>
<glyph name="sterling" format="2">
  <advance width="1250"/>
  <unicode hex="00A3"/>
  <outline>
    <contour>
      <point x="38" y="120" type="line"/>
      <point x="127" y="120"/>
      <point x="392" y="151"/>
      <point x="422" y="373" type="curve" smooth="yes"/>
      <point x="514" y="1055" type="line" smooth="yes"/>
      <point x="538" y="1233"/>
      <point x="661" y="1343"/>
      <point x="835" y="1343" type="curve" smooth="yes"/>
      <point x="976" y="1343"/>
      <point x="1055" y="1257"/>
      <point x="1057" y="1110" type="curve"/>
      <point x="1234" y="1138" type="line"/>
      <point x="1236" y="1361"/>
      <point x="1076" y="1510"/>
      <point x="847" y="1510" type="curve" smooth="yes"/>
      <point x="573" y="1510"/>
      <point x="369" y="1321"/>
      <point x="333" y="1050" type="curve" smooth="yes"/>
      <point x="242" y="366" type="line" smooth="yes"/>
      <point x="223" y="223"/>
      <point x="152" y="167"/>
      <point x="45" y="167" type="curve"/>
    </contour>
    <contour>
      <point x="18" y="0" type="line"/>
      <point x="788" y="0" type="line" smooth="yes"/>
      <point x="961" y="0"/>
      <point x="1060" y="84"/>
      <point x="1091" y="266" type="curve" smooth="yes"/>
      <point x="1099" y="313" type="line"/>
      <point x="930" y="313" type="line"/>
      <point x="920" y="251" type="line" smooth="yes"/>
      <point x="910" y="189"/>
      <point x="880" y="167"/>
      <point x="822" y="167" type="curve" smooth="yes"/>
      <point x="45" y="167" type="line"/>
    </contour>
    <contour>
      <point x="129" y="670" type="line"/>
      <point x="940" y="670" type="line"/>
      <point x="965" y="820" type="line"/>
      <point x="153" y="820" type="line"/>
    </contour>
  </outline>
</glyph>
<glyph name="currency" format="2">
  <advance width="1484"/>
  <unicode hex="00A4"/>
  <outline>
    <contour>
      <point x="642" y="-20" type="curve" smooth="yes"/>
      <point x="969" y="-20"/>
      <point x="1287" y="251"/>
      <point x="1345" y="609" type="curve" smooth="yes"/>
      <point x="1403" y="967"/>
      <point x="1174" y="1234"/>
      <point x="848" y="1234" type="curve" smooth="yes"/>
      <point x="519" y="1234"/>
      <point x="210" y="963"/>
      <point x="153" y="608" type="curve"/>
      <point x="94" y="253"/>
      <point x="313" y="-20"/>
    </contour>
    <contour>
      <point x="668" y="142" type="curve" smooth="yes"/>
      <point x="430" y="142"/>
      <point x="271" y="353"/>
      <point x="315" y="608" type="curve"/>
      <point x="358" y="867"/>
      <point x="584" y="1074"/>
      <point x="822" y="1074" type="curve" smooth="yes"/>
      <point x="1060" y="1074"/>
      <point x="1222" y="866"/>
      <point x="1177" y="606" type="curve" smooth="yes"/>
      <point x="1133" y="351"/>
      <point x="906" y="142"/>
    </contour>
    <contour>
      <point x="1222" y="925" type="line"/>
      <point x="1462" y="1131" type="line"/>
      <point x="1360" y="1255" type="line"/>
      <point x="1124" y="1049" type="line"/>
    </contour>
    <contour>
      <point x="1148" y="-15" type="line"/>
      <point x="1290" y="109" type="line"/>
      <point x="1122" y="313" type="line"/>
      <point x="982" y="191" type="line"/>
    </contour>
    <contour>
      <point x="141" y="-15" type="line"/>
      <point x="380" y="191" type="line"/>
      <point x="280" y="313" type="line"/>
      <point x="44" y="109" type="line"/>
    </contour>
    <contour>
      <point x="382" y="925" type="line"/>
      <point x="522" y="1049" type="line"/>
      <point x="354" y="1255" type="line"/>
      <point x="216" y="1131" type="line"/>
    </contour>
  </outline>
</glyph>
<glyph name="yen" format="2">
  <advance width="1129"/>
  <unicode hex="00A5"/>
  <outline>
    <contour>
      <point x="396" y="1490" type="line"/>
      <point x="187" y="1490" type="line"/>
      <point x="479" y="600" type="line"/>
      <point x="636" y="666" type="line"/>
    </contour>
    <contour>
      <point x="534" y="666" type="line"/>
      <point x="666" y="600" type="line"/>
      <point x="1255" y="1490" type="line"/>
      <point x="1046" y="1490" type="line"/>
    </contour>
    <contour>
      <point x="699" y="782" type="line"/>
      <point x="510" y="782" type="line"/>
      <point x="378" y="0" type="line"/>
      <point x="568" y="0" type="line"/>
    </contour>
    <contour>
      <point x="1014" y="744" type="line"/>
      <point x="175" y="744" type="line"/>
      <point x="154" y="608" type="line"/>
      <point x="993" y="608" type="line"/>
    </contour>
    <contour>
      <point x="967" y="456" type="line"/>
      <point x="129" y="456" type="line"/>
      <point x="108" y="320" type="line"/>
      <point x="947" y="320" type="line"/>
    </contour>
  </outline>
</glyph>
<glyph name="brokenbar" format="2">
  <advance width="553"/>
  <unicode hex="00A6"/>
  <outline>
    <contour>
      <point x="166" y="403" type="line"/>
      <point x="52" y="-280" type="line"/>
      <point x="221" y="-280" type="line"/>
      <point x="335" y="403" type="line"/>
    </contour>
    <contour>
      <point x="515" y="1490" type="line"/>
      <point x="346" y="1490" type="line"/>
      <point x="232" y="811" type="line"/>
      <point x="401" y="811" type="line"/>
    </contour>
  </outline>
</glyph>
<glyph name="section" format="2">
  <advance width="1161"/>
  <unicode hex="00A7"/>
  <outline>
    <contour>
      <point x="419" y="-302" type="curve" smooth="yes"/>
      <point x="649" y="-302"/>
      <point x="826" y="-184"/>
      <point x="857" y="5" type="curve" smooth="yes"/>
      <point x="873" y="105"/>
      <point x="843" y="185"/>
      <point x="760" y="257" type="curve"/>
      <point x="764" y="264" type="line"/>
      <point x="898" y="275"/>
      <point x="1012" y="389"/>
      <point x="1033" y="516" type="curve" smooth="yes"/>
      <point x="1052" y="631"/>
      <point x="992" y="752"/>
      <point x="873" y="830" type="curve" smooth="yes"/>
      <point x="619" y="996" type="line" smooth="yes"/>
      <point x="556" y="1037"/>
      <point x="477" y="1091"/>
      <point x="494" y="1197" type="curve" smooth="yes"/>
      <point x="510" y="1294"/>
      <point x="594" y="1356"/>
      <point x="722" y="1356" type="curve" smooth="yes"/>
      <point x="858" y="1356"/>
      <point x="893" y="1285"/>
      <point x="917" y="1156" type="curve"/>
      <point x="1076" y="1197" type="line"/>
      <point x="1052" y="1398"/>
      <point x="961" y="1510"/>
      <point x="744" y="1510" type="curve" smooth="yes"/>
      <point x="522" y="1510"/>
      <point x="354" y="1392"/>
      <point x="323" y="1203" type="curve" smooth="yes"/>
      <point x="306" y="1097"/>
      <point x="340" y="1029"/>
      <point x="417" y="953" type="curve"/>
      <point x="413" y="948" type="line"/>
      <point x="271" y="939"/>
      <point x="163" y="816"/>
      <point x="143" y="694" type="curve" smooth="yes"/>
      <point x="123" y="574"/>
      <point x="188" y="451"/>
      <point x="304" y="376" type="curve" smooth="yes"/>
      <point x="559" y="212" type="line" smooth="yes"/>
      <point x="620" y="173"/>
      <point x="700" y="121"/>
      <point x="682" y="12" type="curve" smooth="yes"/>
      <point x="665" y="-93"/>
      <point x="572" y="-148"/>
      <point x="448" y="-148" type="curve" smooth="yes"/>
      <point x="301" y="-148"/>
      <point x="254" y="-71"/>
      <point x="241" y="50" type="curve"/>
      <point x="73" y="8" type="line"/>
      <point x="84" y="-186"/>
      <point x="191" y="-302"/>
    </contour>
    <contour>
      <point x="656" y="350" type="curve" smooth="yes"/>
      <point x="412" y="506" type="line" smooth="yes"/>
      <point x="324" y="562"/>
      <point x="292" y="629"/>
      <point x="305" y="709" type="curve" smooth="yes"/>
      <point x="327" y="839"/>
      <point x="450" y="903"/>
      <point x="509" y="866" type="curve" smooth="yes"/>
      <point x="768" y="702" type="line" smooth="yes"/>
      <point x="849" y="651"/>
      <point x="885" y="586"/>
      <point x="872" y="505" type="curve" smooth="yes"/>
      <point x="850" y="372"/>
      <point x="712" y="314"/>
    </contour>
  </outline>
</glyph>
<glyph name="copyright" format="2">
  <advance width="1873"/>
  <unicode hex="00A9"/>
  <outline>
    <contour>
      <point x="542" y="744" type="curve" smooth="yes"/>
      <point x="503" y="506"/>
      <point x="664" y="312"/>
      <point x="903" y="312" type="curve" smooth="yes"/>
      <point x="1110" y="312"/>
      <point x="1292" y="458"/>
      <point x="1351" y="652" type="curve"/>
      <point x="1175" y="652" type="line"/>
      <point x="1138" y="552"/>
      <point x="1043" y="482"/>
      <point x="931" y="482" type="curve" smooth="yes"/>
      <point x="786" y="482"/>
      <point x="686" y="599"/>
      <point x="710" y="744" type="curve" smooth="yes"/>
      <point x="734" y="890"/>
      <point x="873" y="1008"/>
      <point x="1018" y="1008" type="curve" smooth="yes"/>
      <point x="1130" y="1008"/>
      <point x="1218" y="937"/>
      <point x="1222" y="838" type="curve"/>
      <point x="1398" y="838" type="line"/>
      <point x="1402" y="1031"/>
      <point x="1253" y="1176"/>
      <point x="1046" y="1176" type="curve" smooth="yes"/>
      <point x="807" y="1176"/>
      <point x="582" y="983"/>
    </contour>
    <component base="circlewhite"/>
  </outline>
</glyph>
<glyph name="ordfeminine" format="2">
  <advance width="929"/>
  <unicode hex="00AA"/>
  <anchor x="469" y="665" name="bottom"/>
  <anchor x="827" y="665" name="ogonek"/>
  <anchor x="610" y="1504" name="top"/>
  <outline>
    <contour>
      <point x="385" y="647" type="curve" smooth="yes"/>
      <point x="530" y="647"/>
      <point x="626" y="713"/>
      <point x="671" y="780" type="curve"/>
      <point x="680" y="780" type="line"/>
      <point x="661" y="665" type="line"/>
      <point x="827" y="665" type="line"/>
      <point x="919" y="1222" type="line" smooth="yes"/>
      <point x="959" y="1461"/>
      <point x="761" y="1514"/>
      <point x="620" y="1514" type="curve" smooth="yes"/>
      <point x="468" y="1514"/>
      <point x="305" y="1455"/>
      <point x="217" y="1303" type="curve"/>
      <point x="371" y="1264" type="line"/>
      <point x="407" y="1323"/>
      <point x="484" y="1377"/>
      <point x="600" y="1377" type="curve" smooth="yes"/>
      <point x="714" y="1377"/>
      <point x="765" y="1324"/>
      <point x="750" y="1233" type="curve" smooth="yes"/>
      <point x="749" y="1229" type="line" smooth="yes"/>
      <point x="740" y="1170"/>
      <point x="673" y="1170"/>
      <point x="511" y="1153" type="curve" smooth="yes"/>
      <point x="340" y="1135"/>
      <point x="156" y="1092"/>
      <point x="124" y="902" type="curve" smooth="yes"/>
      <point x="97" y="737"/>
      <point x="215" y="647"/>
    </contour>
    <contour>
      <point x="443" y="781" type="curve" smooth="yes"/>
      <point x="344" y="781"/>
      <point x="279" y="822"/>
      <point x="292" y="900" type="curve" smooth="yes"/>
      <point x="306" y="983"/>
      <point x="391" y="1016"/>
      <point x="498" y="1029" type="curve" smooth="yes"/>
      <point x="557" y="1036"/>
      <point x="696" y="1050"/>
      <point x="725" y="1073" type="curve"/>
      <point x="707" y="967" type="line" smooth="yes"/>
      <point x="691" y="870"/>
      <point x="590" y="781"/>
    </contour>
  </outline>
</glyph>
<glyph name="logicalnot" format="2">
  <advance width="1356"/>
  <unicode hex="00AC"/>
  <outline>
    <contour>
      <point x="851" y="315" type="line"/>
      <point x="1020" y="315" type="line"/>
      <point x="1091" y="745" type="line"/>
      <point x="255" y="745" type="line"/>
      <point x="229" y="586" type="line"/>
      <point x="896" y="586" type="line"/>
    </contour>
  </outline>
</glyph>
<glyph name="registered" format="2">
  <advance width="1364"/>
  <unicode hex="00AE"/>
  <outline>
    <contour>
      <point x="646" y="346" type="curve" smooth="yes"/>
      <point x="968" y="346"/>
      <point x="1271" y="607"/>
      <point x="1325" y="928" type="curve" smooth="yes"/>
      <point x="1378" y="1249"/>
      <point x="1161" y="1510"/>
      <point x="839" y="1510" type="curve" smooth="yes"/>
      <point x="518" y="1510"/>
      <point x="214" y="1249"/>
      <point x="161" y="928" type="curve" smooth="yes"/>
      <point x="107" y="607"/>
      <point x="325" y="346"/>
    </contour>
    <contour>
      <point x="670" y="487" type="curve" smooth="yes"/>
      <point x="427" y="487"/>
      <point x="261" y="684"/>
      <point x="302" y="928" type="curve" smooth="yes"/>
      <point x="342" y="1172"/>
      <point x="573" y="1369"/>
      <point x="816" y="1369" type="curve" smooth="yes"/>
      <point x="1060" y="1369"/>
      <point x="1224" y="1172"/>
      <point x="1184" y="928" type="curve" smooth="yes"/>
      <point x="1143" y="684"/>
      <point x="914" y="487"/>
    </contour>
    <contour>
      <point x="822" y="661" type="line"/>
      <point x="954" y="661" type="line"/>
      <point x="863" y="915" type="line"/>
      <point x="733" y="915" type="line"/>
    </contour>
    <contour>
      <point x="493" y="661" type="line"/>
      <point x="613" y="661" type="line"/>
      <point x="688" y="1110" type="line"/>
      <point x="798" y="1110" type="line" smooth="yes"/>
      <point x="827" y="1110"/>
      <point x="873" y="1091"/>
      <point x="862" y="1027" type="curve" smooth="yes"/>
      <point x="851" y="963"/>
      <point x="799" y="932"/>
      <point x="766" y="932" type="curve" smooth="yes"/>
      <point x="607" y="932" type="line"/>
      <point x="593" y="843" type="line"/>
      <point x="788" y="843" type="line" smooth="yes"/>
      <point x="861" y="843"/>
      <point x="973" y="908"/>
      <point x="993" y="1027" type="curve" smooth="yes"/>
      <point x="1012" y="1142"/>
      <point x="922" y="1197"/>
      <point x="854" y="1197" type="curve" smooth="yes"/>
      <point x="582" y="1197" type="line"/>
    </contour>
  </outline>
</glyph>
<glyph name="degree" format="2">
  <advance width="933"/>
  <unicode hex="00B0"/>
  <outline>
    <contour>
      <point x="568" y="829" type="curve" smooth="yes"/>
      <point x="753" y="829"/>
      <point x="903" y="979"/>
      <point x="903" y="1164" type="curve" smooth="yes"/>
      <point x="903" y="1350"/>
      <point x="753" y="1502"/>
      <point x="568" y="1502" type="curve" smooth="yes"/>
      <point x="382" y="1502"/>
      <point x="232" y="1350"/>
      <point x="232" y="1164" type="curve" smooth="yes"/>
      <point x="232" y="980"/>
      <point x="382" y="829"/>
    </contour>
    <contour>
      <point x="568" y="979" type="curve" smooth="yes"/>
      <point x="465" y="979"/>
      <point x="381" y="1062"/>
      <point x="381" y="1164" type="curve" smooth="yes"/>
      <point x="381" y="1268"/>
      <point x="465" y="1351"/>
      <point x="568" y="1351" type="curve" smooth="yes"/>
      <point x="671" y="1351"/>
      <point x="753" y="1267"/>
      <point x="753" y="1164" type="curve" smooth="yes"/>
      <point x="753" y="1062"/>
      <point x="671" y="979"/>
    </contour>
  </outline>
</glyph>
<glyph name="plusminus" format="2">
  <advance width="1356"/>
  <unicode hex="00B1"/>
  <outline>
    <contour>
      <point x="126" y="69" type="line"/>
      <point x="1069" y="69" type="line"/>
      <point x="1096" y="237" type="line"/>
      <point x="153" y="237" type="line"/>
    </contour>
    <contour>
      <point x="224" y="658" type="line"/>
      <point x="1167" y="658" type="line"/>
      <point x="1194" y="826" type="line"/>
      <point x="251" y="826" type="line"/>
    </contour>
    <contour>
      <point x="562" y="364" type="line"/>
      <point x="732" y="364" type="line"/>
      <point x="857" y="1121" type="line"/>
      <point x="686" y="1121" type="line"/>
    </contour>
  </outline>
</glyph>
<glyph name="two.sups" format="2">
  <advance width="905"/>
  <unicode hex="00B2"/>
  <anchor x="747.16" y="1262" name="cross"/>
  <anchor x="760.8" y="1710" name="top"/>
  <outline>
    <contour>
      <point x="279.64" y="898" type="line"/>
      <point x="958.64" y="898" type="line"/>
      <point x="983.66" y="1037" type="line"/>
      <point x="546.66" y="1037" type="line"/>
      <point x="547.92" y="1044" type="line"/>
      <point x="720.9" y="1155" type="line" smooth="yes"/>
      <point x="968.52" y="1314"/>
      <point x="1021.92" y="1394"/>
      <point x="1037.94" y="1483" type="curve" smooth="yes"/>
      <point x="1062.96" y="1622"/>
      <point x="949.5999999999999" y="1720"/>
      <point x="748.5999999999999" y="1720" type="curve" smooth="yes"/>
      <point x="556.5999999999999" y="1720"/>
      <point x="403.78" y="1621"/>
      <point x="376.42" y="1469" type="curve"/>
      <point x="542.4200000000001" y="1469" type="line"/>
      <point x="555.38" y="1541"/>
      <point x="628.48" y="1586"/>
      <point x="723.48" y="1586" type="curve" smooth="yes"/>
      <point x="815.48" y="1586"/>
      <point x="878.38" y="1541"/>
      <point x="865.4200000000001" y="1469" type="curve" smooth="yes"/>
      <point x="854.62" y="1409"/>
      <point x="799.88" y="1366"/>
      <point x="690.2" y="1290" type="curve" smooth="yes"/>
      <point x="301.78" y="1021" type="line"/>
    </contour>
  </outline>
</glyph>
<glyph name="three.sups" format="2">
  <advance width="913"/>
  <unicode hex="00B3"/>
  <anchor x="768.8" y="1710" name="top"/>
  <outline>
    <contour>
      <point x="617.84" y="888" type="curve" smooth="yes"/>
      <point x="828.84" y="888"/>
      <point x="997.66" y="987"/>
      <point x="1022.68" y="1126" type="curve" smooth="yes"/>
      <point x="1041.22" y="1229"/>
      <point x="974.46" y="1297"/>
      <point x="835.52" y="1314" type="curve"/>
      <point x="836.6" y="1320" type="line"/>
      <point x="949.3" y="1335"/>
      <point x="1035.82" y="1399"/>
      <point x="1052.2" y="1490" type="curve" smooth="yes"/>
      <point x="1075.42" y="1619"/>
      <point x="965.5999999999999" y="1720"/>
      <point x="771.5999999999999" y="1720" type="curve" smooth="yes"/>
      <point x="583.5999999999999" y="1720"/>
      <point x="417.32" y="1624"/>
      <point x="390.12" y="1484" type="curve"/>
      <point x="557.12" y="1484" type="line"/>
      <point x="569.9200000000001" y="1544"/>
      <point x="653.12" y="1584"/>
      <point x="746.12" y="1584" type="curve" smooth="yes"/>
      <point x="837.12" y="1584"/>
      <point x="892.56" y="1542"/>
      <point x="881.76" y="1482" type="curve" smooth="yes"/>
      <point x="870.24" y="1418"/>
      <point x="787.14" y="1373"/>
      <point x="685.14" y="1373" type="curve" smooth="yes"/>
      <point x="609.14" y="1373" type="line"/>
      <point x="587.0" y="1250" type="line"/>
      <point x="663.0" y="1250" type="line" smooth="yes"/>
      <point x="785.0" y="1250"/>
      <point x="853.72" y="1204"/>
      <point x="842.02" y="1139" type="curve" smooth="yes"/>
      <point x="830.6800000000001" y="1076"/>
      <point x="749.4" y="1030"/>
      <point x="645.4" y="1030" type="curve" smooth="yes"/>
      <point x="548.4" y="1030"/>
      <point x="474.24" y="1068"/>
      <point x="480.78" y="1121" type="curve"/>
      <point x="304.78" y="1121" type="line"/>
      <point x="282.4" y="980"/>
      <point x="420.84000000000003" y="888"/>
    </contour>
  </outline>
</glyph>
<glyph name="micro" format="2">
  <advance width="1202"/>
  <unicode hex="00B5"/>
  <outline>
    <contour>
      <point x="-3" y="-418" type="line"/>
      <point x="177" y="-418" type="line"/>
      <point x="305" y="352" type="line"/>
      <point x="264" y="352" type="line"/>
      <point x="215" y="57"/>
      <point x="393" y="-16"/>
      <point x="513" y="-16" type="curve" smooth="yes"/>
      <point x="632" y="-16"/>
      <point x="836" y="56"/>
      <point x="885" y="352" type="curve"/>
      <point x="844" y="352" type="line"/>
      <point x="827" y="251" type="line" smooth="yes"/>
      <point x="799" y="85"/>
      <point x="879" y="0"/>
      <point x="1062" y="0" type="curve" smooth="yes"/>
      <point x="1098" y="0" type="line"/>
      <point x="1124" y="155" type="line"/>
      <point x="1095" y="155" type="line" smooth="yes"/>
      <point x="1014" y="155"/>
      <point x="991" y="180"/>
      <point x="1003" y="253" type="curve" smooth="yes"/>
      <point x="1146" y="1118" type="line"/>
      <point x="966" y="1118" type="line"/>
      <point x="854" y="440" type="line" smooth="yes"/>
      <point x="820" y="234"/>
      <point x="696" y="143"/>
      <point x="541" y="143" type="curve" smooth="yes"/>
      <point x="393" y="143"/>
      <point x="284" y="228"/>
      <point x="319" y="440" type="curve" smooth="yes"/>
      <point x="431" y="1118" type="line"/>
      <point x="251" y="1118" type="line"/>
    </contour>
  </outline>
</glyph>
<glyph name="paragraph" format="2">
  <advance width="1234"/>
  <unicode hex="00B6"/>
  <outline>
    <contour>
      <point x="1168" y="1324" type="line"/>
      <point x="1195" y="1490" type="line"/>
      <point x="757" y="1490" type="line" smooth="yes"/>
      <point x="441" y="1490"/>
      <point x="232" y="1291"/>
      <point x="187" y="1022" type="curve" smooth="yes"/>
      <point x="142" y="753"/>
      <point x="283" y="552"/>
      <point x="603" y="552" type="curve" smooth="yes"/>
      <point x="687" y="552" type="line"/>
      <point x="814" y="1324" type="line"/>
    </contour>
    <contour>
      <point x="775" y="0" type="line"/>
      <point x="960" y="0" type="line"/>
      <point x="1208" y="1490" type="line"/>
      <point x="1023" y="1490" type="line"/>
    </contour>
  </outline>
</glyph>
<glyph name="one.sups" format="2">
  <advance width="623"/>
  <unicode hex="00B9"/>
  <outline>
    <contour>
      <point x="806.8" y="1710" type="line"/>
      <point x="613.8" y="1710" type="line"/>
      <point x="384.47999999999996" y="1586" type="line"/>
      <point x="357.12" y="1434" type="line"/>
      <point x="599.3399999999999" y="1563" type="line"/>
      <point x="607.3399999999999" y="1563" type="line"/>
      <point x="487.64" y="898" type="line"/>
      <point x="660.64" y="898" type="line"/>
    </contour>
  </outline>
</glyph>
<glyph name="ordmasculine" format="2">
  <advance width="988"/>
  <unicode hex="00BA"/>
  <anchor x="510" y="665" name="bottom"/>
  <anchor x="579" y="1084" name="center"/>
  <anchor x="996" y="1080" name="ogonek"/>
  <anchor x="649" y="1504" name="top"/>
  <anchor x="651" y="1514" name="tophorn"/>
  <outline>
    <contour>
      <point x="508" y="648" type="curve" smooth="yes"/>
      <point x="758" y="648"/>
      <point x="953" y="821"/>
      <point x="996" y="1080" type="curve" smooth="yes"/>
      <point x="1039.001" y="1341"/>
      <point x="902" y="1514"/>
      <point x="652" y="1514" type="curve" smooth="yes"/>
      <point x="401" y="1514"/>
      <point x="207.001" y="1341"/>
      <point x="164" y="1080" type="curve" smooth="yes"/>
      <point x="121" y="822"/>
      <point x="257" y="648"/>
    </contour>
    <contour>
      <point x="532" y="791" type="curve" smooth="yes"/>
      <point x="368" y="791"/>
      <point x="312" y="922"/>
      <point x="338" y="1080" type="curve" smooth="yes"/>
      <point x="364" y="1240"/>
      <point x="464" y="1371"/>
      <point x="628" y="1371" type="curve" smooth="yes"/>
      <point x="794" y="1371"/>
      <point x="849" y="1238"/>
      <point x="823" y="1080" type="curve" smooth="yes"/>
      <point x="797" y="922"/>
      <point x="697" y="791"/>
    </contour>
  </outline>
</glyph>
<glyph name="AE" format="2">
  <advance width="2036"/>
  <unicode hex="00C6"/>
  <anchor x="1480" y="1490" name="top"/>
  <outline>
    <contour>
      <point x="-41" y="0" type="line"/>
      <point x="168" y="0" type="line"/>
      <point x="1002" y="1319" type="line"/>
      <point x="1110" y="1319" type="line"/>
      <point x="891" y="0" type="line"/>
      <point x="1808" y="0" type="line"/>
      <point x="1836" y="167" type="line"/>
      <point x="1109" y="167" type="line"/>
      <point x="1191" y="662" type="line"/>
      <point x="1860" y="662" type="line"/>
      <point x="1888" y="830" type="line"/>
      <point x="1219" y="830" type="line"/>
      <point x="1300" y="1323" type="line"/>
      <point x="2016" y="1323" type="line"/>
      <point x="2044" y="1490" type="line"/>
      <point x="922" y="1490" type="line"/>
    </contour>
    <contour>
      <point x="371" y="416" type="line"/>
      <point x="1057" y="416" type="line"/>
      <point x="1084" y="582" type="line"/>
      <point x="398" y="582" type="line"/>
    </contour>
  </outline>
</glyph>
<glyph name="multiply" format="2">
  <advance width="1356"/>
  <unicode hex="00D7"/>
  <outline>
    <contour>
      <point x="961" y="112" type="line"/>
      <point x="1086" y="221" type="line"/>
      <point x="399" y="1044" type="line"/>
      <point x="274" y="936" type="line"/>
    </contour>
    <contour>
      <point x="269" y="116" type="line"/>
      <point x="1208" y="917" type="line"/>
      <point x="1101" y="1042" type="line"/>
      <point x="162" y="240" type="line"/>
    </contour>
  </outline>
</glyph>
<glyph name="Thorn" format="2">
  <advance width="1302"/>
  <unicode hex="00DE"/>
  <outline>
    <contour>
      <point x="322" y="1490" type="line"/>
      <point x="76" y="0" type="line"/>
      <point x="266" y="0" type="line"/>
      <point x="514" y="1490" type="line"/>
    </contour>
    <contour>
      <point x="359" y="1185" type="line"/>
      <point x="332" y="1018" type="line"/>
      <point x="716" y="1018" type="line" smooth="yes"/>
      <point x="921" y="1018"/>
      <point x="1017" y="916"/>
      <point x="990" y="753" type="curve" smooth="yes"/>
      <point x="963" y="590"/>
      <point x="839" y="491"/>
      <point x="632" y="491" type="curve" smooth="yes"/>
      <point x="247" y="491" type="line"/>
      <point x="220" y="325" type="line"/>
      <point x="605" y="325" type="line" smooth="yes"/>
      <point x="932" y="325"/>
      <point x="1137" y="526"/>
      <point x="1172" y="763" type="curve" smooth="yes"/>
      <point x="1206" y="993"/>
      <point x="1064" y="1183"/>
      <point x="743" y="1184" type="curve" smooth="yes"/>
    </contour>
  </outline>
</glyph>
<glyph name="germandbls" format="2">
  <advance width="1262"/>
  <unicode hex="00DF"/>
  <outline>
    <contour>
      <point x="87" y="0" type="line"/>
      <point x="269" y="0" type="line"/>
      <point x="453" y="1104" type="line" smooth="yes"/>
      <point x="477" y="1248"/>
      <point x="604" y="1343"/>
      <point x="750" y="1343" type="curve" smooth="yes"/>
      <point x="908" y="1343"/>
      <point x="987" y="1234"/>
      <point x="964" y="1097" type="curve" smooth="yes"/>
      <point x="942" y="966"/>
      <point x="833" y="841"/>
      <point x="688" y="841" type="curve" smooth="yes"/>
      <point x="597" y="841" type="line"/>
      <point x="569" y="671" type="line"/>
      <point x="698" y="671" type="line" smooth="yes"/>
      <point x="876" y="671"/>
      <point x="965" y="560"/>
      <point x="939" y="410" type="curve" smooth="yes"/>
      <point x="914" y="266"/>
      <point x="797" y="167"/>
      <point x="644" y="167" type="curve" smooth="yes"/>
      <point x="480" y="167" type="line"/>
      <point x="451" y="0" type="line"/>
      <point x="616" y="0" type="line" smooth="yes"/>
      <point x="878" y="0"/>
      <point x="1080" y="171"/>
      <point x="1121" y="407" type="curve" smooth="yes"/>
      <point x="1157" y="615"/>
      <point x="1047" y="756"/>
      <point x="859" y="775" type="curve"/>
      <point x="861" y="789" type="line"/>
      <point x="1008" y="837"/>
      <point x="1123" y="955"/>
      <point x="1151" y="1124" type="curve" smooth="yes"/>
      <point x="1191" y="1366"/>
      <point x="1023" y="1510"/>
      <point x="773" y="1510" type="curve" smooth="yes"/>
      <point x="514" y="1510"/>
      <point x="312" y="1354"/>
      <point x="271" y="1107" type="curve" smooth="yes"/>
    </contour>
  </outline>
</glyph>
<glyph name="ae" format="2">
  <advance width="1859"/>
  <unicode hex="00E6"/>
  <anchor x="989" y="1118" name="top"/>
  <outline>
    <contour>
      <point x="391" y="-16" type="curve" smooth="yes"/>
      <point x="652" y="-16"/>
      <point x="817" y="97"/>
      <point x="897" y="253" type="curve"/>
      <point x="914" y="254" type="line"/>
      <point x="1002" y="786" type="line" smooth="yes"/>
      <point x="1037" y="998"/>
      <point x="898" y="1141"/>
      <point x="648" y="1141" type="curve" smooth="yes"/>
      <point x="400" y="1141"/>
      <point x="210" y="1005"/>
      <point x="168" y="803" type="curve"/>
      <point x="350" y="801" type="line"/>
      <point x="379" y="914"/>
      <point x="485" y="985"/>
      <point x="626" y="985" type="curve" smooth="yes"/>
      <point x="801" y="985"/>
      <point x="859" y="915"/>
      <point x="831" y="765" type="curve" smooth="yes"/>
      <point x="764" y="406" type="line" smooth="yes"/>
      <point x="739" y="272"/>
      <point x="632" y="140"/>
      <point x="422" y="140" type="curve" smooth="yes"/>
      <point x="287" y="140"/>
      <point x="223" y="201"/>
      <point x="243" y="320" type="curve" smooth="yes"/>
      <point x="262" y="433"/>
      <point x="374" y="485"/>
      <point x="521" y="485" type="curve" smooth="yes"/>
      <point x="618" y="485"/>
      <point x="734" y="487"/>
      <point x="838" y="487" type="curve"/>
      <point x="850" y="625" type="line"/>
      <point x="695" y="625"/>
      <point x="616" y="624"/>
      <point x="509" y="624" type="curve" smooth="yes"/>
      <point x="203" y="624"/>
      <point x="91" y="478"/>
      <point x="65" y="324" type="curve" smooth="yes"/>
      <point x="30" y="117"/>
      <point x="160" y="-16"/>
    </contour>
    <contour>
      <point x="1215" y="-24" type="curve" smooth="yes"/>
      <point x="1437" y="-24"/>
      <point x="1627" y="86"/>
      <point x="1710" y="263" type="curve"/>
      <point x="1543" y="308" type="line"/>
      <point x="1487" y="203"/>
      <point x="1370" y="135"/>
      <point x="1226" y="135" type="curve" smooth="yes"/>
      <point x="1049" y="135"/>
      <point x="952" y="237"/>
      <point x="952" y="421" type="curve" smooth="yes"/>
      <point x="952" y="454"/>
      <point x="957" y="488"/>
      <point x="979" y="623" type="curve" smooth="yes"/>
      <point x="1012" y="825"/>
      <point x="1180" y="982"/>
      <point x="1366" y="982" type="curve" smooth="yes"/>
      <point x="1482" y="982"/>
      <point x="1560" y="926"/>
      <point x="1560" y="841" type="curve" smooth="yes"/>
      <point x="1560" y="674"/>
      <point x="1411" y="623"/>
      <point x="923" y="623" type="curve"/>
      <point x="899" y="487" type="line"/>
      <point x="1490" y="487"/>
      <point x="1740" y="586"/>
      <point x="1740" y="837" type="curve" smooth="yes"/>
      <point x="1740" y="1023"/>
      <point x="1600" y="1142"/>
      <point x="1384" y="1142" type="curve" smooth="yes"/>
      <point x="1049" y="1142"/>
      <point x="785" y="823"/>
      <point x="785" y="425" type="curve" smooth="yes"/>
      <point x="785" y="144"/>
      <point x="939" y="-24"/>
    </contour>
  </outline>
</glyph>
<glyph name="eth" format="2">
  <advance width="1192"/>
  <unicode hex="00F0"/>
  <outline>
    <contour>
      <point x="1109" y="1415" type="line"/>
      <point x="1079" y="1525" type="line"/>
      <point x="428" y="1233" type="line"/>
      <point x="456" y="1123" type="line"/>
    </contour>
    <contour>
      <point x="499" y="-24" type="curve" smooth="yes"/>
      <point x="795" y="-24"/>
      <point x="1029" y="186"/>
      <point x="1087" y="554" type="curve" smooth="yes"/>
      <point x="1168" y="1068"/>
      <point x="870" y="1421"/>
      <point x="569" y="1581" type="curve"/>
      <point x="476" y="1456" type="line"/>
      <point x="787" y="1284"/>
      <point x="898" y="1044"/>
      <point x="935" y="861" type="curve"/>
      <point x="921" y="861" type="line"/>
      <point x="885" y="947"/>
      <point x="797" y="1047"/>
      <point x="630" y="1047" type="curve" smooth="yes"/>
      <point x="382" y="1047"/>
      <point x="147" y="827"/>
      <point x="96" y="511" type="curve" smooth="yes"/>
      <point x="46" y="201"/>
      <point x="198" y="-24"/>
    </contour>
    <contour>
      <point x="529" y="136" type="curve" smooth="yes"/>
      <point x="309" y="136"/>
      <point x="245" y="315"/>
      <point x="277" y="512" type="curve" smooth="yes"/>
      <point x="310" y="715"/>
      <point x="442" y="899"/>
      <point x="655" y="899" type="curve" smooth="yes"/>
      <point x="877" y="899"/>
      <point x="936" y="693"/>
      <point x="905" y="502" type="curve" smooth="yes"/>
      <point x="872" y="299"/>
      <point x="737" y="136"/>
    </contour>
  </outline>
</glyph>
<glyph name="divide" format="2">
  <advance width="1356"/>
  <unicode hex="00F7"/>
  <outline>
    <contour>
      <point x="1165" y="668" type="line"/>
      <point x="227" y="668" type="line"/>
      <point x="200" y="498" type="line"/>
      <point x="1138" y="498" type="line"/>
    </contour>
    <contour>
      <point x="609" y="72" type="curve" smooth="yes"/>
      <point x="671" y="72"/>
      <point x="741" y="123"/>
      <point x="749" y="196" type="curve" smooth="yes"/>
      <point x="758" y="278"/>
      <point x="701" y="336"/>
      <point x="631" y="336" type="curve" smooth="yes"/>
      <point x="562" y="336"/>
      <point x="496" y="283"/>
      <point x="488" y="215" type="curve" smooth="yes"/>
      <point x="479" y="139"/>
      <point x="526" y="72"/>
    </contour>
    <contour>
      <point x="734" y="830" type="curve" smooth="yes"/>
      <point x="801" y="830"/>
      <point x="863" y="884"/>
      <point x="874" y="952" type="curve" smooth="yes"/>
      <point x="887" y="1032"/>
      <point x="830" y="1095"/>
      <point x="758" y="1095" type="curve" smooth="yes"/>
      <point x="687" y="1095"/>
      <point x="622" y="1041"/>
      <point x="611" y="973" type="curve" smooth="yes"/>
      <point x="598" y="893"/>
      <point x="656" y="830"/>
    </contour>
  </outline>
</glyph>
<glyph name="thorn" format="2">
  <advance width="1254"/>
  <unicode hex="00FE"/>
  <outline>
    <contour>
      <point x="580" y="-24" type="curve" smooth="yes"/>
      <point x="856" y="-24"/>
      <point x="1091" y="197"/>
      <point x="1150" y="558" type="curve" smooth="yes"/>
      <point x="1208" y="913"/>
      <point x="1048" y="1132"/>
      <point x="771" y="1132" type="curve" smooth="yes"/>
      <point x="554" y="1132"/>
      <point x="464" y="1000"/>
      <point x="415" y="939" type="curve"/>
      <point x="401" y="939" type="line"/>
      <point x="492" y="1490" type="line"/>
      <point x="312" y="1490" type="line"/>
      <point x="-4" y="-418" type="line"/>
      <point x="176" y="-418" type="line"/>
      <point x="274" y="173" type="line"/>
      <point x="288" y="173" type="line"/>
      <point x="318" y="106"/>
      <point x="369" y="-24"/>
    </contour>
    <contour>
      <point x="580" y="137" type="curve" smooth="yes"/>
      <point x="375" y="137"/>
      <point x="295" y="312"/>
      <point x="336" y="559" type="curve" smooth="yes"/>
      <point x="377" y="806"/>
      <point x="513" y="971"/>
      <point x="718" y="971" type="curve" smooth="yes"/>
      <point x="931" y="971"/>
      <point x="1005" y="789"/>
      <point x="967" y="559" type="curve" smooth="yes"/>
      <point x="928" y="323"/>
      <point x="789" y="137"/>
    </contour>
  </outline>
</glyph>
<glyph name="Hbar" format="2">
  <advance width="1593"/>
  <unicode hex="0126"/>
  <anchor x="707" y="0" name="bottom"/>
  <anchor x="224" y="0" name="cedilla"/>
  <anchor x="1289" y="0" name="cyrtic"/>
  <anchor x="1099" y="0" name="lfthook"/>
  <anchor x="1289" y="0" name="right"/>
  <anchor x="374" y="1490" name="tonos"/>
  <anchor x="954" y="1490" name="top"/>
  <outline>
    <contour>
      <point x="1596" y="1176" type="line"/>
      <point x="202" y="1176" type="line"/>
      <point x="180" y="1024" type="line"/>
      <point x="1572" y="1024" type="line"/>
    </contour>
    <component base="H" xOffset="40"/>
  </outline>
</glyph>
<glyph name="idotless" format="2">
  <advance width="497"/>
  <unicode hex="0131"/>
  <anchor x="157" y="0" name="bottom"/>
  <anchor x="255" y="595" name="cross"/>
  <anchor x="246" y="0" name="ogonek"/>
  <anchor x="342" y="1118" name="top"/>
  <outline>
    <contour>
      <point x="66" y="0" type="line"/>
      <point x="246" y="0" type="line"/>
      <point x="431" y="1118" type="line"/>
      <point x="251" y="1118" type="line"/>
    </contour>
  </outline>
</glyph>
<glyph name="kgreenlandic" format="2">
  <advance width="1077"/>
  <unicode hex="0138"/>
  <outline>
    <contour>
      <point x="431" y="1118" type="line"/>
      <point x="251" y="1118" type="line"/>
      <point x="66" y="0" type="line"/>
      <point x="246" y="0" type="line"/>
    </contour>
    <contour>
      <point x="1141" y="1118" type="line"/>
      <point x="922" y="1118" type="line"/>
      <point x="452" y="638" type="line"/>
      <point x="283" y="638" type="line"/>
      <point x="257" y="478" type="line"/>
      <point x="496" y="478" type="line"/>
    </contour>
    <contour>
      <point x="726" y="0" type="line"/>
      <point x="950" y="0" type="line"/>
      <point x="519" y="626" type="line"/>
      <point x="399" y="483" type="line"/>
    </contour>
  </outline>
</glyph>
<glyph name="OE" format="2">
  <advance width="1956"/>
  <unicode hex="0152"/>
  <anchor x="1270" y="0" name="bottom"/>
  <anchor x="1270" y="0" name="cedilla"/>
  <anchor x="1728" y="0" name="ogonek"/>
  <anchor x="1058" y="1490" name="tonos"/>
  <anchor x="1517" y="1490" name="top"/>
  <outline>
    <contour>
      <point x="684" y="0" type="curve" smooth="yes"/>
      <point x="884" y="0" type="line"/>
      <point x="914" y="160" type="line"/>
      <point x="712" y="160" type="line" smooth="yes"/>
      <point x="423" y="160"/>
      <point x="268" y="396"/>
      <point x="326" y="744" type="curve" smooth="yes"/>
      <point x="384" y="1097"/>
      <point x="617" y="1329"/>
      <point x="904" y="1330" type="curve" smooth="yes"/>
      <point x="1106" y="1330" type="line"/>
      <point x="1132" y="1490" type="line"/>
      <point x="930" y="1490" type="line" smooth="yes"/>
      <point x="539" y="1489"/>
      <point x="225" y="1193"/>
      <point x="152" y="744" type="curve" smooth="yes"/>
      <point x="77" y="300"/>
      <point x="292" y="0"/>
    </contour>
    <component base="E" xOffset="724"/>
  </outline>
</glyph>
<glyph name="tbar" format="2">
  <advance width="670"/>
  <unicode hex="0167"/>
  <anchor x="377.0" y="0" name="bottom"/>
  <anchor x="431.0" y="0" name="cedilla"/>
  <anchor x="630.08" y="6" name="lfthook"/>
  <anchor x="527.12" y="1384" name="top"/>
  <anchor x="765.16" y="1562" name="raccent"/>
  <outline>
    <contour>
      <point x="733.54" y="753" type="line"/>
      <point x="155.54" y="753" type="line"/>
      <point x="127.82" y="599" type="line"/>
      <point x="705.8199999999999" y="599" type="line"/>
    </contour>
    <component base="t" yxScale="0.18"/>
  </outline>
</glyph>
<glyph name="Btopbar" format="2">
  <advance width="1344"/>
  <unicode hex="0182"/>
  <outline>
    <contour>
      <point x="88" y="0" type="line"/>
      <point x="646" y="0" type="line" smooth="yes"/>
      <point x="968" y="0"/>
      <point x="1176" y="180"/>
      <point x="1220" y="441" type="curve" smooth="yes"/>
      <point x="1264" y="702"/>
      <point x="1114" y="870"/>
      <point x="789" y="870" type="curve" smooth="yes"/>
      <point x="421" y="870" type="line"/>
      <point x="497" y="1323" type="line"/>
      <point x="1213" y="1323" type="line"/>
      <point x="1241" y="1490" type="line"/>
      <point x="334" y="1490" type="line"/>
    </contour>
    <contour>
      <point x="305" y="165" type="line"/>
      <point x="394" y="703" type="line"/>
      <point x="762" y="703" type="line" smooth="yes"/>
      <point x="963" y="703"/>
      <point x="1057" y="587"/>
      <point x="1032" y="443" type="curve" smooth="yes"/>
      <point x="1007" y="299"/>
      <point x="872" y="165"/>
      <point x="673" y="165" type="curve" smooth="yes"/>
    </contour>
  </outline>
</glyph>
<glyph name="Tonesix" format="2">
  <advance width="1611"/>
  <unicode hex="0184"/>
  <anchor x="732" y="1179" name="cross"/>
  <outline>
    <contour>
      <point x="274" y="950" type="line"/>
      <point x="665" y="1490" type="line"/>
      <point x="459" y="1490" type="line"/>
      <point x="131" y="1037" type="line"/>
    </contour>
    <component base="Softsign-cy" xOffset="282"/>
  </outline>
</glyph>
<glyph name="tonesix" format="2">
  <advance width="1422"/>
  <unicode hex="0185"/>
  <outline>
    <contour>
      <point x="206" y="626" type="line"/>
      <point x="581" y="1118" type="line"/>
      <point x="385" y="1118" type="line"/>
      <point x="78" y="702" type="line"/>
    </contour>
    <component base="softsigncyrillic" xOffset="277"/>
  </outline>
</glyph>
<glyph name="Dtopbar" format="2">
  <advance width="1298"/>
  <unicode hex="018B"/>
  <outline>
    <contour>
      <point x="1085" y="0" type="line"/>
      <point x="1326" y="1460" type="line"/>
      <point x="423" y="1460" type="line"/>
      <point x="396" y="1283" type="line"/>
      <point x="1084" y="1283" type="line"/>
      <point x="1016" y="875" type="line"/>
      <point x="676" y="875" type="line" smooth="yes"/>
      <point x="352" y="875"/>
      <point x="141" y="701"/>
      <point x="98" y="440" type="curve" smooth="yes"/>
      <point x="55" y="179"/>
      <point x="209" y="0"/>
      <point x="529" y="0" type="curve" smooth="yes"/>
    </contour>
    <contour>
      <point x="900" y="173" type="line"/>
      <point x="558" y="173" type="line" smooth="yes"/>
      <point x="358" y="173"/>
      <point x="293" y="298"/>
      <point x="316" y="443" type="curve" smooth="yes"/>
      <point x="339" y="588"/>
      <point x="442" y="701"/>
      <point x="645" y="701" type="curve" smooth="yes"/>
      <point x="987" y="701" type="line"/>
    </contour>
  </outline>
</glyph>
<glyph name="deltaturn" format="2">
  <advance width="1113"/>
  <unicode hex="018D"/>
  <outline>
    <contour>
      <point x="752" y="-376" type="line"/>
      <point x="774" y="-253" type="line"/>
      <point x="697" y="-145"/>
      <point x="579" y="-32"/>
      <point x="482" y="73" type="curve"/>
      <point x="498" y="74"/>
      <point x="500" y="74"/>
      <point x="524" y="77" type="curve" smooth="yes"/>
      <point x="810" y="113"/>
      <point x="1012" y="314"/>
      <point x="1046" y="552" type="curve" smooth="yes"/>
      <point x="1049" y="573" type="line" smooth="yes"/>
      <point x="1096" y="902"/>
      <point x="955" y="1132"/>
      <point x="646" y="1132" type="curve" smooth="yes"/>
      <point x="347" y="1132"/>
      <point x="125" y="910"/>
      <point x="74" y="570" type="curve" smooth="yes"/>
      <point x="71" y="550" type="line" smooth="yes"/>
      <point x="37" y="323"/>
      <point x="154" y="151"/>
      <point x="338" y="-31" type="curve" smooth="yes"/>
      <point x="398" y="-90"/>
      <point x="483" y="-185"/>
      <point x="503" y="-215" type="curve"/>
      <point x="63" y="-215" type="line"/>
      <point x="34" y="-376" type="line"/>
    </contour>
    <contour>
      <point x="837" y="550" type="line"/>
      <point x="805" y="365"/>
      <point x="686" y="201"/>
      <point x="479" y="201" type="curve" smooth="yes"/>
      <point x="445" y="201"/>
      <point x="423" y="204"/>
      <point x="398" y="213" type="curve"/>
      <point x="318" y="272"/>
      <point x="252" y="390"/>
      <point x="276" y="550" type="curve" smooth="yes"/>
      <point x="279" y="570" type="line" smooth="yes"/>
      <point x="313" y="797"/>
      <point x="425" y="966"/>
      <point x="619" y="966" type="curve" smooth="yes"/>
      <point x="818" y="966"/>
      <point x="874" y="797"/>
      <point x="840" y="570" type="curve" smooth="yes"/>
    </contour>
  </outline>
</glyph>
<glyph name="Schwa" format="2">
  <advance width="1526"/>
  <unicode hex="018F"/>
  <outline>
    <contour>
      <point x="658" y="-20" type="curve" smooth="yes"/>
      <point x="1056" y="-20"/>
      <point x="1359" y="273"/>
      <point x="1436" y="748" type="curve" smooth="yes"/>
      <point x="1512" y="1217"/>
      <point x="1290" y="1510"/>
      <point x="907" y="1510" type="curve" smooth="yes"/>
      <point x="591" y="1510"/>
      <point x="316" y="1311"/>
      <point x="215" y="1023" type="curve"/>
      <point x="411" y="1023" type="line"/>
      <point x="503" y="1214"/>
      <point x="666" y="1334"/>
      <point x="878" y="1334" type="curve" smooth="yes"/>
      <point x="1139" y="1334"/>
      <point x="1313" y="1128"/>
      <point x="1251" y="747" type="curve" smooth="yes"/>
      <point x="1189" y="366"/>
      <point x="963" y="156"/>
      <point x="687" y="156" type="curve" smooth="yes"/>
      <point x="436" y="156"/>
      <point x="274" y="326"/>
      <point x="319" y="594" type="curve"/>
      <point x="260" y="583" type="line"/>
      <point x="1298" y="583" type="line"/>
      <point x="1326" y="749" type="line"/>
      <point x="158" y="749" type="line"/>
      <point x="132" y="586" type="line" smooth="yes"/>
      <point x="73" y="216"/>
      <point x="304" y="-20"/>
    </contour>
  </outline>
</glyph>
<glyph name="Epsilon1" format="2">
  <advance width="1264"/>
  <unicode hex="0190"/>
  <anchor x="539" y="0" name="bottom"/>
  <anchor x="785" y="1490" name="top"/>
  <outline>
    <contour>
      <point x="534" y="-20" type="curve" smooth="yes"/>
      <point x="826" y="-20"/>
      <point x="1060" y="140"/>
      <point x="1109" y="376" type="curve"/>
      <point x="917" y="376" type="line"/>
      <point x="883" y="234"/>
      <point x="734" y="147"/>
      <point x="564" y="147" type="curve" smooth="yes"/>
      <point x="377" y="147"/>
      <point x="259" y="252"/>
      <point x="284" y="407" type="curve" smooth="yes"/>
      <point x="311" y="568"/>
      <point x="455" y="681"/>
      <point x="676" y="681" type="curve" smooth="yes"/>
      <point x="797" y="681" type="line"/>
      <point x="824" y="846" type="line"/>
      <point x="703" y="846" type="line" smooth="yes"/>
      <point x="529" y="846"/>
      <point x="426" y="946"/>
      <point x="451" y="1100" type="curve" smooth="yes"/>
      <point x="476" y="1248"/>
      <point x="596" y="1345"/>
      <point x="758" y="1345" type="curve" smooth="yes"/>
      <point x="910" y="1345"/>
      <point x="1035" y="1260"/>
      <point x="1017" y="1115" type="curve"/>
      <point x="1200" y="1115" type="line"/>
      <point x="1230" y="1349"/>
      <point x="1043" y="1510"/>
      <point x="781" y="1510" type="curve" smooth="yes"/>
      <point x="503" y="1510"/>
      <point x="302" y="1322"/>
      <point x="267" y="1110" type="curve" smooth="yes"/>
      <point x="239" y="942"/>
      <point x="314" y="819"/>
      <point x="458" y="774" type="curve"/>
      <point x="456" y="762" type="line"/>
      <point x="261" y="731"/>
      <point x="127" y="593"/>
      <point x="96" y="405" type="curve" smooth="yes"/>
      <point x="56" y="161"/>
      <point x="242" y="-20"/>
    </contour>
  </outline>
</glyph>
<glyph name="florin" format="2">
  <advance width="798"/>
  <unicode hex="0192"/>
  <outline>
    <contour>
      <point x="758" y="1082" type="line"/>
      <point x="553" y="1082" type="line"/>
      <point x="571" y="1191" type="line" smooth="yes"/>
      <point x="592" y="1318"/>
      <point x="664" y="1379"/>
      <point x="778" y="1379" type="curve" smooth="yes"/>
      <point x="814" y="1379"/>
      <point x="841" y="1374"/>
      <point x="858" y="1369" type="curve"/>
      <point x="928" y="1530" type="line"/>
      <point x="892" y="1545"/>
      <point x="818" y="1556"/>
      <point x="762" y="1556" type="curve" smooth="yes"/>
      <point x="576" y="1556"/>
      <point x="421" y="1427"/>
      <point x="382" y="1191" type="curve" smooth="yes"/>
      <point x="364" y="1082" type="line"/>
      <point x="185" y="1082" type="line"/>
      <point x="158" y="929" type="line"/>
      <point x="338" y="929" type="line"/>
      <point x="173" y="-69" type="line" smooth="yes"/>
      <point x="154" y="-184"/>
      <point x="85" y="-252"/>
      <point x="7" y="-252" type="curve" smooth="yes"/>
      <point x="-10" y="-252"/>
      <point x="-68" y="-250"/>
      <point x="-89" y="-242" type="curve"/>
      <point x="-130" y="-404" type="line"/>
      <point x="-92" y="-416"/>
      <point x="-59" y="-418"/>
      <point x="-17" y="-418" type="curve" smooth="yes"/>
      <point x="185" y="-418"/>
      <point x="324" y="-299"/>
      <point x="362" y="-69" type="curve" smooth="yes"/>
      <point x="527" y="929" type="line"/>
      <point x="732" y="929" type="line"/>
    </contour>
  </outline>
</glyph>
<glyph name="Gamma1" format="2">
  <advance width="1302"/>
  <unicode hex="0194"/>
  <outline>
    <contour>
      <point x="174" y="1490" type="line"/>
      <point x="549" y="116" type="line" smooth="yes"/>
      <point x="596" y="-56"/>
      <point x="619" y="-133"/>
      <point x="612" y="-192" type="curve" smooth="yes"/>
      <point x="607" y="-234"/>
      <point x="569" y="-276"/>
      <point x="516" y="-276" type="curve" smooth="yes"/>
      <point x="466" y="-276"/>
      <point x="435" y="-242"/>
      <point x="442" y="-193" type="curve" smooth="yes"/>
      <point x="450" y="-135"/>
      <point x="505" y="-63"/>
      <point x="612" y="116" type="curve" smooth="yes"/>
      <point x="1436" y="1490" type="line"/>
      <point x="1228" y="1490" type="line"/>
      <point x="522" y="300" type="line" smooth="yes"/>
      <point x="353" y="15"/>
      <point x="264" y="-98"/>
      <point x="248" y="-197" type="curve" smooth="yes"/>
      <point x="222" y="-358"/>
      <point x="317" y="-442"/>
      <point x="485" y="-442" type="curve" smooth="yes"/>
      <point x="651" y="-442"/>
      <point x="776" y="-359"/>
      <point x="804" y="-197" type="curve" smooth="yes"/>
      <point x="820" y="-104"/>
      <point x="753" y="47"/>
      <point x="688" y="300" type="curve" smooth="yes"/>
      <point x="382" y="1490" type="line"/>
    </contour>
  </outline>
</glyph>
<glyph name="hv" format="2">
  <advance width="1950"/>
  <unicode hex="0195"/>
  <outline>
    <contour>
      <point x="65" y="0" type="line"/>
      <point x="247" y="0" type="line"/>
      <point x="357" y="670" type="line" smooth="yes"/>
      <point x="389" y="865"/>
      <point x="533" y="970"/>
      <point x="696" y="970" type="curve" smooth="yes"/>
      <point x="854" y="970"/>
      <point x="933" y="869"/>
      <point x="905" y="695" type="curve" smooth="yes"/>
      <point x="883" y="558" type="line"/>
      <point x="1065" y="558" type="line"/>
      <point x="1090" y="710" type="line" smooth="yes"/>
      <point x="1137" y="996"/>
      <point x="1006" y="1132"/>
      <point x="779" y="1132" type="curve" smooth="yes"/>
      <point x="604" y="1132"/>
      <point x="488" y="1060"/>
      <point x="418" y="940" type="curve"/>
      <point x="402" y="940" type="line"/>
      <point x="493" y="1490" type="line"/>
      <point x="313" y="1490" type="line"/>
    </contour>
    <contour>
      <point x="1165" y="-20" type="curve" smooth="yes"/>
      <point x="1467" y="-20"/>
      <point x="1743" y="266"/>
      <point x="1860" y="968" type="curve" smooth="yes"/>
      <point x="1885" y="1118" type="line"/>
      <point x="1703" y="1118" type="line"/>
      <point x="1678" y="968" type="line" smooth="yes"/>
      <point x="1576" y="356"/>
      <point x="1382" y="138"/>
      <point x="1204" y="138" type="curve" smooth="yes"/>
      <point x="1115" y="138"/>
      <point x="1002" y="190"/>
      <point x="1045" y="441" type="curve" smooth="yes"/>
      <point x="1065" y="558" type="line"/>
      <point x="883" y="558" type="line"/>
      <point x="863" y="441" type="line" smooth="yes"/>
      <point x="809" y="125"/>
      <point x="947" y="-20"/>
    </contour>
  </outline>
</glyph>
<glyph name="Khook" format="2">
  <advance width="1389"/>
  <unicode hex="0198"/>
  <outline>
    <contour>
      <point x="88" y="0" type="line"/>
      <point x="278" y="0" type="line"/>
      <point x="359" y="475" type="line"/>
      <point x="578" y="684" type="line"/>
      <point x="976" y="0" type="line"/>
      <point x="1206" y="0" type="line"/>
      <point x="718" y="817" type="line"/>
      <point x="1212" y="1266" type="line" smooth="yes"/>
      <point x="1300" y="1346"/>
      <point x="1367" y="1350"/>
      <point x="1420" y="1311" type="curve"/>
      <point x="1519" y="1451" type="line"/>
      <point x="1405" y="1542"/>
      <point x="1244" y="1524"/>
      <point x="1110" y="1399" type="curve" smooth="yes"/>
      <point x="421" y="757" type="line"/>
      <point x="403" y="757" type="line"/>
      <point x="524" y="1490" type="line"/>
      <point x="334" y="1490" type="line"/>
    </contour>
  </outline>
</glyph>
<glyph name="lambdabar" format="2">
  <advance width="1300"/>
  <unicode hex="019B"/>
  <outline>
    <contour>
      <point x="839" y="1418" type="line"/>
      <point x="305" y="1227" type="line"/>
      <point x="276" y="1057" type="line"/>
      <point x="809" y="1244" type="line"/>
    </contour>
    <contour>
      <point x="657" y="784" type="line"/>
      <point x="761" y="1095" type="line"/>
      <point x="618" y="1103" type="line"/>
      <point x="16" y="0" type="line"/>
      <point x="246" y="0" type="line"/>
    </contour>
    <contour>
      <point x="505" y="1512" type="curve"/>
      <point x="475" y="1512"/>
      <point x="418" y="1506"/>
      <point x="399" y="1499" type="curve"/>
      <point x="373" y="1342" type="line"/>
      <point x="385" y="1346"/>
      <point x="409" y="1346"/>
      <point x="422" y="1346" type="curve" smooth="yes"/>
      <point x="471" y="1346"/>
      <point x="505" y="1325"/>
      <point x="522" y="1252" type="curve" smooth="yes"/>
      <point x="586" y="977" type="line"/>
      <point x="762" y="186" type="line" smooth="yes"/>
      <point x="802" y="6"/>
      <point x="866" y="-18"/>
      <point x="987" y="-18" type="curve" smooth="yes"/>
      <point x="1018" y="-18"/>
      <point x="1052" y="-13"/>
      <point x="1069" y="-7" type="curve"/>
      <point x="1092" y="159" type="line"/>
      <point x="1082" y="159"/>
      <point x="1069" y="159"/>
      <point x="1057" y="159" type="curve" smooth="yes"/>
      <point x="1013" y="159"/>
      <point x="991" y="177"/>
      <point x="976" y="244" type="curve" smooth="yes"/>
      <point x="729" y="1346" type="line" smooth="yes"/>
      <point x="705" y="1453"/>
      <point x="650" y="1512"/>
    </contour>
  </outline>
</glyph>
<glyph name="mcapturn" format="2">
  <advance width="1859"/>
  <unicode hex="019C"/>
  <outline>
    <contour>
      <point x="1429" y="215" type="line"/>
      <point x="1404" y="0" type="line"/>
      <point x="1601" y="0" type="line"/>
      <point x="1847" y="1490" type="line"/>
      <point x="1641" y="1490" type="line"/>
    </contour>
    <contour>
      <point x="1494" y="504" type="line"/>
      <point x="1459" y="302"/>
      <point x="1360" y="152"/>
      <point x="1151" y="152" type="curve" smooth="yes"/>
      <point x="1053" y="152"/>
      <point x="976" y="215"/>
      <point x="1012" y="441" type="curve"/>
      <point x="1186" y="1490" type="line"/>
      <point x="980" y="1490" type="line"/>
      <point x="806" y="441" type="line"/>
      <point x="752" y="100"/>
      <point x="868" y="-20"/>
      <point x="1088" y="-20" type="curve" smooth="yes"/>
      <point x="1382" y="-20"/>
      <point x="1538" y="204"/>
      <point x="1588" y="506" type="curve"/>
    </contour>
    <contour>
      <point x="836" y="504" type="line"/>
      <point x="802" y="302"/>
      <point x="699" y="152"/>
      <point x="489" y="152" type="curve" smooth="yes"/>
      <point x="400" y="152"/>
      <point x="315" y="206"/>
      <point x="354" y="441" type="curve" smooth="yes"/>
      <point x="528" y="1490" type="line"/>
      <point x="320" y="1490" type="line"/>
      <point x="146" y="441" type="line" smooth="yes"/>
      <point x="89" y="97"/>
      <point x="208" y="-20"/>
      <point x="425" y="-20" type="curve" smooth="yes"/>
      <point x="721" y="-20"/>
      <point x="881" y="203"/>
      <point x="930" y="506" type="curve"/>
    </contour>
  </outline>
</glyph>
<glyph name="Ohorn" format="2">
  <advance width="1560"/>
  <unicode hex="01A0"/>
  <anchor x="691" y="0" name="bottom"/>
  <anchor x="815" y="745" name="center"/>
  <anchor x="1488" y="911" name="ogonek"/>
  <anchor x="408" y="1490" name="tonos"/>
  <anchor x="938" y="1490" name="top"/>
  <anchor x="941" y="1510" name="tophorn"/>
  <outline>
    <contour>
      <point x="916" y="1386" type="line"/>
      <point x="1259" y="1386"/>
      <point x="1295" y="1346"/>
      <point x="1398" y="1346" type="curve" smooth="yes"/>
      <point x="1512" y="1346"/>
      <point x="1577" y="1402"/>
      <point x="1596" y="1516" type="curve" smooth="yes"/>
      <point x="1626" y="1698" type="line"/>
      <point x="1456" y="1698" type="line"/>
      <point x="1425" y="1508" type="line" smooth="yes"/>
      <point x="1423" y="1497"/>
      <point x="1415" y="1490"/>
      <point x="1404" y="1490" type="curve" smooth="yes"/>
      <point x="1064" y="1490"/>
      <point x="1094" y="1510"/>
      <point x="937" y="1510" type="curve"/>
    </contour>
    <component base="O"/>
  </outline>
</glyph>
<glyph name="ohorn" format="2">
  <advance width="1222"/>
  <unicode hex="01A1"/>
  <anchor x="520" y="0" name="bottom"/>
  <anchor x="613" y="559" name="center"/>
  <anchor x="1123" y="552" name="ogonek"/>
  <anchor x="706" y="1118" name="top"/>
  <anchor x="708" y="1132" name="tophorn"/>
  <outline>
    <contour>
      <point x="686" y="1014" type="line"/>
      <point x="805" y="1014"/>
      <point x="937" y="998"/>
      <point x="1056" y="998" type="curve" smooth="yes"/>
      <point x="1170" y="998"/>
      <point x="1235" y="1054"/>
      <point x="1254" y="1168" type="curve" smooth="yes"/>
      <point x="1281" y="1326" type="line"/>
      <point x="1121" y="1326" type="line"/>
      <point x="1089" y="1136" type="line" smooth="yes"/>
      <point x="1087" y="1125"/>
      <point x="1079" y="1118"/>
      <point x="1068" y="1118" type="curve" smooth="yes"/>
      <point x="952" y="1118"/>
      <point x="821" y="1127"/>
      <point x="705" y="1132" type="curve"/>
    </contour>
    <component base="o"/>
  </outline>
</glyph>
<glyph name="OI" format="2">
  <advance width="1786"/>
  <unicode hex="01A2"/>
  <outline>
    <contour>
      <point x="1287" y="769" type="line" name="hr00"/>
      <point x="1081" y="769" type="line"/>
      <point x="996" y="254" type="line"/>
      <point x="921" y="186"/>
      <point x="810" y="152"/>
      <point x="692" y="152" type="curve" smooth="yes"/>
      <point x="413" y="152"/>
      <point x="305" y="345"/>
      <point x="358" y="679" type="curve" smooth="yes"/>
      <point x="378" y="805" type="line"/>
      <point x="162" y="801" type="line"/>
      <point x="142" y="679" type="line" smooth="yes"/>
      <point x="72" y="252"/>
      <point x="255" y="-20"/>
      <point x="651" y="-20" type="curve" smooth="yes"/>
      <point x="873" y="-20"/>
      <point x="1081" y="61"/>
      <point x="1193" y="197" type="curve"/>
    </contour>
    <contour>
      <point x="1375" y="1293" type="line"/>
      <point x="1310" y="1423"/>
      <point x="1134" y="1510"/>
      <point x="922" y="1510" type="curve" smooth="yes"/>
      <point x="520" y="1510"/>
      <point x="233" y="1252"/>
      <point x="164" y="811" type="curve" smooth="yes"/>
      <point x="146" y="696" type="line"/>
      <point x="360" y="696" type="line"/>
      <point x="379" y="811" type="line" smooth="yes"/>
      <point x="436" y="1156"/>
      <point x="611" y="1336"/>
      <point x="890" y="1336" type="curve" smooth="yes"/>
      <point x="1014" y="1336"/>
      <point x="1113" y="1295"/>
      <point x="1159" y="1232" type="curve"/>
      <point x="1076" y="733" type="line"/>
      <point x="1282" y="733" type="line"/>
    </contour>
    <contour>
      <point x="1758" y="1490" type="line"/>
      <point x="1598" y="1490" type="line"/>
      <point x="1291" y="1371" type="line"/>
      <point x="1261" y="1191" type="line"/>
      <point x="1516" y="1280" type="line"/>
      <point x="1234" y="-418" type="line"/>
      <point x="1442" y="-418" type="line"/>
    </contour>
  </outline>
</glyph>
<glyph name="oi" format="2">
  <advance width="1307"/>
  <unicode hex="01A3"/>
  <outline>
    <contour>
      <point x="489" y="146" type="curve" smooth="yes"/>
      <point x="317" y="146"/>
      <point x="236" y="281"/>
      <point x="272" y="521" type="curve" smooth="yes"/>
      <point x="278" y="561" type="line" smooth="yes"/>
      <point x="311" y="781"/>
      <point x="411" y="966"/>
      <point x="619" y="966" type="curve" smooth="yes"/>
      <point x="679" y="966"/>
      <point x="727" y="950"/>
      <point x="762" y="919" type="curve"/>
      <point x="694" y="516" type="line"/>
      <point x="903" y="514" type="line"/>
      <point x="979" y="971" type="line"/>
      <point x="919" y="1068"/>
      <point x="807" y="1132"/>
      <point x="652" y="1132" type="curve" smooth="yes"/>
      <point x="323" y="1132"/>
      <point x="118" y="881"/>
      <point x="70" y="561" type="curve" smooth="yes"/>
      <point x="64" y="521" type="line" smooth="yes"/>
      <point x="20" y="228"/>
      <point x="139" y="-20"/>
      <point x="452" y="-20" type="curve" smooth="yes"/>
      <point x="618" y="-20"/>
      <point x="747" y="48"/>
      <point x="841" y="141" type="curve"/>
      <point x="908" y="550" type="line"/>
      <point x="700" y="550" type="line"/>
      <point x="640" y="190" type="line"/>
      <point x="596" y="163"/>
      <point x="550" y="146"/>
    </contour>
    <contour>
      <point x="1329" y="1118" type="line"/>
      <point x="1168" y="1118" type="line"/>
      <point x="882" y="983" type="line"/>
      <point x="839" y="726" type="line"/>
      <point x="1080" y="852" type="line"/>
      <point x="871" y="-418" type="line"/>
      <point x="1077" y="-418" type="line"/>
    </contour>
  </outline>
</glyph>
<glyph name="YR" format="2">
  <advance width="1486"/>
  <unicode hex="01A6"/>
  <outline>
    <contour>
      <point x="248" y="1390" type="line" name="hr00"/>
      <point x="466" y="1390" type="line"/>
      <point x="500" y="1592" type="line"/>
      <point x="282" y="1592" type="line"/>
    </contour>
    <contour>
      <point x="266" y="1490" type="line"/>
      <point x="18" y="0" type="line"/>
      <point x="236" y="0" type="line"/>
      <point x="453" y="1315" type="line"/>
      <point x="727" y="1315" type="line" smooth="yes"/>
      <point x="946" y="1315"/>
      <point x="1010" y="1207"/>
      <point x="985" y="1050" type="curve" smooth="yes"/>
      <point x="962" y="906"/>
      <point x="846" y="788"/>
      <point x="640" y="788" type="curve" smooth="yes"/>
      <point x="316" y="788" type="line"/>
      <point x="289" y="617" type="line"/>
      <point x="734" y="617" type="line"/>
      <point x="796" y="640" type="line"/>
      <point x="1013" y="698"/>
      <point x="1164" y="845"/>
      <point x="1200" y="1048" type="curve" smooth="yes"/>
      <point x="1250" y="1330"/>
      <point x="1097" y="1490"/>
      <point x="758" y="1490" type="curve" smooth="yes"/>
    </contour>
    <contour>
      <point x="993" y="-359" type="line"/>
      <point x="1224" y="-359" type="line"/>
      <point x="1226" y="-349" type="line"/>
      <point x="847" y="663" type="line"/>
      <point x="620" y="663" type="line"/>
    </contour>
  </outline>
</glyph>
<glyph name="Tonetwo" format="2">
  <advance width="1314"/>
  <unicode hex="01A7"/>
  <anchor x="562" y="0" name="bottom"/>
  <anchor x="562" y="0" name="cedilla"/>
  <anchor x="811" y="1490" name="top"/>
  <outline>
    <contour>
      <point x="560" y="-26" type="curve" smooth="yes"/>
      <point x="885" y="-26"/>
      <point x="1111" y="141"/>
      <point x="1170" y="390" type="curve"/>
      <point x="975" y="390" type="line"/>
      <point x="932" y="222"/>
      <point x="749" y="144"/>
      <point x="573" y="144" type="curve" smooth="yes"/>
      <point x="374" y="144"/>
      <point x="249" y="246"/>
      <point x="275" y="408" type="curve" smooth="yes"/>
      <point x="298" y="553"/>
      <point x="444" y="606"/>
      <point x="610" y="651" type="curve" smooth="yes"/>
      <point x="799" y="702" type="line" smooth="yes"/>
      <point x="1040" y="767"/>
      <point x="1209" y="887"/>
      <point x="1243" y="1090" type="curve" smooth="yes"/>
      <point x="1285" y="1341"/>
      <point x="1090" y="1510"/>
      <point x="800" y="1510" type="curve" smooth="yes"/>
      <point x="507" y="1510"/>
      <point x="273" y="1340"/>
      <point x="227" y="1114" type="curve"/>
      <point x="413" y="1114" type="line"/>
      <point x="453" y="1256"/>
      <point x="613" y="1342"/>
      <point x="794" y="1342" type="curve" smooth="yes"/>
      <point x="980" y="1342"/>
      <point x="1082" y="1246"/>
      <point x="1060" y="1103" type="curve" smooth="yes"/>
      <point x="1036" y="946"/>
      <point x="854" y="890"/>
      <point x="736" y="859" type="curve" smooth="yes"/>
      <point x="580" y="818" type="line" smooth="yes"/>
      <point x="409" y="773"/>
      <point x="136" y="683"/>
      <point x="90" y="406" type="curve" smooth="yes"/>
      <point x="50" y="165"/>
      <point x="212" y="-26"/>
    </contour>
  </outline>
</glyph>
<glyph name="tonetwo" format="2">
  <advance width="1081"/>
  <unicode hex="01A8"/>
  <anchor x="437" y="0" name="bottom"/>
  <anchor x="439" y="0" name="cedilla"/>
  <anchor x="616" y="1118" name="top"/>
  <outline>
    <contour>
      <point x="172" y="861" type="curve"/>
      <point x="329" y="821" type="line"/>
      <point x="371" y="897"/>
      <point x="446" y="979"/>
      <point x="594" y="979" type="curve" smooth="yes"/>
      <point x="725" y="979"/>
      <point x="816" y="911"/>
      <point x="799" y="815" type="curve" smooth="yes"/>
      <point x="784" y="731"/>
      <point x="717" y="687"/>
      <point x="585" y="657" type="curve" smooth="yes"/>
      <point x="410" y="617" type="line" smooth="yes"/>
      <point x="196" y="568"/>
      <point x="87" y="466"/>
      <point x="62" y="316" type="curve" smooth="yes"/>
      <point x="29" y="119"/>
      <point x="185" y="-24"/>
      <point x="446" y="-24" type="curve" smooth="yes"/>
      <point x="678" y="-24"/>
      <point x="854" y="79"/>
      <point x="925" y="272" type="curve"/>
      <point x="759" y="310" type="line"/>
      <point x="708" y="189"/>
      <point x="609" y="133"/>
      <point x="474" y="133" type="curve" smooth="yes"/>
      <point x="321" y="133"/>
      <point x="230" y="208"/>
      <point x="246" y="303" type="curve" smooth="yes"/>
      <point x="259" y="380"/>
      <point x="322" y="431"/>
      <point x="436" y="457" type="curve" smooth="yes"/>
      <point x="629" y="501" type="line" smooth="yes"/>
      <point x="849" y="551"/>
      <point x="955" y="656"/>
      <point x="980" y="806" type="curve" smooth="yes"/>
      <point x="1012" y="997"/>
      <point x="859" y="1132"/>
      <point x="619" y="1132" type="curve" smooth="yes"/>
      <point x="391" y="1132"/>
      <point x="250" y="1022"/>
    </contour>
  </outline>
</glyph>
<glyph name="eshlooprev" format="2">
  <advance width="1118"/>
  <unicode hex="01AA"/>
  <outline>
    <contour>
      <point x="693" y="1123" type="line" name="hr00"/>
      <point x="493" y="-67" type="line" smooth="yes"/>
      <point x="454" y="-299"/>
      <point x="534" y="-419"/>
      <point x="724" y="-419" type="curve" smooth="yes"/>
      <point x="762" y="-419"/>
      <point x="814" y="-414"/>
      <point x="847" y="-403" type="curve"/>
      <point x="874" y="-239" type="line"/>
      <point x="853" y="-245"/>
      <point x="824" y="-249"/>
      <point x="806" y="-249" type="curve" smooth="yes"/>
      <point x="716" y="-249"/>
      <point x="681" y="-199"/>
      <point x="703" y="-67" type="curve" smooth="yes"/>
      <point x="916" y="1213" type="line"/>
    </contour>
    <contour>
      <point x="223" y="1211" type="curve" smooth="yes"/>
      <point x="193" y="1020"/>
      <point x="323" y="867"/>
      <point x="511" y="867" type="curve" smooth="yes"/>
      <point x="702" y="867"/>
      <point x="884" y="1026"/>
      <point x="915" y="1211" type="curve" smooth="yes"/>
      <point x="947" y="1402"/>
      <point x="819" y="1558"/>
      <point x="627" y="1558" type="curve" smooth="yes"/>
      <point x="432" y="1558"/>
      <point x="253" y="1402"/>
    </contour>
    <contour>
      <point x="544" y="1057" type="curve" smooth="yes"/>
      <point x="462" y="1057"/>
      <point x="399" y="1104"/>
      <point x="416" y="1214" type="curve" smooth="yes"/>
      <point x="433" y="1324"/>
      <point x="512" y="1376"/>
      <point x="596" y="1376" type="curve" smooth="yes"/>
      <point x="681" y="1376"/>
      <point x="739" y="1321"/>
      <point x="721" y="1215" type="curve" smooth="yes"/>
      <point x="703" y="1109"/>
      <point x="629" y="1057"/>
    </contour>
  </outline>
</glyph>
<glyph name="thook" format="2">
  <advance width="746"/>
  <unicode hex="01AD"/>
  <anchor x="506" y="1118" name="_topr"/>
  <anchor x="324" y="0" name="bottom"/>
  <anchor x="475" y="1490" name="top"/>
  <anchor x="495" y="1118" name="topr"/>
  <outline>
    <contour>
      <point x="442" y="-14" type="curve" smooth="yes"/>
      <point x="489" y="-14"/>
      <point x="539" y="-6"/>
      <point x="573" y="6" type="curve"/>
      <point x="562" y="160" type="line"/>
      <point x="531" y="154"/>
      <point x="508" y="152"/>
      <point x="485" y="152" type="curve" smooth="yes"/>
      <point x="381" y="152"/>
      <point x="344" y="204"/>
      <point x="363" y="320" type="curve" smooth="yes"/>
      <point x="484" y="1049" type="line"/>
      <point x="314" y="1049" type="line"/>
      <point x="185" y="274" type="line" smooth="yes"/>
      <point x="157" y="103"/>
      <point x="262" y="-14"/>
    </contour>
    <contour>
      <point x="133" y="972" type="line"/>
      <point x="711" y="972" type="line"/>
      <point x="735" y="1118" type="line"/>
      <point x="157" y="1118" type="line"/>
    </contour>
    <component base="_part.top_r_hook" xOffset="81"/>
  </outline>
</glyph>
<glyph name="Trthook" format="2">
  <advance width="1324"/>
  <unicode hex="01AE"/>
  <anchor x="571" y="0" name="bottom"/>
  <anchor x="666" y="0" name="bottomr"/>
  <anchor x="572" y="0" name="cedilla"/>
  <anchor x="697" y="763" name="cross"/>
  <anchor x="666" y="0" name="cyrtic"/>
  <anchor x="616" y="0" name="right"/>
  <anchor x="818" y="1490" name="top"/>
  <outline>
    <contour>
      <point x="654" y="0" type="line"/>
      <point x="474" y="0" type="line"/>
      <point x="454" y="-122" type="line" smooth="yes"/>
      <point x="422" y="-316"/>
      <point x="553" y="-419"/>
      <point x="716" y="-418" type="curve"/>
      <point x="814" y="-418" type="line"/>
      <point x="840" y="-258" type="line"/>
      <point x="786" y="-258" type="line"/>
      <point x="692" y="-259"/>
      <point x="615" y="-236"/>
      <point x="634" y="-120" type="curve" smooth="yes"/>
    </contour>
    <component base="T"/>
  </outline>
</glyph>
<glyph name="Uhorn" format="2">
  <advance width="1518"/>
  <unicode hex="01AF"/>
  <anchor x="669" y="0" name="bottom"/>
  <anchor x="1334" y="501" name="ogonek"/>
  <anchor x="755" y="0" name="right"/>
  <anchor x="1307" y="1490" name="rtophorn"/>
  <anchor x="916" y="1490" name="top"/>
  <outline>
    <contour>
      <point x="1288" y="1346" type="line"/>
      <point x="1486" y="1346" type="line" smooth="yes"/>
      <point x="1600" y="1346"/>
      <point x="1665" y="1402"/>
      <point x="1684" y="1516" type="curve" smooth="yes"/>
      <point x="1714" y="1698" type="line"/>
      <point x="1544" y="1698" type="line"/>
      <point x="1513" y="1508" type="line" smooth="yes"/>
      <point x="1511" y="1497"/>
      <point x="1503" y="1490"/>
      <point x="1492" y="1490" type="curve" smooth="yes"/>
      <point x="1312" y="1490" type="line"/>
    </contour>
    <component base="U"/>
  </outline>
</glyph>
<glyph name="uhorn" format="2">
  <advance width="1269"/>
  <unicode hex="01B0"/>
  <anchor x="514" y="0" name="bottom"/>
  <anchor x="961" y="0" name="ogonek"/>
  <anchor x="965" y="1118" name="rtophorn"/>
  <anchor x="698" y="1118" name="top"/>
  <outline>
    <contour>
      <point x="1016" y="998" type="line"/>
      <point x="1130" y="998" type="line" smooth="yes"/>
      <point x="1244" y="998"/>
      <point x="1309" y="1054"/>
      <point x="1328" y="1168" type="curve" smooth="yes"/>
      <point x="1361" y="1366" type="line"/>
      <point x="1201" y="1366" type="line"/>
      <point x="1166" y="1152" type="line" smooth="yes"/>
      <point x="1162" y="1128"/>
      <point x="1150" y="1118"/>
      <point x="1126" y="1118" type="curve" smooth="yes"/>
      <point x="1036" y="1118" type="line"/>
    </contour>
    <component base="u"/>
  </outline>
</glyph>
<glyph name="Upsilon2" format="2">
  <advance width="1567"/>
  <unicode hex="01B1"/>
  <outline>
    <contour>
      <point x="146" y="703" type="curve" smooth="yes"/>
      <point x="76" y="279"/>
      <point x="301" y="-20"/>
      <point x="688" y="-20" type="curve" smooth="yes"/>
      <point x="1075" y="-20"/>
      <point x="1397" y="279"/>
      <point x="1467" y="700" type="curve" smooth="yes"/>
      <point x="1514" y="982"/>
      <point x="1432" y="1190"/>
      <point x="1259" y="1311" type="curve"/>
      <point x="1262" y="1323" type="line"/>
      <point x="1572" y="1323" type="line"/>
      <point x="1599" y="1490" type="line"/>
      <point x="1065" y="1490" type="line"/>
      <point x="1027" y="1277" type="line"/>
      <point x="1202" y="1198"/>
      <point x="1328" y="984"/>
      <point x="1283" y="705" type="curve" smooth="yes"/>
      <point x="1233" y="395"/>
      <point x="994" y="156"/>
      <point x="717" y="156" type="curve" smooth="yes"/>
      <point x="442" y="156"/>
      <point x="283" y="394"/>
      <point x="331" y="700" type="curve" smooth="yes"/>
      <point x="374" y="974"/>
      <point x="570" y="1195"/>
      <point x="773" y="1277" type="curve"/>
      <point x="811" y="1490" type="line"/>
      <point x="276" y="1490" type="line"/>
      <point x="249" y="1323" type="line"/>
      <point x="559" y="1323" type="line"/>
      <point x="555" y="1311" type="line"/>
      <point x="339" y="1184"/>
      <point x="191" y="976"/>
    </contour>
  </outline>
</glyph>
<glyph name="Vcursive" format="2">
  <advance width="1298"/>
  <unicode hex="01B2"/>
  <outline>
    <contour>
      <point x="553" y="-20" type="curve" smooth="yes"/>
      <point x="839" y="-20"/>
      <point x="1116" y="143"/>
      <point x="1171" y="474" type="curve" smooth="yes"/>
      <point x="1284" y="1155" type="line" smooth="yes"/>
      <point x="1322" y="1384"/>
      <point x="1200" y="1510"/>
      <point x="1017" y="1510" type="curve" smooth="yes"/>
      <point x="970" y="1510"/>
      <point x="925" y="1501"/>
      <point x="893" y="1492" type="curve"/>
      <point x="863" y="1325" type="line"/>
      <point x="885" y="1329"/>
      <point x="914" y="1331"/>
      <point x="935" y="1331" type="curve" smooth="yes"/>
      <point x="1036" y="1331"/>
      <point x="1087" y="1289"/>
      <point x="1065" y="1155" type="curve" smooth="yes"/>
      <point x="953" y="474" type="line" smooth="yes"/>
      <point x="916" y="249"/>
      <point x="770" y="152"/>
      <point x="580" y="152" type="curve" smooth="yes"/>
      <point x="393" y="152"/>
      <point x="278" y="247"/>
      <point x="316" y="474" type="curve" smooth="yes"/>
      <point x="486" y="1490" type="line"/>
      <point x="270" y="1490" type="line"/>
      <point x="102" y="474" type="line" smooth="yes"/>
      <point x="47" y="141"/>
      <point x="255" y="-20"/>
    </contour>
  </outline>
</glyph>
<glyph name="Yhook" format="2">
  <advance width="1460"/>
  <unicode hex="01B3"/>
  <outline>
    <contour>
      <point x="707" y="764" type="line"/>
      <point x="743" y="764" type="line"/>
      <point x="747" y="798" type="line"/>
      <point x="713" y="798" type="line"/>
    </contour>
    <contour>
      <point x="210" y="1490" type="line"/>
      <point x="605" y="611" type="line"/>
      <point x="503" y="0" type="line"/>
      <point x="693" y="0" type="line"/>
      <point x="794" y="611" type="line"/>
      <point x="1297" y="1257" type="line" smooth="yes"/>
      <point x="1364" y="1343"/>
      <point x="1432" y="1354"/>
      <point x="1497" y="1325" type="curve"/>
      <point x="1570" y="1478" type="line"/>
      <point x="1439" y="1543"/>
      <point x="1280" y="1506"/>
      <point x="1153" y="1339" type="curve" smooth="yes"/>
      <point x="731" y="784" type="line"/>
      <point x="426" y="1490" type="line"/>
    </contour>
  </outline>
</glyph>
<glyph name="yhook" format="2">
  <advance width="1396"/>
  <unicode hex="01B4"/>
  <anchor x="764" y="0" name="bottom"/>
  <anchor x="574" y="0" name="ogonek"/>
  <anchor x="668" y="1118" name="top"/>
  <outline>
    <contour>
      <point x="991" y="1118" type="line"/>
      <point x="1180" y="1118" type="line"/>
      <point x="1255" y="1249" type="line" smooth="yes"/>
      <point x="1290" y="1315"/>
      <point x="1326" y="1356"/>
      <point x="1444" y="1356" type="curve" smooth="yes"/>
      <point x="1455" y="1356"/>
      <point x="1476" y="1356"/>
      <point x="1495" y="1353" type="curve"/>
      <point x="1508" y="1495" type="line"/>
      <point x="1480" y="1500"/>
      <point x="1435" y="1504"/>
      <point x="1385" y="1504" type="curve" smooth="yes"/>
      <point x="1205" y="1504"/>
      <point x="1144" y="1412"/>
      <point x="1063" y="1259" type="curve" smooth="yes"/>
    </contour>
    <component base="y"/>
  </outline>
</glyph>
<glyph name="Ezh" format="2">
  <advance width="1403"/>
  <unicode hex="01B7"/>
  <anchor x="887" y="1676" name="top"/>
  <outline>
    <contour>
      <point x="19" y="67" type="line"/>
      <point x="-16" y="-234"/>
      <point x="203" y="-440"/>
      <point x="523" y="-440" type="curve" smooth="yes"/>
      <point x="879" y="-440"/>
      <point x="1163" y="-181"/>
      <point x="1224" y="179" type="curve" smooth="yes"/>
      <point x="1283" y="527"/>
      <point x="1094" y="779"/>
      <point x="763" y="794" type="curve"/>
      <point x="765" y="808" type="line"/>
      <point x="1379" y="1351" type="line"/>
      <point x="1402" y="1490" type="line"/>
      <point x="338" y="1490" type="line"/>
      <point x="309" y="1319" type="line"/>
      <point x="1112" y="1319" type="line"/>
      <point x="1112" y="1307" type="line"/>
      <point x="538" y="803" type="line"/>
      <point x="511" y="648" type="line"/>
      <point x="625" y="648" type="line" smooth="yes"/>
      <point x="912" y="648"/>
      <point x="1083" y="465"/>
      <point x="1035" y="177" type="curve" smooth="yes"/>
      <point x="993" y="-75"/>
      <point x="804" y="-270"/>
      <point x="556" y="-270" type="curve" smooth="yes"/>
      <point x="345" y="-270"/>
      <point x="191" y="-133"/>
      <point x="211" y="67" type="curve"/>
    </contour>
  </outline>
</glyph>
<glyph name="Ezhreversed" format="2">
  <advance width="1403"/>
  <unicode hex="01B8"/>
  <anchor x="885" y="1676" name="top"/>
  <outline>
    <contour>
      <point x="1222" y="67" type="curve"/>
      <point x="1028" y="67" type="line"/>
      <point x="982" y="-132"/>
      <point x="785" y="-270"/>
      <point x="572" y="-270" type="curve" smooth="yes"/>
      <point x="326" y="-270"/>
      <point x="201" y="-77"/>
      <point x="242" y="177" type="curve" smooth="yes"/>
      <point x="289" y="468"/>
      <point x="523" y="648"/>
      <point x="808" y="648" type="curve" smooth="yes"/>
      <point x="921" y="648" type="line"/>
      <point x="946" y="803" type="line"/>
      <point x="539" y="1307" type="line"/>
      <point x="539" y="1319" type="line"/>
      <point x="1344" y="1319" type="line"/>
      <point x="1374" y="1490" type="line"/>
      <point x="308" y="1490" type="line"/>
      <point x="285" y="1351" type="line"/>
      <point x="719" y="808" type="line"/>
      <point x="717" y="794" type="line"/>
      <point x="384" y="779"/>
      <point x="112" y="531"/>
      <point x="54" y="182" type="curve" smooth="yes"/>
      <point x="-6" y="-179"/>
      <point x="190" y="-440"/>
      <point x="547" y="-440" type="curve" smooth="yes"/>
      <point x="868" y="-440"/>
      <point x="1155" y="-234"/>
    </contour>
  </outline>
</glyph>
<glyph name="ezhreversed" format="2">
  <advance width="1269"/>
  <unicode hex="01B9"/>
  <anchor x="718" y="1118" name="top"/>
  <outline>
    <contour>
      <point x="478" y="-392" type="curve" smooth="yes"/>
      <point x="749" y="-392"/>
      <point x="994" y="-244"/>
      <point x="1052" y="4" type="curve"/>
      <point x="858" y="4" type="line"/>
      <point x="818" y="-143"/>
      <point x="674" y="-225"/>
      <point x="502" y="-225" type="curve" smooth="yes"/>
      <point x="320" y="-225"/>
      <point x="195" y="-132"/>
      <point x="225" y="48" type="curve" smooth="yes"/>
      <point x="251" y="207"/>
      <point x="380" y="347"/>
      <point x="649" y="347" type="curve" smooth="yes"/>
      <point x="770" y="347" type="line"/>
      <point x="796" y="499" type="line"/>
      <point x="499" y="939" type="line"/>
      <point x="501" y="951" type="line"/>
      <point x="1134" y="951" type="line"/>
      <point x="1162" y="1118" type="line"/>
      <point x="270" y="1118" type="line"/>
      <point x="247" y="979" type="line"/>
      <point x="569" y="503" type="line"/>
      <point x="567" y="491" type="line"/>
      <point x="304" y="478"/>
      <point x="76" y="292"/>
      <point x="36" y="46" type="curve" smooth="yes"/>
      <point x="-6" y="-208"/>
      <point x="176" y="-392"/>
    </contour>
  </outline>
</glyph>
<glyph name="ezhtail" format="2">
  <advance width="1110"/>
  <unicode hex="01BA"/>
  <outline>
    <contour>
      <point x="239" y="1118" type="line" name="hr00"/>
      <point x="212" y="952" type="line"/>
      <point x="782" y="952" type="line"/>
      <point x="354" y="622" type="line"/>
      <point x="332" y="492" type="line"/>
      <point x="441" y="492" type="line"/>
      <point x="1091" y="990" type="line"/>
      <point x="1112" y="1118" type="line"/>
    </contour>
    <contour>
      <point x="183" y="-131" type="curve" smooth="yes"/>
      <point x="195" y="-63"/>
      <point x="248" y="3"/>
      <point x="451" y="45" type="curve" smooth="yes"/>
      <point x="706" y="98"/>
      <point x="870" y="178"/>
      <point x="901" y="365" type="curve" smooth="yes"/>
      <point x="930" y="537"/>
      <point x="788" y="656"/>
      <point x="539" y="656" type="curve" smooth="yes"/>
      <point x="470" y="656" type="line"/>
      <point x="430" y="492" type="line"/>
      <point x="511" y="492" type="line" smooth="yes"/>
      <point x="654" y="492"/>
      <point x="706" y="447"/>
      <point x="694" y="372" type="curve" smooth="yes"/>
      <point x="679" y="281"/>
      <point x="618" y="247"/>
      <point x="443" y="212" type="curve" smooth="yes"/>
      <point x="161" y="155"/>
      <point x="11" y="53"/>
      <point x="-18" y="-119" type="curve" smooth="yes"/>
      <point x="-50" y="-312"/>
      <point x="94" y="-444"/>
      <point x="352" y="-444" type="curve" smooth="yes"/>
      <point x="643" y="-444"/>
      <point x="831" y="-265"/>
      <point x="861" y="-85" type="curve"/>
      <point x="656" y="-85" type="line"/>
      <point x="622" y="-234"/>
      <point x="492" y="-280"/>
      <point x="370" y="-280" type="curve" smooth="yes"/>
      <point x="240" y="-280"/>
      <point x="168" y="-224"/>
    </contour>
  </outline>
</glyph>
<glyph name="Tonefive" format="2">
  <advance width="1247"/>
  <unicode hex="01BC"/>
  <outline>
    <contour>
      <point x="546" y="1490" type="line" name="hr00"/>
      <point x="254" y="1490" type="line"/>
      <point x="226" y="1323" type="line"/>
      <point x="518" y="1323" type="line"/>
    </contour>
    <component base="five" xOffset="34"/>
  </outline>
</glyph>
<glyph name="tonefive" format="2">
  <advance width="1114"/>
  <unicode hex="01BD"/>
  <outline>
    <contour>
      <point x="374" y="471" type="line" name="hr00"/>
      <point x="420" y="524"/>
      <point x="486" y="571"/>
      <point x="598" y="571" type="curve" smooth="yes"/>
      <point x="742" y="571"/>
      <point x="804" y="488"/>
      <point x="784" y="362" type="curve" smooth="yes"/>
      <point x="764" y="236"/>
      <point x="675" y="152"/>
      <point x="521" y="152" type="curve" smooth="yes"/>
      <point x="391" y="152"/>
      <point x="312" y="219"/>
      <point x="330" y="323" type="curve"/>
      <point x="128" y="307" type="line"/>
      <point x="90" y="87"/>
      <point x="303" y="-18"/>
      <point x="494" y="-18" type="curve" smooth="yes"/>
      <point x="795" y="-18"/>
      <point x="954" y="141"/>
      <point x="989" y="360" type="curve" smooth="yes"/>
      <point x="1028" y="604"/>
      <point x="904" y="740"/>
      <point x="666" y="734" type="curve"/>
      <point x="589" y="731"/>
      <point x="493" y="703"/>
      <point x="447" y="673" type="curve"/>
      <point x="512" y="905" type="line"/>
      <point x="1023" y="905" type="line"/>
      <point x="1052" y="1082" type="line"/>
      <point x="367" y="1082" type="line"/>
      <point x="198" y="485" type="line"/>
    </contour>
    <contour>
      <point x="483" y="1082" type="line"/>
      <point x="180" y="1082" type="line"/>
      <point x="151" y="905" type="line"/>
      <point x="454" y="905" type="line"/>
    </contour>
  </outline>
</glyph>
<glyph name="glottalstopbarinv" format="2">
  <advance width="1112"/>
  <unicode hex="01BE"/>
  <outline>
    <contour>
      <point x="744" y="293" type="curve" smooth="yes"/>
      <point x="732" y="207"/>
      <point x="642" y="144"/>
      <point x="502" y="144" type="curve" smooth="yes"/>
      <point x="388" y="144"/>
      <point x="273" y="193"/>
      <point x="293" y="340" type="curve"/>
      <point x="84" y="340" type="line"/>
      <point x="52" y="157"/>
      <point x="182" y="-20"/>
      <point x="475" y="-20" type="curve" smooth="yes"/>
      <point x="731" y="-20"/>
      <point x="924" y="115"/>
      <point x="955" y="309" type="curve" smooth="yes"/>
      <point x="1003" y="607"/>
      <point x="630" y="541"/>
      <point x="671" y="790" type="curve" smooth="yes"/>
      <point x="762" y="1343" type="line"/>
      <point x="554" y="1343" type="line"/>
      <point x="461" y="785" type="line" smooth="yes"/>
      <point x="406" y="454"/>
      <point x="770" y="481"/>
    </contour>
    <contour>
      <point x="916" y="1082" type="line"/>
      <point x="319" y="1082" type="line"/>
      <point x="290" y="929" type="line"/>
      <point x="889" y="929" type="line"/>
    </contour>
  </outline>
</glyph>
<glyph name="wynn" format="2">
  <advance width="1298"/>
  <unicode hex="01BF"/>
  <outline>
    <contour>
      <point x="444" y="910" type="line"/>
      <point x="458" y="1118" type="line"/>
      <point x="266" y="1118" type="line"/>
      <point x="40" y="-416" type="line"/>
      <point x="248" y="-416" type="line"/>
    </contour>
    <contour>
      <point x="359" y="679" type="line"/>
      <point x="411" y="829"/>
      <point x="513" y="960"/>
      <point x="687" y="960" type="curve" smooth="yes"/>
      <point x="882" y="960"/>
      <point x="939" y="784"/>
      <point x="909" y="578" type="curve" smooth="yes"/>
      <point x="902" y="530" type="line" smooth="yes"/>
      <point x="855" y="208"/>
      <point x="584" y="62"/>
      <point x="240" y="-15" type="curve"/>
      <point x="215" y="-181" type="line"/>
      <point x="722" y="-47"/>
      <point x="1050" y="112"/>
      <point x="1111" y="530" type="curve" smooth="yes"/>
      <point x="1118" y="578" type="line" smooth="yes"/>
      <point x="1167" y="914"/>
      <point x="1047" y="1132"/>
      <point x="776" y="1132" type="curve" smooth="yes"/>
      <point x="503" y="1132"/>
      <point x="332" y="936"/>
      <point x="249" y="601" type="curve"/>
    </contour>
  </outline>
</glyph>
<glyph name="pipe" format="2">
  <advance width="545"/>
  <unicode hex="01C0"/>
  <outline>
    <contour>
      <point x="507" y="1488" type="line"/>
      <point x="346" y="1488" type="line"/>
      <point x="98" y="0" type="line"/>
      <point x="260" y="0" type="line"/>
    </contour>
  </outline>
</glyph>
<glyph name="uni01F6" format="2">
  <advance width="2290"/>
  <unicode hex="01F6"/>
  <outline>
    <contour>
      <point x="1562" y="-20" type="curve" smooth="yes"/>
      <point x="1842" y="-20"/>
      <point x="2062" y="139"/>
      <point x="2117" y="468" type="curve" smooth="yes"/>
      <point x="2224" y="1116" type="line"/>
      <point x="2034" y="1116" type="line"/>
      <point x="1929" y="480" type="line" smooth="yes"/>
      <point x="1892" y="259"/>
      <point x="1766" y="153"/>
      <point x="1569" y="153" type="curve" smooth="yes"/>
      <point x="1384" y="153"/>
      <point x="1292" y="247"/>
      <point x="1329" y="468" type="curve" smooth="yes"/>
      <point x="1498" y="1490" type="line"/>
      <point x="1306" y="1490" type="line"/>
      <point x="1197" y="830" type="line"/>
      <point x="415" y="830" type="line"/>
      <point x="524" y="1490" type="line"/>
      <point x="334" y="1490" type="line"/>
      <point x="87" y="0" type="line"/>
      <point x="277" y="0" type="line"/>
      <point x="387" y="662" type="line"/>
      <point x="1169" y="662" type="line"/>
      <point x="1139" y="480" type="line" smooth="yes"/>
      <point x="1085" y="156"/>
      <point x="1261" y="-20"/>
    </contour>
  </outline>
</glyph>
<glyph name="uni01F7" format="2">
  <advance width="1301"/>
  <unicode hex="01F7"/>
  <outline>
    <contour>
      <point x="482" y="1490" type="line"/>
      <point x="264" y="1490" type="line"/>
      <point x="-46" y="-418" type="line"/>
      <point x="170" y="-418" type="line"/>
    </contour>
    <contour>
      <point x="96" y="-181" type="line"/>
      <point x="666" y="-110"/>
      <point x="1155" y="314"/>
      <point x="1233" y="829" type="curve" smooth="yes"/>
      <point x="1243" y="895" type="line" smooth="yes"/>
      <point x="1303" y="1291"/>
      <point x="1120" y="1510"/>
      <point x="757" y="1510" type="curve" smooth="yes"/>
      <point x="611" y="1510"/>
      <point x="499" y="1477"/>
      <point x="398" y="1406" type="curve"/>
      <point x="332" y="1014" type="line"/>
      <point x="404" y="1232"/>
      <point x="521" y="1335"/>
      <point x="732" y="1335" type="curve" smooth="yes"/>
      <point x="971" y="1335"/>
      <point x="1075" y="1198"/>
      <point x="1028" y="899" type="curve" smooth="yes"/>
      <point x="1017" y="829" type="line" smooth="yes"/>
      <point x="950" y="403"/>
      <point x="580" y="65"/>
      <point x="123" y="-8" type="curve"/>
    </contour>
  </outline>
</glyph>
<glyph name="uni021C" format="2">
  <advance width="1297"/>
  <unicode hex="021C"/>
  <outline>
    <contour>
      <point x="188" y="337" type="line"/>
      <point x="745" y="454"/>
      <point x="1170" y="720"/>
      <point x="1234" y="1075" type="curve" smooth="yes"/>
      <point x="1285" y="1358"/>
      <point x="1088" y="1510"/>
      <point x="799" y="1510" type="curve" smooth="yes"/>
      <point x="499" y="1510"/>
      <point x="264" y="1352"/>
      <point x="224" y="1105" type="curve"/>
      <point x="439" y="1105" type="line"/>
      <point x="461" y="1240"/>
      <point x="586" y="1336"/>
      <point x="770" y="1336" type="curve" smooth="yes"/>
      <point x="955" y="1336"/>
      <point x="1047" y="1236"/>
      <point x="1018" y="1061" type="curve" smooth="yes"/>
      <point x="973" y="789"/>
      <point x="703" y="633"/>
      <point x="215" y="493" type="curve"/>
    </contour>
    <contour>
      <point x="812" y="642" type="line"/>
      <point x="915" y="603"/>
      <point x="948" y="514"/>
      <point x="919" y="340" type="curve" smooth="yes"/>
      <point x="858" y="-26"/>
      <point x="567" y="-171"/>
      <point x="89" y="-264" type="curve"/>
      <point x="60" y="-436" type="line"/>
      <point x="627" y="-328"/>
      <point x="1050" y="-144"/>
      <point x="1132" y="318" type="curve" smooth="yes"/>
      <point x="1176" y="566"/>
      <point x="1097" y="703"/>
      <point x="932" y="761" type="curve"/>
    </contour>
  </outline>
</glyph>
<glyph name="uni021D" format="2">
  <advance width="1110"/>
  <unicode hex="021D"/>
  <outline>
    <contour>
      <point x="157" y="206" type="line"/>
      <point x="620" y="292"/>
      <point x="951" y="518"/>
      <point x="996" y="794" type="curve" smooth="yes"/>
      <point x="1030" y="1002"/>
      <point x="884" y="1132"/>
      <point x="640" y="1132" type="curve" smooth="yes"/>
      <point x="376" y="1132"/>
      <point x="201" y="993"/>
      <point x="165" y="779" type="curve"/>
      <point x="371" y="779" type="line"/>
      <point x="391" y="896"/>
      <point x="485" y="967"/>
      <point x="615" y="967" type="curve" smooth="yes"/>
      <point x="746" y="967"/>
      <point x="804" y="898"/>
      <point x="786" y="783" type="curve" smooth="yes"/>
      <point x="756" y="592"/>
      <point x="541" y="443"/>
      <point x="184" y="359" type="curve"/>
    </contour>
    <contour>
      <point x="621" y="450" type="line"/>
      <point x="699" y="415"/>
      <point x="729" y="317"/>
      <point x="708" y="191" type="curve" smooth="yes"/>
      <point x="668" y="-49"/>
      <point x="493" y="-183"/>
      <point x="79" y="-275" type="curve"/>
      <point x="52" y="-436" type="line"/>
      <point x="564" y="-368"/>
      <point x="852" y="-169"/>
      <point x="913" y="170" type="curve" smooth="yes"/>
      <point x="949" y="370"/>
      <point x="885" y="497"/>
      <point x="745" y="554" type="curve"/>
    </contour>
  </outline>
</glyph>
<glyph name="uni0220" format="2">
  <advance width="1296"/>
  <unicode hex="0220"/>
  <outline>
    <contour>
      <point x="1019" y="-416" type="line"/>
      <point x="1254" y="1021" type="line" smooth="yes"/>
      <point x="1307" y="1345"/>
      <point x="1086" y="1510"/>
      <point x="807" y="1510" type="curve" smooth="yes"/>
      <point x="650" y="1510"/>
      <point x="504" y="1456"/>
      <point x="404" y="1392" type="curve"/>
      <point x="376" y="1223" type="line"/>
      <point x="482" y="1292"/>
      <point x="616" y="1338"/>
      <point x="761" y="1338" type="curve" smooth="yes"/>
      <point x="983" y="1338"/>
      <point x="1082" y="1239"/>
      <point x="1046" y="1021" type="curve" smooth="yes"/>
      <point x="809" y="-416" type="line"/>
    </contour>
    <contour>
      <point x="480" y="1490" type="line"/>
      <point x="274" y="1490" type="line"/>
      <point x="26" y="0" type="line"/>
      <point x="232" y="0" type="line"/>
    </contour>
  </outline>
</glyph>
<glyph name="uni0222" format="2">
  <advance width="1294"/>
  <unicode hex="0222"/>
  <outline>
    <contour>
      <point x="690" y="885" type="line" name="hr00"/>
      <point x="380" y="884"/>
      <point x="112" y="736"/>
      <point x="62" y="438" type="curve" smooth="yes"/>
      <point x="10" y="128"/>
      <point x="229" y="-20"/>
      <point x="539" y="-20" type="curve" smooth="yes"/>
      <point x="563" y="-20" type="line" smooth="yes"/>
      <point x="881" y="-20"/>
      <point x="1147" y="135"/>
      <point x="1194" y="447" type="curve" smooth="yes"/>
      <point x="1238" y="739"/>
      <point x="1019" y="885"/>
      <point x="714" y="885" type="curve" smooth="yes"/>
    </contour>
    <contour>
      <point x="687" y="722" type="line"/>
      <point x="890" y="722"/>
      <point x="1008" y="630"/>
      <point x="978" y="440" type="curve" smooth="yes"/>
      <point x="947" y="244"/>
      <point x="799" y="158"/>
      <point x="592" y="158" type="curve" smooth="yes"/>
      <point x="568" y="158" type="line" smooth="yes"/>
      <point x="359" y="158"/>
      <point x="245" y="246"/>
      <point x="276" y="434" type="curve" smooth="yes"/>
      <point x="308" y="628"/>
      <point x="455" y="722"/>
      <point x="663" y="722" type="curve" smooth="yes"/>
    </contour>
    <contour>
      <point x="682" y="901" type="line"/>
      <point x="500" y="901"/>
      <point x="358" y="932"/>
      <point x="390" y="1126" type="curve" smooth="yes"/>
      <point x="411" y="1253"/>
      <point x="483" y="1316"/>
      <point x="610" y="1346" type="curve"/>
      <point x="637" y="1510" type="line"/>
      <point x="417" y="1499"/>
      <point x="218" y="1381"/>
      <point x="176" y="1130" type="curve" smooth="yes"/>
      <point x="126" y="831"/>
      <point x="358" y="738"/>
      <point x="655" y="738" type="curve" smooth="yes"/>
      <point x="696" y="738" type="line" smooth="yes"/>
      <point x="991" y="738"/>
      <point x="1259" y="829"/>
      <point x="1307" y="1130" type="curve" smooth="yes"/>
      <point x="1347" y="1381"/>
      <point x="1191" y="1499"/>
      <point x="971" y="1510" type="curve"/>
      <point x="944" y="1346" type="line"/>
      <point x="1064" y="1315"/>
      <point x="1111" y="1249"/>
      <point x="1092" y="1129" type="curve" smooth="yes"/>
      <point x="1061" y="933"/>
      <point x="910" y="901"/>
      <point x="723" y="901" type="curve" smooth="yes"/>
    </contour>
  </outline>
</glyph>
<glyph name="uni0223" format="2">
  <advance width="1294"/>
  <unicode hex="0223"/>
  <outline>
    <contour>
      <point x="687" y="880" type="line"/>
      <point x="380" y="881"/>
      <point x="115" y="737"/>
      <point x="64" y="437" type="curve" smooth="yes"/>
      <point x="11" y="125"/>
      <point x="232" y="-20"/>
      <point x="539" y="-20" type="curve" smooth="yes"/>
      <point x="563" y="-20" type="line" smooth="yes"/>
      <point x="874" y="-20"/>
      <point x="1136" y="129"/>
      <point x="1188" y="437" type="curve" smooth="yes"/>
      <point x="1238" y="733"/>
      <point x="1022" y="880"/>
      <point x="711" y="880" type="curve" smooth="yes"/>
    </contour>
    <contour>
      <point x="686" y="725" type="line"/>
      <point x="893" y="724"/>
      <point x="1011" y="626"/>
      <point x="980" y="437" type="curve" smooth="yes"/>
      <point x="948" y="241"/>
      <point x="792" y="146"/>
      <point x="590" y="146" type="curve" smooth="yes"/>
      <point x="566" y="146" type="line" smooth="yes"/>
      <point x="362" y="146"/>
      <point x="242" y="240"/>
      <point x="272" y="433" type="curve" smooth="yes"/>
      <point x="302" y="626"/>
      <point x="454" y="725"/>
      <point x="664" y="725" type="curve" smooth="yes"/>
    </contour>
    <contour>
      <point x="723" y="891" type="curve"/>
      <point x="682" y="891" type="line" smooth="yes"/>
      <point x="508" y="891"/>
      <point x="356" y="941"/>
      <point x="390" y="1144" type="curve" smooth="yes"/>
      <point x="414" y="1287"/>
      <point x="493" y="1355"/>
      <point x="618" y="1402" type="curve"/>
      <point x="645" y="1556" type="line"/>
      <point x="423" y="1548"/>
      <point x="223" y="1404"/>
      <point x="180" y="1143" type="curve" smooth="yes"/>
      <point x="131" y="846"/>
      <point x="361" y="737"/>
      <point x="655" y="737" type="curve" smooth="yes"/>
      <point x="696" y="737" type="line" smooth="yes"/>
      <point x="987" y="737"/>
      <point x="1254" y="844"/>
      <point x="1305" y="1141" type="curve" smooth="yes"/>
      <point x="1350" y="1403"/>
      <point x="1197" y="1549"/>
      <point x="979" y="1556" type="curve"/>
      <point x="952" y="1402" type="line"/>
      <point x="1072" y="1353"/>
      <point x="1120" y="1281"/>
      <point x="1097" y="1143" type="curve" smooth="yes"/>
      <point x="1064" y="945"/>
      <point x="907" y="890"/>
    </contour>
  </outline>
</glyph>
<glyph name="zhook" format="2">
  <advance width="1131"/>
  <unicode hex="0225"/>
  <outline>
    <contour>
      <point x="744" y="-235" type="line"/>
      <point x="908" y="-235" type="line"/>
      <point x="924" y="-134" type="line" smooth="yes"/>
      <point x="952" y="43"/>
      <point x="858" y="167"/>
      <point x="672" y="167" type="curve" smooth="yes"/>
      <point x="311" y="167" type="line"/>
      <point x="313" y="178" type="line"/>
      <point x="1053" y="975" type="line"/>
      <point x="1077" y="1118" type="line"/>
      <point x="238" y="1118" type="line"/>
      <point x="211" y="951" type="line"/>
      <point x="818" y="951" type="line"/>
      <point x="816" y="940" type="line"/>
      <point x="56" y="134" type="line"/>
      <point x="33" y="0" type="line"/>
      <point x="641" y="0" type="line" smooth="yes"/>
      <point x="757" y="0"/>
      <point x="770" y="-82"/>
      <point x="754" y="-176" type="curve" smooth="yes"/>
    </contour>
  </outline>
</glyph>
<glyph name="jdotless" format="2">
  <advance width="496"/>
  <unicode hex="0237"/>
  <anchor x="383" y="0" name="_right"/>
  <anchor x="23" y="-457" name="bottom"/>
  <anchor x="262" y="650" name="cross"/>
  <anchor x="341" y="1118" name="top"/>
  <outline>
    <contour>
      <point x="250" y="1118" type="line"/>
      <point x="52" y="-80" type="line"/>
      <point x="34" y="-192"/>
      <point x="-24" y="-252"/>
      <point x="-127" y="-252" type="curve" smooth="yes"/>
      <point x="-160" y="-252" type="line"/>
      <point x="-187" y="-418" type="line"/>
      <point x="-151" y="-418" type="line" smooth="yes"/>
      <point x="67" y="-418"/>
      <point x="198" y="-292"/>
      <point x="232" y="-80" type="curve"/>
      <point x="431" y="1118" type="line"/>
    </contour>
  </outline>
</glyph>
